<svg width="28" height="28" viewBox="0 0 28 28" fill="none" xmlns="http://www.w3.org/2000/svg">
<g clip-path="url(#clip0_3154_10625)">
<rect width="28" height="28" rx="14" fill="white" fill-opacity="0.06" style="mix-blend-mode:lighten"/>
<rect width="28" height="28" rx="14" fill="#272727" fill-opacity="0.18"/>
<path d="M6.81934 21.4824C6.68327 21.3525 6.59359 21.1979 6.55029 21.0186C6.507 20.8392 6.507 20.6598 6.55029 20.4805C6.59977 20.3011 6.68945 20.1496 6.81934 20.0259L12.5156 14.311L6.81934 8.60547C6.68945 8.48177 6.60286 8.33024 6.55957 8.15088C6.51628 7.97152 6.51628 7.79215 6.55957 7.61279C6.60286 7.43343 6.68945 7.27881 6.81934 7.14893C6.9554 7.01286 7.11312 6.92318 7.29248 6.87988C7.47184 6.83659 7.6512 6.83659 7.83057 6.87988C8.00993 6.92318 8.16455 7.00977 8.29443 7.13965L14 12.8452L19.6963 7.13965C19.8262 7.00358 19.9808 6.91699 20.1602 6.87988C20.3395 6.83659 20.5158 6.83659 20.689 6.87988C20.8683 6.92318 21.0291 7.01286 21.1714 7.14893C21.3013 7.27881 21.3879 7.43343 21.4312 7.61279C21.4806 7.79215 21.4806 7.97152 21.4312 8.15088C21.3879 8.32406 21.3013 8.47868 21.1714 8.61475L15.4751 14.311L21.1714 20.0166C21.3013 20.1527 21.3879 20.3104 21.4312 20.4897C21.4744 20.6629 21.4744 20.8392 21.4312 21.0186C21.3879 21.1979 21.3013 21.3525 21.1714 21.4824C21.0353 21.6185 20.8776 21.7082 20.6982 21.7515C20.5189 21.7948 20.3395 21.7948 20.1602 21.7515C19.9808 21.7082 19.8262 21.6216 19.6963 21.4917L14 15.7861L8.29443 21.4917C8.16455 21.6216 8.00993 21.7082 7.83057 21.7515C7.65739 21.7948 7.47803 21.7948 7.29248 21.7515C7.11312 21.7082 6.9554 21.6185 6.81934 21.4824Z" fill="white" fill-opacity="0.96"/>
</g>
<defs>
<clipPath id="clip0_3154_10625">
<rect width="28" height="28" rx="14" fill="white"/>
</clipPath>
</defs>
</svg>
