<svg width="198" height="104" viewBox="0 0 198 104" fill="none" xmlns="http://www.w3.org/2000/svg">
<g clip-path="url(#clip0_3224_15847)">
<path d="M54.1064 17.485C69.3053 -2.06993 90.8724 -0.644451 98.9962 0.697632C109.514 2.41883 118.694 7.25641 117.478 22.9823C116.262 38.7081 113.678 39.8227 113.678 39.8227C113.678 39.8227 125.792 31.9674 140.337 32.8242C154.882 33.681 159.738 37.1462 159.738 37.1462C159.738 37.1462 169.435 31.429 182.94 37.4798C196.444 43.5305 200.593 71.8735 195.22 81.1998C189.847 90.5261 184.315 98.4801 172.544 97.2669C160.772 96.0537 157.649 92.9525 157.649 92.9525C157.649 92.9525 152.625 98.8213 138.255 101.066C123.884 103.31 107.857 104.008 107.857 104.008C107.857 104.008 96.6936 103.484 89.7629 98.1313C84.9829 94.4311 79.3137 83.2774 84.1621 72.0479C89.0106 60.8183 84.9221 62.4183 84.9221 62.4183C84.9221 62.4183 80.0736 59.6052 65.004 69.485C51.6898 78.2199 49.4251 73.7388 35.047 72.7455C20.6689 71.7522 24.233 73.8676 9.77133 69.8262C7.66735 67.005 5.15785 64.5089 2.32387 62.4183C-2.52456 58.7939 3.70699 53.236 4.40613 47.2535C6.48838 29.4425 2.22508 30.6708 5.78921 24.802C8.88218 19.7067 16.2612 16.1354 28.7243 14.672C37.2893 13.6775 45.9689 14.6394 54.1064 17.485Z" fill="white"/>
<path d="M38.6348 23.4447C40.4591 24.8373 42.7366 25.5047 45.026 25.3175H47.093C52.7216 25.4388 55.5385 27.6251 55.5436 31.8763C55.5979 33.4103 55.2411 34.931 54.5101 36.2816C54.1865 36.8569 53.7067 37.3294 53.1259 37.6446C52.5451 37.9598 51.8869 38.105 51.2271 38.0635C49.4691 37.9422 48.2785 37.2547 47.6554 36.0011C46.2723 32.8771 44.3927 30.9411 42.0166 30.193C39.5214 29.4237 36.9223 29.0426 34.3108 29.0632H30.5567C28.3027 29.0155 26.0541 29.3017 23.8844 29.9124C22.0706 30.4735 21.0371 31.8788 20.7838 34.1282C20.7139 35.3633 20.2536 36.5445 19.4691 37.5024C18.7091 38.3819 17.5236 38.8142 15.8974 38.8142C15.1846 38.8581 14.4725 38.7171 13.8306 38.4048C13.1886 38.0926 12.6387 37.6197 12.2344 37.0323C11.4517 35.909 11.0375 34.5712 11.0489 33.2032C10.674 27.4557 13.8683 24.7058 20.6318 24.9535C22.8057 25.0934 24.9702 24.5641 26.8329 23.4371C28.2767 22.6684 29.8931 22.2795 31.5294 22.3073H33.9764C35.6003 22.29 37.2024 22.6811 38.6348 23.4447ZM24.7279 43.6896C22.5259 43.7225 20.3774 44.3713 18.5268 45.5625C17.2936 46.3974 15.8742 46.9181 14.3927 47.0789C12.3661 46.9576 11.2389 45.9593 11.0109 44.0839C10.9579 43.3759 11.1407 42.6702 11.531 42.0765C11.9213 41.4828 12.4972 41.0343 13.1692 40.8007C14.8248 40.2039 16.5769 39.9185 18.3368 39.9591H21.9085C23.2989 39.9425 24.6841 39.785 26.0426 39.489C27.5625 39.1781 28.3224 38.7686 28.4896 38.2682C28.2312 37.2673 27.4865 36.8352 26.2098 36.9565C23.9502 36.9565 22.823 36.1982 22.828 34.6818C22.9496 33.3093 24.0515 32.3388 26.1186 31.7777C28.0456 31.2359 30.0365 30.9528 32.0385 30.9361H35.7927C37.8163 31.0381 39.8125 31.4472 41.7126 32.1492C43.5263 32.8367 44.4965 33.8073 44.6232 35.0609C44.6344 35.5921 44.4774 36.1133 44.1745 36.5503C43.8716 36.9873 43.4382 37.3178 42.9361 37.4948C41.0515 37.745 40.1167 38.1242 40.1167 38.6246C40.1167 38.8748 40.3067 39.125 40.6791 39.3828C41.871 41.0026 42.8493 42.7686 43.5897 44.6374C44.4102 46.6707 44.8878 48.8254 45.0032 51.0142C45.0032 55.7608 44.4079 59.6354 43.2173 62.638C42.0267 65.6406 39.5594 67.2026 35.8155 67.3239C33.5837 67.3251 31.3656 66.9772 29.242 66.2927C27.109 65.6053 25.9818 64.4477 25.8602 62.82C25.8656 61.9224 26.1978 61.0574 26.7949 60.386C27.3546 59.6691 28.1726 59.1985 29.0748 59.0743C29.5763 59.0743 29.8879 58.6345 30.0171 57.7625C29.9031 57.4605 29.6923 57.2046 29.4174 57.0346C29.1425 56.8645 28.819 56.7899 28.4972 56.8223C27.5831 56.9375 26.7112 57.2741 25.9575 57.8028C25.2038 58.3315 24.5912 59.0361 24.1731 59.8553C22.0352 62.8478 19.5299 64.4729 16.6573 64.7308C13.0248 64.6044 11.2718 63.3533 11.3985 60.9775C11.3985 59.1021 12.0546 57.8207 13.3667 57.1332C14.8228 56.3975 16.3719 55.8619 17.972 55.5409C20.2746 54.9332 22.5341 54.1733 24.7355 53.2662C27.2686 52.2552 28.6467 51.1937 28.8696 50.0816C28.8445 49.6876 28.6763 49.3163 28.3965 49.0371C28.1167 48.758 27.7446 48.5901 27.3497 48.5651C25.7257 48.8656 24.2609 49.7306 23.2156 51.0066C21.8605 51.9915 20.4497 52.8979 18.9903 53.7211C17.7705 54.4685 16.3779 54.889 14.9474 54.9419C14.1278 54.927 13.3323 54.6624 12.6676 54.1836C12.2825 53.9099 11.9755 53.5408 11.777 53.1127C11.5784 52.6845 11.4951 52.2122 11.5353 51.7421C11.5089 51.2425 11.6168 50.7449 11.848 50.301C12.0792 49.857 12.4251 49.4829 12.85 49.2172C13.7146 48.6556 14.6677 48.2429 15.6694 47.9964L21.3081 46.8742C23.1212 46.5174 24.8862 45.9499 26.567 45.1833C26.9469 44.6829 26.9469 44.3114 26.567 44.0612C26.0225 43.7111 25.3659 43.5784 24.7279 43.6896ZM54.4189 55.1314C55.4375 57.1672 55.9584 59.4149 55.9387 61.6902C55.9387 64.8142 54.4341 66.4393 51.4247 66.5657C50.4443 66.5826 49.4784 66.3288 48.6335 65.8323C47.7887 65.3359 47.0977 64.6162 46.637 63.7526C45.6406 61.7175 45.2177 59.4504 45.4135 57.1939C45.4135 53.9435 46.979 52.192 50.11 51.9393C51.9794 52.0682 53.4157 53.1297 54.4189 55.1314ZM55.9387 43.3181C55.9993 45.1873 55.5077 47.0331 54.5252 48.6258C54.0763 49.3275 53.4484 49.8974 52.7059 50.2772C51.9634 50.6569 51.133 50.8328 50.3 50.7867C47.4172 50.6654 46.0392 49.1641 46.1659 46.2828C46.102 44.5044 46.6371 42.7558 47.6858 41.3163C48.1428 40.6888 48.7336 40.1702 49.4156 39.7979C50.0975 39.4255 50.8538 39.2087 51.6299 39.1629C54.4796 39.3146 55.9235 40.6946 55.9235 43.3181H55.9387Z" fill="#F39800"/>
<path d="M88.1059 8.81837C94.991 8.81837 100.057 10.3197 103.305 13.3223C106.552 16.3249 108.181 21.3799 108.191 28.4871V32.0508C108.191 39.5523 106.529 44.8018 103.206 47.7994C99.8825 50.797 94.4641 52.2957 86.9508 52.2957H81.882C75.7417 52.1744 71.3264 50.4861 68.6362 47.2307C65.946 43.9753 64.6617 39.3526 64.7833 33.3625V30.9286C64.6566 22.3049 66.2221 16.4311 69.4797 13.3071C72.7374 10.1832 78.057 8.68187 85.4385 8.80319L88.1059 8.81837ZM74.9513 41.9155C76.9525 43.7302 80.4609 44.5744 85.4765 44.448C90.8569 44.6957 94.801 43.7883 97.3088 41.7259C99.8167 39.6635 101.071 35.6195 101.071 29.5941C101.071 24.5998 99.88 21.0386 97.4988 18.9105C95.1177 16.7824 91.5485 15.7335 86.7912 15.7638C81.4007 15.7638 77.5782 16.9517 75.3237 19.3275C73.0692 21.7034 72.0053 25.8914 72.1319 31.8916C72.0053 36.7645 72.9451 40.1058 74.9513 41.9155ZM92.24 25.6967C93.6414 25.8277 95.008 26.2078 96.2753 26.8189C96.8348 27.02 97.3305 27.3662 97.7112 27.822C98.0919 28.2779 98.3439 28.8268 98.4412 29.4121C98.4729 29.9298 98.3202 30.442 98.0101 30.8582C97.7 31.2745 97.2525 31.568 96.7465 31.6868C96.2143 31.7344 95.7159 31.967 95.3381 32.344C94.9603 32.7209 94.7272 33.2183 94.6794 33.7492C94.6794 34.5074 95.2418 35.1899 96.3741 35.8116C97.2158 36.3933 97.8157 37.2614 98.0612 38.2531C97.6863 40.998 95.9333 42.4336 92.8024 42.56C90.9278 42.56 89.6132 41.966 88.8583 40.7781C88.0699 39.3992 87.74 37.8064 87.9159 36.2287C87.9481 35.712 87.7965 35.2007 87.4879 34.7846C87.1793 34.3685 86.7334 34.0743 86.2289 33.9539C85.9378 34.0023 85.6671 34.1342 85.4498 34.3334C85.2325 34.5327 85.0781 34.7908 85.0054 35.0761C84.8297 35.6231 84.735 36.1928 84.7242 36.767C84.5501 38.1836 84.028 39.5354 83.2043 40.7023C82.7763 41.2244 82.2277 41.6352 81.6056 41.8993C80.9835 42.1634 80.3065 42.2731 79.6326 42.2188C76.6232 42.2188 75.0577 40.7806 74.9361 37.9044C74.9489 37.2406 75.1433 36.5929 75.4985 36.0315C75.8592 35.5564 76.1746 35.0487 76.4408 34.515C76.1059 33.8185 75.5786 33.2319 74.9209 32.8242C74.3376 32.5942 73.86 32.1575 73.5795 31.5978C73.299 31.0381 73.2354 30.3948 73.401 29.7912C73.401 28.0422 74.09 26.9175 75.4681 26.4171C76.9164 25.9017 78.4445 25.645 79.9821 25.6588L92.24 25.6967ZM87.3536 17.4471C88.8284 17.4446 90.2921 17.7013 91.6777 18.2053C93.0532 18.7058 93.8055 19.4564 93.9575 20.48C93.7067 21.86 92.6124 22.7548 90.6745 23.1111C88.9133 23.473 87.1114 23.598 85.3169 23.4827C83.6672 23.6079 82.0086 23.4175 80.4305 22.9216C78.8042 22.4161 77.9911 21.6022 77.9911 20.48C78.1127 19.1102 78.9562 18.2685 80.5217 17.9551C81.9745 17.6549 83.4534 17.4975 84.937 17.485L87.3536 17.4471Z" fill="#F39800"/>
<path d="M104.938 68.651C105.57 70.1851 105.888 71.8299 105.873 73.4886V76.2865C105.698 80.3469 104.722 84.3331 103 88.0164C101.197 91.9896 98.9168 94.1607 96.1608 94.5297C95.3389 94.5228 94.5378 94.2707 93.8607 93.8059C93.1836 93.3411 92.6613 92.6847 92.3611 91.9213C91.6909 90.401 91.4039 88.7402 91.5251 87.0838V83.5428C91.5758 79.715 92.4328 75.9407 94.0405 72.4649C95.7175 68.6788 98.0505 66.5987 101.04 66.2246C103 66.3535 104.315 67.1573 104.938 68.651ZM119.499 61.0686C120.632 66.1105 121.196 71.2633 121.178 76.4305V83.6945C121.046 88.0417 120.36 91.4563 119.119 93.9382C117.877 96.4202 116.013 97.7219 113.525 97.8432H112.963C110.716 97.8115 108.545 97.0263 106.8 95.6139C105.998 94.9263 105.364 94.066 104.944 93.098C104.524 92.13 104.33 91.0795 104.376 90.0257C104.376 88.0391 104.882 86.6111 105.896 85.7417C106.637 84.8794 107.235 83.9041 107.666 82.8528C108.171 81.4464 108.456 79.9707 108.51 78.4778V75.6875C108.257 69.7277 108.003 64.9483 107.75 61.3491C107.75 55.8898 109.553 53.1576 113.161 53.1526H114.095C116.578 53.5519 118.379 56.2032 119.499 61.1065V61.0686ZM134.523 72.8896C135.776 76.9334 136.434 81.1375 136.476 85.3701V87.4174C136.354 91.7646 134.862 94.1228 132 94.4918H131.065C130.334 94.4001 129.631 94.1537 129.004 93.7693C128.376 93.3849 127.838 92.8712 127.425 92.2625C126.257 90.6685 125.403 88.8673 124.909 86.9549C124.263 84.7133 123.756 82.4343 123.39 80.1307C123.03 77.9795 122.905 75.7956 123.017 73.6174V72.5559C122.841 70.934 123.202 69.2991 124.043 67.9003C124.466 67.2802 125.031 66.7706 125.693 66.4143C126.354 66.058 127.091 65.8655 127.843 65.8531H128.603C131.255 66.2246 133.216 68.5903 134.523 72.9275V72.8896Z" fill="#F39800"/>
<path d="M154.183 55.7078C154.779 56.0734 155.276 56.5775 155.634 57.1771C155.991 57.7766 156.197 58.4537 156.235 59.1502C156.052 60.387 155.525 61.548 154.715 62.5017C154.514 62.7294 154.361 62.995 154.264 63.2828C154.168 63.5706 154.13 63.8747 154.153 64.1774C154.091 64.5214 154.151 64.876 154.321 65.1814C154.491 65.4867 154.762 65.724 155.087 65.8531C155.675 66.2926 156.162 66.8519 156.516 67.4939C156.869 68.1358 157.082 68.8456 157.139 69.576C157.044 70.3906 156.779 71.1763 156.362 71.8827C155.944 72.5891 155.383 73.2007 154.715 73.6781C154.363 74.1067 154.165 74.6406 154.153 75.1946C154.044 75.8993 154.175 76.6203 154.525 77.2418C155.347 78.5927 155.798 80.1356 155.832 81.7154C155.818 82.6621 155.565 83.59 155.098 84.414C154.63 85.2379 153.963 85.9317 153.157 86.4317C151.573 87.4587 149.727 88.0089 147.838 88.0164C145.725 87.8875 144.327 87.0534 143.643 85.499C142.949 83.8867 142.659 82.13 142.799 80.3809V76.658C142.876 76.2224 142.847 75.7747 142.715 75.3526C142.583 74.9304 142.351 74.546 142.039 74.2316C141.552 73.7513 141.18 73.1663 140.954 72.5211C140.727 71.8759 140.652 71.1876 140.732 70.5087C140.603 69.4224 140.798 68.3223 141.295 67.3468C141.761 66.652 142.137 65.9003 142.412 65.11C142.23 64.5218 141.975 63.9588 141.652 63.4343C141.175 62.4437 140.916 61.3632 140.892 60.2649C140.895 59.4065 141.141 58.5666 141.603 57.8421C142.064 57.1176 142.721 56.538 143.498 56.1704C145.393 55.1383 147.504 54.5644 149.662 54.4947C151.256 54.4393 152.831 54.8618 154.183 55.7078ZM151.577 43.8793C151.577 44.2509 152.01 44.4404 152.876 44.4404C153.974 44.7355 155.016 45.2066 155.961 45.8356C156.48 46.1701 156.911 46.6232 157.219 47.1572C157.527 47.6913 157.703 48.291 157.732 48.9065C157.605 51.7625 155.926 53.1298 152.694 53.0085C150.503 52.9922 148.315 53.1775 146.158 53.562C145.546 53.6884 144.922 53.7519 144.296 53.7516C141.804 53.7516 140.626 52.5687 140.747 50.2106C140.79 48.2386 141.555 46.3504 142.898 44.9029C143.517 44.1212 144.294 43.4773 145.177 43.0124C146.06 42.5476 147.031 42.2721 148.028 42.2036C148.702 42.2313 149.363 42.3939 149.973 42.6818C150.582 42.9696 151.128 43.3769 151.577 43.8793ZM163.143 46.6772C163.902 46.727 164.661 46.5816 165.347 46.255C166.034 45.9285 166.625 45.4316 167.064 44.812C167.931 43.4471 169.344 42.8254 171.358 42.9467C172.282 42.8878 173.208 43.0235 174.076 43.3449C174.944 43.6662 175.734 44.166 176.396 44.812C177.309 45.487 178.432 45.8174 179.565 45.7446C180.439 45.8659 181.556 46.0858 182.924 46.3967C183.567 46.5248 184.151 46.8569 184.589 47.3433C185.028 47.8298 185.297 48.4446 185.356 49.096C185.229 51.4516 183.986 52.6319 181.625 52.637C180.105 52.5081 179.345 53.0692 179.345 54.3127C179.216 54.8056 179.466 55.1164 180.105 55.2377C180.729 55.4344 181.286 55.8 181.714 56.2941C182.142 56.7881 182.424 57.391 182.529 58.0356C182.899 59.4957 183.088 60.9956 183.091 62.5017C183.096 63.6846 183.032 64.8669 182.901 66.0426C182.648 67.2027 182.587 68.3962 182.719 69.576C182.592 69.9811 182.597 70.4161 182.733 70.8182C182.87 71.2203 183.131 71.5686 183.479 71.8128C184.611 72.9618 185.276 74.4877 185.348 76.0969C185.284 77.3146 184.789 78.47 183.95 79.3573C183.545 79.7568 183.062 80.0697 182.532 80.277C182.001 80.4842 181.434 80.5815 180.865 80.5629C179.866 80.5704 178.868 80.5095 177.878 80.3809C176.819 80.3857 175.76 80.3224 174.709 80.1913C172.718 80.1913 171.282 80.8738 170.416 82.2386C169.555 83.5821 168.482 84.7779 167.239 85.7796C165.873 86.738 164.25 87.2662 162.581 87.2961C159.465 87.2961 157.846 86.1764 157.725 83.937C157.693 82.9761 157.886 82.0209 158.287 81.1467C158.396 81.0513 158.486 80.9352 158.549 80.805C158.613 80.6748 158.651 80.5332 158.659 80.3885C158.534 79.5117 158.212 78.6745 157.717 77.9394C157.398 77.5201 157.182 77.0327 157.084 76.5155C156.986 75.9984 157.011 75.4657 157.155 74.9595C157.037 73.9324 157.233 72.8936 157.717 71.9797C158.111 71.5246 158.399 70.988 158.561 70.4086C158.723 69.8291 158.754 69.221 158.652 68.6282V62.4789C158.738 61.0655 159.221 59.7049 160.046 58.553C160.871 57.401 162.005 56.5044 163.318 55.9657C163.777 55.87 164.198 55.6425 164.528 55.311C164.859 54.9795 165.086 54.5587 165.18 54.1004C165.058 53.4786 164.556 53.236 163.66 53.3421C161.045 53.3421 159.678 52.22 159.556 49.9907C159.708 47.7817 160.904 46.6772 163.143 46.6772ZM168.554 65.2996C169.421 65.4216 170.301 65.4216 171.168 65.2996H173.22C174.344 65.5422 175.028 65.0494 175.279 63.7831C175.198 63.4613 175.02 63.1721 174.768 62.9551C174.517 62.738 174.204 62.6035 173.873 62.5699C173.048 62.386 172.204 62.2945 171.358 62.2969C170.386 62.2947 169.417 62.3861 168.462 62.5699C167.528 62.7594 167.064 63.222 167.064 63.9727C167.064 64.7233 167.596 65.1707 168.554 65.2996ZM169.678 70.1371H173.22C174.466 70.266 175.15 69.7656 175.279 68.6207C175.15 67.6274 174.154 67.1042 172.293 67.1042H169.876C168.014 67.1042 167.079 67.6046 167.079 68.6207C167.186 69.6443 168.06 70.1371 169.678 70.1371ZM168.554 60.735C169.225 60.9179 169.928 60.9489 170.613 60.826H172.847C174.215 60.9549 175.028 60.5151 175.279 59.5218C175.194 59.1934 175.016 58.8963 174.767 58.6652C174.518 58.4342 174.208 58.2789 173.873 58.2176C173.058 57.9713 172.21 57.8461 171.358 57.8461C170.448 57.8355 169.54 57.9297 168.652 58.1266C167.839 58.3162 167.437 58.718 167.437 59.3398C167.414 59.6697 167.516 59.9962 167.723 60.2546C167.929 60.513 168.226 60.6844 168.554 60.735ZM175.279 73.3066C175.289 73.0497 175.239 72.7941 175.133 72.5599C175.027 72.3256 174.868 72.1192 174.668 71.9567C174.468 71.7943 174.234 71.6803 173.982 71.6238C173.731 71.5672 173.47 71.5696 173.22 71.6308H169.678C169.154 71.5586 168.623 71.6933 168.197 72.0063C167.771 72.3193 167.485 72.7859 167.399 73.3066C167.399 73.7994 167.832 74.1709 168.706 74.4212C169.489 74.6653 170.318 74.7275 171.13 74.6031C173.648 74.7346 175.031 74.3024 175.279 73.3066ZM182.119 82.1476C182.714 82.2519 183.254 82.5607 183.646 83.0204C184.037 83.4801 184.255 84.0618 184.262 84.665C183.887 86.7729 182.456 87.7662 179.968 87.6448H176.609C174.002 87.6448 172.566 86.7122 172.323 84.8469C172.277 84.2499 172.449 83.6564 172.808 83.1766C173.168 82.6969 173.689 82.3636 174.276 82.2386C175.511 81.8801 176.79 81.6938 178.076 81.6851C179.427 81.6819 180.774 81.8371 182.088 82.1476H182.119Z" fill="#F39800"/>
</g>
<defs>
<clipPath id="clip0_3224_15847">
<rect width="197" height="104" fill="white" transform="translate(0.5)"/>
</clipPath>
</defs>
</svg>
