<svg width="27" height="47" viewBox="0 0 27 47" fill="none" xmlns="http://www.w3.org/2000/svg">
<path d="M8.5 46.6111C8.5 46.6111 11.492 46.551 12.4164 46.6016C13.3409 46.6521 15.6188 46.1988 16 46C16.3812 45.8012 17.446 45.682 17.5 45.5C17.554 45.318 18.6563 44.81 17.5 44.5C16.3437 44.19 16.2317 43.9596 16.022 43.7608C15.8124 43.5619 13.9667 43.2048 12.1401 43.2418C6.9334 43.3497 3.61981 42.3906 2.61983 42.8906C1.4709 43.2419 0.000181198 43.8906 0.983396 45.7894C1.50018 46.8906 7.00265 46.7863 8.5 46.6111Z" fill="black" fill-opacity="0.3"/>
<path d="M25.8609 27.6865C25.8465 27.743 25.8279 27.7982 25.8052 27.8519C25.5994 28.3515 24.9613 29.2358 24.3026 29.9188C23.8254 30.4131 23.51 30.7906 23.2314 31.124C22.8859 31.558 22.5051 31.9626 22.0927 32.3336C21.3046 33.0355 20.5263 32.9303 19.8685 32.7353C19.6247 32.6623 19.3987 32.5398 19.2044 32.3754C19.0102 32.2111 18.852 32.0084 18.7398 31.78C18.6409 31.5607 18.3803 30.4194 18.1466 29.359C18.1331 29.2952 18.1188 29.2304 18.1053 29.1666C18.0109 28.7065 17.9471 28.4171 17.9453 28.4099C17.9328 28.3517 17.8976 28.3008 17.8476 28.2684C17.7975 28.236 17.7367 28.2249 17.6784 28.2374C17.6201 28.2499 17.5692 28.2851 17.5369 28.3351C17.5045 28.3852 17.4933 28.446 17.5059 28.5043C17.5247 28.5942 17.584 28.8782 17.664 29.2511C17.8123 29.9701 18.0397 31.1258 18.223 32.2689C18.2985 32.7371 18.3821 33.2305 18.463 33.7068C18.7083 35.1582 18.9626 36.6581 19.0291 37.7284C19.0435 37.9537 19.0471 38.167 19.0399 38.3683C19.0058 39.3658 18.7137 40.0623 18.1826 40.3993C18.1277 40.4343 18.0711 40.4676 18.0118 40.4999C17.9525 40.5323 17.8689 40.5763 17.7943 40.6123C17.7197 40.6482 17.6496 40.6797 17.5769 40.7102C17.2141 40.8624 16.8411 40.9891 16.4607 41.0895C16.4083 41.1028 16.3624 41.1343 16.3312 41.1785C16.3001 41.2227 16.2858 41.2765 16.2908 41.3303C16.2908 41.3402 16.3915 42.3189 16.3915 43.1052C16.3915 43.1295 16.3915 43.1538 16.3915 43.178C16.3915 43.2886 16.396 43.4063 16.4005 43.5294C16.4167 43.9788 16.4355 44.4973 16.3205 44.8649C16.2991 44.9392 16.2689 45.0106 16.2306 45.0778C16.1838 45.1581 16.1177 45.2255 16.0383 45.2738C16.0077 45.2912 15.9755 45.3056 15.9421 45.3169C15.8055 45.3627 15.6591 45.4068 15.5072 45.4418C14.7882 45.6215 13.9426 45.6827 13.3405 45.4149C12.6628 45.1129 12.6305 44.7921 12.6305 43.8224V41.4508C12.6306 41.4065 12.6176 41.3631 12.5931 41.3262C12.5687 41.2892 12.5338 41.2604 12.493 41.2432C12.4858 41.2432 11.7741 40.9376 11.4146 40.455C11.0551 39.9724 10.7343 39.222 11.029 37.2072C11.0767 36.8845 11.1189 36.5781 11.1674 36.2941C11.4667 36.3256 11.7785 36.366 12.1066 36.4082C12.3483 36.4397 12.5919 36.472 12.8318 36.4981L12.8695 36.5026C13.3182 36.5609 13.7697 36.5936 14.2221 36.6006C14.347 36.6006 14.4683 36.6006 14.5815 36.588C15.8478 36.4981 17.1113 35.9409 17.4771 35.3244C17.5616 35.2202 17.9498 34.7016 17.7898 34.1723C17.6757 33.7958 17.3243 33.5226 16.7456 33.3635C15.1962 32.933 13.4016 32.6607 12.7015 32.5628L12.6548 32.5565C12.3654 32.5169 12.0994 32.4837 11.8621 32.4576L11.8055 32.4513C11.8774 31.9777 11.9295 31.5392 11.9601 31.079C11.9825 30.7474 12.0014 30.2792 12.0176 29.8209C12.1897 29.2683 12.3287 28.7059 12.4337 28.1367C12.435 28.1248 12.435 28.1127 12.4337 28.1008C12.4392 28.0412 12.4208 27.9819 12.3825 27.9359C12.3442 27.8899 12.2893 27.8609 12.2297 27.8555C12.1701 27.85 12.1108 27.8684 12.0648 27.9067C12.0188 27.9449 11.9898 27.9999 11.9843 28.0595C11.9843 28.0595 11.9843 28.0774 11.9763 28.1062C11.8723 28.6592 11.7373 29.2058 11.5718 29.7436C11.4614 30.1004 11.3263 30.449 11.1674 30.787C10.8853 31.3729 10.6282 32.0298 10.8493 32.4639C10.8962 32.5509 10.9607 32.6271 11.0387 32.6877C11.1167 32.7484 11.2064 32.7921 11.3022 32.8162C11.3493 32.831 11.3974 32.8427 11.446 32.8512C11.5278 32.8656 11.6258 32.8791 11.7444 32.8935L11.8217 32.9025C12.0679 32.9285 12.3465 32.9636 12.6485 33.0058C13.3396 33.102 15.11 33.3707 16.6341 33.794C16.9226 33.8739 17.2839 34.0267 17.3675 34.2999C17.4187 34.4671 17.3594 34.6594 17.2839 34.8095C17.2414 34.8945 17.1899 34.9746 17.1302 35.0485C17.12 35.0597 17.1113 35.072 17.1041 35.0854C16.8642 35.5122 15.7561 36.0497 14.5564 36.1395C14.0459 36.1773 13.398 36.1117 12.8902 36.0497C12.6521 36.0209 12.4094 35.9895 12.1713 35.9598C11.8639 35.9194 11.5422 35.878 11.2456 35.8448L11.1063 35.8304C10.9976 35.8196 10.8951 35.8097 10.7972 35.8025C10.586 35.7863 10.3991 35.7783 10.2319 35.7783C9.03396 35.7783 8.58822 35.5985 8.04271 35.1932C7.74715 34.9623 7.51215 34.663 7.35794 34.3211C7.20373 33.9792 7.13495 33.6049 7.15751 33.2305C7.16941 32.9437 7.22237 32.6601 7.31478 32.3884C7.81085 30.8876 8.72751 29.4371 9.61451 28.0352C10.0087 27.4022 10.3623 26.7449 10.6732 26.0671C13.1176 25.9853 15.4497 25.2322 17.7197 24.3281C17.9444 24.8396 18.212 25.3311 18.5196 25.7975C18.8539 26.2926 19.1576 26.7905 19.4254 27.23C19.6052 27.5283 19.7849 27.8105 19.9314 28.0388C20.1947 28.4405 20.4814 28.6481 20.8076 28.6751C21.425 28.7227 21.9993 28.0999 22.605 27.4385C22.6949 27.3441 22.7784 27.2345 22.8701 27.1176C23.2691 26.6126 23.7688 25.9835 24.7627 25.9835C24.9973 25.9835 25.2858 26.1632 25.514 26.4517C25.8214 26.8355 25.9508 27.3073 25.8609 27.6865Z" fill="white"/>
<path d="M16.7041 45.129L16.7225 45.0831C16.716 45.0987 16.7105 45.1143 16.705 45.129H16.7041Z" fill="#B3B3B3"/>
<path d="M17.6107 41.1847C17.7159 42.8185 17.7689 44.4433 17.6871 44.6644C17.6197 44.7938 17.307 44.916 16.7768 44.9052C16.8873 44.4703 16.8666 43.9508 16.8531 43.5159C16.8478 43.3694 16.8433 43.2301 16.8433 43.1061C16.8433 42.4995 16.7884 41.8048 16.7588 41.4759C17.0476 41.3935 17.3319 41.2963 17.6107 41.1847Z" fill="#B3B3B3"/>
<path d="M18.0852 44.873C17.901 45.2261 17.4076 45.3547 16.8513 45.3547C16.7669 45.3547 16.6815 45.3547 16.5952 45.3457C16.639 45.2763 16.676 45.2028 16.7058 45.1264C16.7111 45.112 16.7165 45.0967 16.7228 45.0815V45.0734C16.7354 45.0383 16.7471 45.0024 16.757 44.9655L16.7732 44.9053C17.3034 44.9161 17.6161 44.7939 17.6835 44.6645C17.7653 44.4434 17.7123 42.8186 17.6071 41.1848C17.6691 41.1605 17.7311 41.1344 17.7941 41.1066L17.8255 41.0931C17.8992 41.0607 17.9729 41.0257 18.0457 40.9897C18.1383 42.3144 18.2587 44.5404 18.0852 44.873Z" fill="black"/>
<path d="M25.8722 26.1758C25.5559 25.7759 25.1434 25.5368 24.7686 25.5368C23.5536 25.5368 22.9335 26.3223 22.5219 26.8426C22.4321 26.9522 22.3539 27.0556 22.2784 27.1374C21.794 27.6649 21.2422 28.2589 20.8459 28.2293C20.6662 28.2149 20.4864 28.0729 20.3067 27.7952C20.1584 27.5705 19.9886 27.291 19.8079 26.9963C19.5383 26.5523 19.2301 26.05 18.8904 25.5458C18.6011 25.1057 18.3492 24.6422 18.1373 24.16C18.0681 24.1888 17.998 24.2167 17.9279 24.2436L17.8047 24.293L17.7149 24.3281C17.7886 24.4934 17.8694 24.6624 17.9557 24.8332C18.1215 25.1661 18.3082 25.4881 18.5147 25.7974C18.849 26.2926 19.1528 26.7905 19.4206 27.2299C19.6003 27.5283 19.7801 27.8105 19.9265 28.0388C20.1899 28.4405 20.4765 28.6481 20.8028 28.675C21.4202 28.7227 21.9944 28.0999 22.6001 27.4384C22.69 27.3441 22.7736 27.2344 22.8652 27.1176C23.2643 26.6125 23.7639 25.9835 24.7579 25.9835C24.9924 25.9835 25.2809 26.1632 25.5092 26.4517C25.8102 26.8327 25.9414 27.3045 25.8516 27.6838C25.8372 27.7402 25.8186 27.7955 25.7958 27.8491C25.5901 28.3488 24.952 29.2331 24.2932 29.9161C23.816 30.4104 23.5006 30.7878 23.222 31.1212C22.8766 31.5552 22.4957 31.9598 22.0834 32.3309C21.2952 33.0327 20.517 32.9276 19.8591 32.7326C19.6154 32.6596 19.3893 32.5371 19.1951 32.3727C19.0009 32.2083 18.8427 32.0056 18.7304 31.7773C18.6315 31.558 18.3709 30.4167 18.1373 29.3562C18.1238 29.2924 18.1094 29.2277 18.0959 29.1639C18.0016 28.7038 17.9378 28.4144 17.936 28.4072C17.9234 28.3489 17.8883 28.298 17.8382 28.2657C17.7882 28.2333 17.7273 28.2222 17.669 28.2347C17.6108 28.2472 17.5599 28.2823 17.5275 28.3324C17.4951 28.3824 17.484 28.4433 17.4965 28.5016C17.5154 28.5914 17.5747 28.8754 17.6547 29.2484C17.8029 29.9673 18.0303 31.123 18.2136 32.2662C18.2891 32.7344 18.3727 33.2278 18.4536 33.7041C18.6989 35.1554 18.9533 36.6553 19.0198 37.7257C19.0341 37.9509 19.0377 38.1642 19.0306 38.3655C18.9964 39.3631 18.7043 40.0596 18.1732 40.3966C18.1184 40.4316 18.0618 40.4649 18.0025 40.4972C17.9431 40.5296 17.8596 40.5736 17.785 40.6095C17.7104 40.6455 17.6403 40.677 17.5675 40.7075C17.2047 40.8597 16.8317 40.9864 16.4513 41.0868C16.3989 41.1 16.353 41.1316 16.3219 41.1758C16.2907 41.2199 16.2764 41.2738 16.2815 41.3276C16.2815 41.3375 16.3821 42.3162 16.3821 43.1025C16.3821 43.1268 16.3821 43.151 16.3821 43.1753C16.3821 43.2858 16.3866 43.4036 16.3911 43.5267C16.4073 43.976 16.4262 44.4946 16.3111 44.8621C16.2897 44.9364 16.2595 45.0079 16.2213 45.0751C16.1745 45.1554 16.1084 45.2228 16.0289 45.271C15.9983 45.2885 15.9662 45.3029 15.9328 45.3142C15.7962 45.36 15.6497 45.404 15.4978 45.4391C14.7789 45.6188 13.9332 45.6799 13.3311 45.4121C12.6535 45.1102 12.6211 44.7893 12.6211 43.8197V41.4507C12.6212 41.4064 12.6082 41.3631 12.5838 41.3261C12.5593 41.2892 12.5245 41.2603 12.4836 41.2431C12.4764 41.2431 11.7647 40.9376 11.4052 40.455C11.0457 39.9724 10.7249 39.222 11.0197 37.2071C11.0673 36.8845 11.1095 36.5781 11.1581 36.2941C11.4573 36.3255 11.7692 36.366 12.0972 36.4082C12.3389 36.4397 12.5825 36.472 12.8224 36.4981L12.8602 36.5026C13.3088 36.5609 13.7604 36.5936 14.2127 36.6005C14.3376 36.6005 14.4589 36.6005 14.5722 36.5879C15.8384 36.4981 17.102 35.9409 17.4677 35.3244C17.5522 35.2201 17.9405 34.7016 17.7805 34.1723C17.6664 33.7957 17.315 33.5225 16.7362 33.3635C15.1869 32.933 13.3922 32.6607 12.6921 32.5627L12.6454 32.5564C12.356 32.5169 12.09 32.4836 11.8528 32.4576L11.7961 32.4513C11.868 31.9777 11.9202 31.5391 11.9507 31.079C11.9732 30.7474 11.9921 30.2792 12.0082 29.8208C12.1804 29.2683 12.3193 28.7059 12.4243 28.1367C12.4256 28.1248 12.4256 28.1127 12.4243 28.1008C12.4298 28.0412 12.4114 27.9819 12.3731 27.9358C12.3349 27.8898 12.2799 27.8609 12.2203 27.8554C12.1607 27.8499 12.1014 27.8684 12.0554 27.9066C12.0094 27.9449 11.9805 27.9998 11.975 28.0594C11.975 28.0594 11.975 28.0774 11.9669 28.1062C11.8659 28.6589 11.7339 29.2056 11.5715 29.7436C11.4611 30.1003 11.3259 30.449 11.1671 30.7869C10.8849 31.3729 10.6279 32.0298 10.8489 32.4639C10.8958 32.5508 10.9603 32.627 11.0383 32.6877C11.1163 32.7483 11.2061 32.7921 11.3019 32.8162C11.349 32.831 11.397 32.8427 11.4457 32.8512C11.5274 32.8656 11.6254 32.8791 11.744 32.8934L11.8213 32.9024C12.0675 32.9285 12.3461 32.9635 12.6481 33.0058C13.3392 33.1019 15.1096 33.3707 16.6338 33.7939C16.9222 33.8739 17.2835 34.0267 17.3671 34.2999C17.4183 34.467 17.359 34.6594 17.2835 34.8094C17.241 34.8944 17.1895 34.9746 17.1298 35.0485C17.1196 35.0596 17.1109 35.072 17.1038 35.0853C16.8638 35.5122 15.7557 36.0496 14.556 36.1395C14.0456 36.1772 13.3976 36.1116 12.8898 36.0496C12.6517 36.0209 12.409 35.9894 12.1709 35.9598C11.8635 35.9193 11.5418 35.878 11.2453 35.8447L11.106 35.8303C10.9972 35.8196 10.8948 35.8097 10.7968 35.8025C10.5856 35.7863 10.3987 35.7782 10.2315 35.7782C9.03359 35.7782 8.58784 35.5985 8.04234 35.1932C7.74678 34.9623 7.51177 34.663 7.35757 34.321C7.20336 33.9791 7.13458 33.6049 7.15714 33.2305C7.16903 32.9437 7.22199 32.6601 7.31441 32.3884C7.81048 30.8876 8.72714 29.4371 9.61414 28.0352C9.64739 27.9821 9.68064 27.93 9.71209 27.877C10.0668 27.2926 10.3875 26.6883 10.6728 26.067L10.5038 26.0715H10.4203H10.2306H10.1713C9.88947 26.6641 9.57319 27.2396 9.22411 27.7952C8.32543 29.2205 7.39169 30.6944 6.87764 32.2491C6.3591 33.8191 7.03132 35.0107 7.76554 35.5554C8.46113 36.0712 9.03539 36.2285 10.2217 36.2285C10.3681 36.2285 10.5317 36.2348 10.7168 36.2491C10.6731 36.5283 10.6282 36.8252 10.582 37.1397C10.2621 39.3172 10.6404 40.1719 11.052 40.7219C11.3836 41.1649 11.9229 41.466 12.1754 41.5909V43.825C12.1754 44.8558 12.2185 45.4121 13.1523 45.8273C13.5241 45.9821 13.9242 46.0574 14.3268 46.0484C14.9227 46.0369 15.5133 45.9348 16.0784 45.7455C16.291 45.6769 16.4725 45.5353 16.5906 45.3456C16.6177 45.3038 16.642 45.2603 16.6634 45.2153C16.6769 45.1865 16.6895 45.1578 16.7012 45.1254C16.7303 45.0536 16.7541 44.9797 16.7722 44.9044C16.8827 44.4694 16.862 43.95 16.8485 43.515C16.8432 43.3685 16.8387 43.2292 16.8387 43.1052C16.8387 42.4986 16.7838 41.8039 16.7542 41.475C17.043 41.3926 17.3273 41.2954 17.6061 41.1838C17.6681 41.1595 17.7302 41.1335 17.7931 41.1056L17.8245 41.0912C17.8982 41.0589 17.9719 41.0247 18.0447 40.9888C18.1742 40.9255 18.3002 40.8553 18.4221 40.7785C19.2058 40.2797 19.5707 39.2148 19.4763 37.6987C19.4071 36.605 19.151 35.0925 18.9038 33.6313C18.8427 33.2718 18.7798 32.9015 18.7241 32.5403C19.0034 32.8344 19.3542 33.0512 19.7423 33.1693C20.4163 33.3689 21.4237 33.5351 22.3934 32.6724C22.8219 32.286 23.218 31.8652 23.5779 31.4142C23.8475 31.0871 24.1611 30.7159 24.6276 30.2333C25.3402 29.4946 26.1616 28.3794 26.3 27.7925C26.4222 27.2722 26.2623 26.6692 25.8722 26.1758ZM11.3693 32.3668C11.3187 32.3465 11.2772 32.3085 11.2524 32.2599C11.1239 32.0091 11.3648 31.4322 11.5104 31.1176C11.4816 31.5355 11.434 31.9328 11.3693 32.3668Z" fill="black"/>
<path d="M24.7824 15.7465C24.6026 13.4719 23.9421 11.0904 22.9625 9.22021C21.7044 6.58347 19.1548 4.66748 15.9528 3.9647C12.376 3.17925 8.59168 3.99256 6.07806 6.0874C2.64509 8.94791 1.5433 13.9841 1.65564 17.7388C1.67271 22.1424 3.82686 24.9481 7.89071 25.8531C8.64345 25.9993 9.40835 26.0739 10.1752 26.0759H10.2345H10.4241H10.5077L10.6766 26.0714C13.1211 25.9897 15.4531 25.2366 17.7232 24.3325L17.8131 24.2974L17.9362 24.248C18.0063 24.221 18.0764 24.1932 18.1456 24.1644C18.745 23.92 19.3408 23.6675 19.934 23.4167L20.8327 23.0375C23.7183 21.8234 25.1589 19.1642 24.7824 15.7465ZM21.9965 21.8683C21.5823 22.1705 21.1337 22.4224 20.6601 22.6187C20.3608 22.7436 20.0607 22.8712 19.7614 22.9988C19.1683 23.2505 18.5716 23.503 17.9712 23.7465L17.7619 23.831C17.6927 23.8598 17.6226 23.8867 17.5525 23.9146C15.3956 24.7737 13.1831 25.4909 10.8869 25.6077C10.8042 25.6077 10.7207 25.6158 10.6371 25.6185L10.389 25.6239H10.2345C9.48056 25.6251 8.72825 25.5544 7.98777 25.4127C4.15937 24.5599 2.12745 21.9078 2.11127 17.7299C2.04477 15.5056 2.41143 12.8248 3.4548 10.4505C4.12612 8.92275 5.07693 7.51541 6.37193 6.43609C8.1693 4.93618 10.6569 4.12287 13.2352 4.12287C14.1187 4.12305 14.9997 4.21826 15.8629 4.40686C18.9715 5.08986 21.3503 6.86925 22.5653 9.42421C23.5179 11.2476 24.1641 13.5653 24.333 15.7887C24.6242 18.4146 23.7812 20.558 21.9965 21.8683Z" fill="black"/>
<path d="M21.9958 21.8685C21.5816 22.1707 21.133 22.4226 20.6594 22.6189C20.3602 22.7438 20.06 22.8714 19.7607 22.999C19.1676 23.2506 18.5709 23.5032 17.9706 23.7467L17.7612 23.8312C17.692 23.8599 17.6219 23.8869 17.5518 23.9148C15.3949 24.7739 13.1824 25.4911 10.8862 25.6079C10.8035 25.6079 10.72 25.616 10.6364 25.6187L10.3884 25.6241H10.2338C9.47987 25.6253 8.72756 25.5546 7.98707 25.4129C4.15868 24.56 2.12675 21.908 2.11058 17.73C2.04408 15.5058 2.41074 12.825 3.45411 10.4507C4.12543 8.92292 5.07624 7.51558 6.37124 6.43626C8.16861 4.93636 10.6562 4.12305 13.2345 4.12305C14.1181 4.12322 14.999 4.21843 15.8622 4.40703C18.9708 5.09003 21.3496 6.86943 22.5646 9.42439C23.5172 11.2478 24.1634 13.5655 24.3323 15.7889C24.6235 18.4148 23.7805 20.5582 21.9958 21.8685Z" fill="white"/>
<path d="M5.78613 0.840942C5.78613 0.840942 6.04945 2.85849 6.92656 4.26223C7.80368 5.66598 8.85604 5.92839 9.46984 5.92839C10.0836 5.92839 11.225 5.83853 11.5755 6.19171C11.2346 5.69612 11.0236 5.12294 10.9617 4.52465C10.8718 3.56036 10.6103 3.20898 9.99647 2.77042C9.38267 2.33186 7.89085 2.41993 7.27705 2.06855C6.66325 1.71716 5.78613 0.840942 5.78613 0.840942Z" fill="#6DBC31"/>
<path d="M11.7557 6.05701C11.4406 5.59563 11.2448 5.0633 11.1859 4.50768C11.0898 3.45173 10.7681 3.04822 10.1273 2.59079C9.75434 2.32118 9.14503 2.23131 8.55549 2.15043C8.10615 2.08573 7.63704 2.01833 7.3872 1.88083C6.80665 1.54921 5.94931 0.69726 5.94392 0.689172C5.91076 0.655887 5.86801 0.63383 5.82167 0.626105C5.77534 0.61838 5.72774 0.625376 5.68558 0.646107C5.64343 0.666838 5.60883 0.700262 5.58666 0.741678C5.56449 0.783095 5.55585 0.830419 5.56197 0.876997C5.57276 0.961473 5.84146 2.95925 6.73476 4.38816C7.69815 5.9303 8.86104 6.16036 9.46855 6.16036C9.56561 6.16036 9.67435 6.16036 9.79118 6.15587C10.3133 6.14598 11.1859 6.12891 11.4151 6.35807C11.4575 6.39993 11.5146 6.42349 11.5742 6.42368C11.6159 6.42368 11.6568 6.41206 11.6923 6.39012C11.7278 6.36819 11.7565 6.3368 11.7751 6.29948C11.7938 6.26216 11.8017 6.22038 11.7979 6.17883C11.7942 6.13727 11.7789 6.09758 11.7539 6.0642L11.7557 6.05701ZM7.16792 2.26097C7.48965 2.44071 7.97674 2.5153 8.49348 2.58989C9.03269 2.66718 9.58358 2.74716 9.86847 2.94936C10.4418 3.35916 10.6602 3.66112 10.7402 4.54093C10.7812 4.95791 10.8921 5.36501 11.0682 5.74517C10.9417 5.72443 10.8142 5.71003 10.6863 5.70203C10.5344 5.69215 10.3771 5.68945 10.2217 5.68945C10.0662 5.68945 9.92599 5.68945 9.78579 5.69484C9.67256 5.69484 9.56651 5.69934 9.47215 5.69934C8.9581 5.69934 7.96775 5.49623 7.11939 4.13832C6.68982 3.45173 6.41033 2.60247 6.23958 1.93295C6.19645 1.764 6.1605 1.60583 6.13084 1.46563C6.45041 1.76317 6.79769 2.0295 7.16792 2.26097Z" fill="black"/>
<path d="M20.4235 6.79932C11.3468 3.56406 4.60664 15.9659 10.8741 21.2906C14.0473 23.9867 23.2274 21.8792 24.5341 18.0868C24.9798 16.0225 23.6632 7.95413 20.4235 6.79932Z" fill="#FFEB99"/>
<path d="M15.137 22.7337C13.4564 22.7337 11.8235 22.3913 10.7334 21.4621C9.24162 20.194 8.37708 18.4596 8.23329 16.4474C8.10298 14.6222 8.58558 12.6586 9.59031 10.916C10.6561 9.07014 12.2324 7.60528 14.0298 6.79107C16.0599 5.87172 18.2986 5.80252 20.5003 6.58797C22.4774 7.29344 23.5927 10.3076 24.078 12.0412C24.7826 14.5575 24.9767 17.1134 24.752 18.1343C24.752 18.1424 24.752 18.1513 24.7448 18.1594C24.158 19.8669 22.0263 21.3731 19.0418 22.1918C17.7693 22.5416 16.4566 22.7238 15.137 22.7337ZM17.425 6.48462C13.9696 6.48462 11.3409 8.77716 9.97674 11.1434C8.2243 14.1801 7.86753 18.4434 11.021 21.1188C12.5146 22.3877 15.6942 22.6466 18.9231 21.7578C21.7145 20.9921 23.776 19.5623 24.3152 18.0246C24.5219 17.0487 24.3278 14.597 23.6457 12.1616C23.1829 10.5116 22.1404 7.64842 20.3493 7.00945C19.4119 6.66794 18.4227 6.4904 17.425 6.48462Z" fill="black"/>
<path d="M17.6062 15.077C17.5226 16.0323 17.3114 16.2723 16.6347 16.408C16.1449 16.5068 15.6525 16.2282 15.3685 15.7636C14.9591 15.0855 14.7417 14.309 14.7394 13.5169C14.7214 12.6946 15.0908 12.2992 15.8996 12.2201C16.0579 12.2023 16.2179 12.2299 16.3611 12.2996C16.5043 12.3693 16.6248 12.4782 16.7084 12.6137C17.2341 13.4369 17.5765 14.3338 17.6062 15.077Z" fill="#4C4519"/>
<path d="M20.8286 11.3952C20.859 11.2229 20.9375 11.0626 21.055 10.9328C21.1725 10.8031 21.3242 10.7092 21.4927 10.6619C21.6708 10.5996 21.8642 10.5957 22.0446 10.651C22.2251 10.7063 22.3831 10.8178 22.4957 10.9693C22.8641 11.4644 23.0349 12.0477 23.1724 12.6372C23.2306 12.9005 23.2732 13.167 23.3 13.4353C23.3431 13.8522 23.0807 14.3079 22.7365 14.4427C22.5328 14.5303 22.3043 14.5414 22.0931 14.4739C21.8818 14.4063 21.7021 14.2647 21.5871 14.0751C21.0632 13.2636 20.9068 12.3398 20.8286 11.3952Z" fill="#4C4519"/>
<path d="M14.2944 19.0981C15.1304 18.9486 15.7437 18.4673 15.6642 18.0232C15.5848 17.5791 14.8428 17.3403 14.0068 17.4898C13.1708 17.6393 12.5576 18.1205 12.637 18.5646C12.7164 19.0088 13.4585 19.2476 14.2944 19.0981Z" fill="#FFA4A4"/>
<path d="M24.3328 16.3364C25.0997 16.1398 25.6305 15.6261 25.5184 15.1891C25.4064 14.752 24.6939 14.5571 23.9271 14.7538C23.1602 14.9504 22.6294 15.464 22.7415 15.9011C22.8535 16.3381 23.566 16.533 24.3328 16.3364Z" fill="#FFA4A4"/>
</svg>
