<svg xmlns="http://www.w3.org/2000/svg" viewBox="0 0 199.06 294.21"><defs><style>.cls-1,.cls-2,.cls-5{fill:#fff;}.cls-1,.cls-2,.cls-3,.cls-4,.cls-5{stroke:#000;}.cls-1,.cls-3,.cls-5{stroke-linecap:round;stroke-linejoin:round;}.cls-1{stroke-width:3.46px;}.cls-2,.cls-4{stroke-miterlimit:10;}.cls-2,.cls-3,.cls-5{stroke-width:3.2px;}.cls-3{fill:#69bd2e;}.cls-4{fill:#ffeb99;stroke-width:2.13px;}.cls-6{fill:#4c4519;}.cls-7{fill:#ffa4a4;}.cls-8{fill:#eace54;}</style></defs><g id="图层_2" data-name="图层 2"><g id="图层_1-2" data-name="图层 1"><path class="cls-1" d="M95.25,186.79s-16,32.36-17.85,45.74c0,0-5.33,5,0,13.39s14.39,0,14.39,0l9.06-43.58Z"/><path class="cls-2" d="M97.12,181.71s-4,47.77-3.55,67.86c.35,14.56,3.37,27.89,6.17,34.72,1.29,3.13,3.2,6,6.49,6.72a32.23,32.23,0,0,0,12.26.71,6.78,6.78,0,0,0,5.5-7.31c-.67-7.56-1.56-21.38.48-24.18,1.19-1.63,3.6-2,6-1.8a7.31,7.31,0,0,1,6.77,7.32V281a14.77,14.77,0,0,0,2.31,8.11c1.56,2.38,4.55,3.23,6.66,3.33,6.83.34,10.56.53,14-4.35,6-8.58,4.08-40,4.08-40l-9.59-68Z"/><path class="cls-2" d="M103.83,52.88Q78.71,57.41,63.38,73.44c-8,8.39-30.41,46.13-5.34,93,15.82,29.58,114.64,25,130.7-1.51s4.54-78.57-17.81-98.12C156.1,53.83,129.59,48.24,103.83,52.88Z"/><path class="cls-3" d="M118.32,1.6s-6.49,18.47-10.75,27,3.2,21,10.3,30.19c0,0-.42-11,11.37-22S118.32,1.6,118.32,1.6Z"/><path class="cls-4" d="M108.19,69.46C94.21,72,83,77.67,74.44,86.62c-6.69,7-25.37,38.48-4.46,77.58C83.19,188.88,165.63,185.09,179,163s3.79-65.55-14.86-81.87C151.8,70.25,129.67,65.59,108.19,69.46Z"/><path class="cls-5" d="M156.1,182.65l25-26.73s1.88-10.55,11.67-5.79S194,166,194,166l-33.79,39.62"/><rect class="cls-6" x="85.93" y="122.85" width="13.59" height="22.63" rx="6.79"/><rect class="cls-6" x="144.81" y="122.85" width="13.59" height="22.63" rx="6.79"/><ellipse class="cls-7" cx="79.34" cy="152.8" rx="11.79" ry="5.46"/><ellipse class="cls-7" cx="167.91" cy="150.72" rx="12.12" ry="5.46"/><path class="cls-8" d="M.45,46.05c2.44,4.79,5.53,8.86,7.36,14C9,63.46,11.69,72.36,7,74.49l4-.52-.86-.21,3,2.34-.39-.72-1.8,6.88-.94.17C16.26,82,16.34,73,10,72.6a8.21,8.21,0,0,0-4.14,1,5,5,0,0,0-2.3,5.67c1.64,4.24,6,6.23,10,3.44s5.81-8.27,6.09-12.9c.57-9.39-5.27-24.42-14.25-28.65A3.62,3.62,0,0,0,.45,46.05Z"/><path class="cls-8" d="M11.79,61.3l.37.44a4.41,4.41,0,0,0,4.26,1.12c6.1-1.07,11.31-5.78,14.5-10.88,1-1.67.88-4.67-.78-6A6.9,6.9,0,0,0,28,44.72,5,5,0,0,0,22.38,47,16.72,16.72,0,0,1,18,52.16c-1.92,1.5-4.48,2.1-6.22,3.74a3.91,3.91,0,0,0,0,5.4Z"/><path class="cls-8" d="M19.7,29.47c.85,7.51,4.31,15,7.17,21.93,2.47,6,5.26,14.07,11.06,17.58,3.45,2.09,7.87-1.37,6.79-5.22-.91-3.22-3-5.72-4.65-8.59a89.57,89.57,0,0,1-4.2-8.51c-2.76-6.3-4.67-13.61-8.75-19.2-2-2.78-7.91-2.36-7.42,2Z"/><path class="cls-8" d="M42.12,40.56c.66,2.73,2.27,5.07,3.29,7.66a36.76,36.76,0,0,1,2,8.27c.43,2.84,4,4.43,6.56,3.72,3-.84,4.2-3.69,3.72-6.55-1-6.24-3.87-14.31-9.51-17.78-3.18-2-6.93,1.26-6.09,4.68Z"/><path class="cls-8" d="M33.61,23.53a5.15,5.15,0,0,0,.68,3,14.13,14.13,0,0,0,1.49,1.76,5,5,0,0,0,3.53,1.46,4.81,4.81,0,0,0,3.53-1.46,10.7,10.7,0,0,0,1.24-1.7,6.13,6.13,0,0,0,.6-4.32,5.66,5.66,0,0,0-1.49-2.68A5.56,5.56,0,0,0,39.33,18L38,18.15l-1.18.5a4.89,4.89,0,0,0-2,2.37,4.71,4.71,0,0,0-.34,2.57,4.45,4.45,0,0,0,1.37,2.84,11.92,11.92,0,0,0,1.2.92l-1-.78a.86.86,0,0,1,.18.2l-.78-1,.07.12L35,24.68a.72.72,0,0,1,.07.25l-.18-1.32v.16L35,22.44a1.58,1.58,0,0,1-.09.31l.5-1.2a3,3,0,0,1-.35.57l.78-1-.1.13h7.06a5.49,5.49,0,0,0-5-2.11,5.26,5.26,0,0,0-2.06.67,4.46,4.46,0,0,0-2.2,3.74Z"/><path class="cls-8" d="M63.53,40.17c2.14-.41,2.37-3.63,4.59-3.69,1.18,0,2.24,1.21,3.26,1.7a7.19,7.19,0,0,0,3.75.78c5.11-.32,9.52-7.6,7.61-12.29A2.9,2.9,0,0,0,78.57,25a10,10,0,0,0-3,2.48c-.46.59-.91,1.19-1.36,1.79-1.14,1-.87,1.27.8.82.27-1-6.27-1.94-6.86-1.9-5.07.3-9.14,4.95-7.75,10a2.71,2.71,0,0,0,1.93,1.93,3.19,3.19,0,0,0,1.23,0Z"/></g></g></svg>