<svg xmlns="http://www.w3.org/2000/svg" viewBox="0 0 244.75 274.96"><defs><style>.cls-1,.cls-2{fill:#fff;stroke-width:3px;}.cls-1,.cls-2,.cls-3,.cls-4{stroke:#000;}.cls-1,.cls-4{stroke-linecap:round;stroke-linejoin:round;}.cls-2,.cls-3{stroke-miterlimit:10;}.cls-3{fill:#ffeb99;stroke-width:1.84px;}.cls-4{fill:#69bd2e;stroke-width:2.74px;}.cls-5{fill:gray;}.cls-6{fill:#ff6161;}.cls-7{fill:#4c4519;}.cls-8{fill:#ffa4a4;}</style></defs><g id="图层_2" data-name="图层 2"><g id="图层_5" data-name="图层 5"><path class="cls-1" d="M117.43,166.09s-7,56,0,69,3.78,13,3.78,13-12,8.67-6.89,14.33,9.11,10.34,14.45,8,19-9.66,19.66-18.66-8-21.67-8-21.67l8,9.33,9.63-12.33s-15.33,25-7.67,41.33c0,0,17,11.34,24,0,0,0,4.67-27,3-38.33s-14.33-71.33-14.33-71.33Z"/><path class="cls-2" d="M107.93,48.79Q84.68,55.93,72,72.84c-6.62,8.84-23.51,47.09,5.53,88.57,18.33,26.18,106.43,12.25,118.6-14.68S196.34,70.3,173,54.34C157.48,43.75,131.76,41.48,107.93,48.79Z"/><path class="cls-3" d="M115.83,66.39c-12.4,3.81-22,10.19-28.73,19.23-5.3,7.07-18.8,37.66,4.42,70.82,14.65,20.94,85.1,9.8,94.84-11.74s.16-61.12-18.52-73.87C155.45,62.36,134.88,60.54,115.83,66.39Z"/><path class="cls-4" d="M112.87,1.37s-10.69,19-4.67,31.46,18.67,18.3,16.28,22.86,17.63-19.19,11.62-34C132.05,11.74,116.08,10.91,112.87,1.37Z"/><path class="cls-1" d="M108.35,177s-6.62,17.66,0,26,23.88,0,25.94-7.34S135,168.37,128,164s-21.22-6.48-22.61,1.09S121.35,189,117.35,191.7"/><path class="cls-1" d="M181,175.37s5,34.57-18,18.75c-10.25-7-4.75-29.5-4.75-29.5s9-12,16.75-4.51,1.25,22,1.25,22-2.5,6.75-1.5,8.5"/><path class="cls-5" d="M96.14,41.12a6,6,0,0,0,2,5.64,1,1,0,0,0,1.41-1.41,4.58,4.58,0,0,1-.46-.42l-.19-.21-.05-.06c.09.1,0,0,0,0a5.84,5.84,0,0,1-.33-.53l-.15-.28a.5.5,0,0,0-.05-.13c.06.08.06.15,0,0a5.22,5.22,0,0,1-.18-.56c0-.11-.05-.21-.07-.31s0-.09,0-.14,0,.22,0,0a5.68,5.68,0,0,1,0-.59c0-.1,0-.21,0-.31s0-.24,0-.08,0,0,0-.07a1,1,0,0,0-.7-1.23,1,1,0,0,0-1.23.7Z"/><path class="cls-5" d="M99.52,40.87a5,5,0,0,0,1.79,4,1.12,1.12,0,0,0,.71.29,1.05,1.05,0,0,0,.71-.29,1,1,0,0,0,0-1.42,3.94,3.94,0,0,1-.64-.65l.15.21a5.28,5.28,0,0,1-.54-.92l.1.24a4.48,4.48,0,0,1-.28-1l0,.27a4.86,4.86,0,0,1,0-.66,1,1,0,1,0-2,0Z"/><path class="cls-5" d="M137.27,12.63a9.64,9.64,0,0,1,1,1.07h0l.12.18.2.28c.13.22.26.44.38.67l.15.31c.08.18,0-.07,0,0l.06.16c.09.23.16.46.23.69s.12.5.17.76c0,.05,0,.11,0,.17,0-.09,0-.12,0,0s0,.28,0,.42a1,1,0,1,0,2,0,8.75,8.75,0,0,0-3-6.15,1,1,0,0,0-1.41,1.41Z"/><path class="cls-5" d="M139.11,9.51a10.5,10.5,0,0,1,3.8,9.12,1,1,0,0,0,2,0A12.36,12.36,0,0,0,140.53,8.1a1,1,0,0,0-1.42,0,1,1,0,0,0,0,1.41Z"/><path class="cls-6" d="M17.15,100.22a11.92,11.92,0,0,1,3-10.63,9.56,9.56,0,0,1,8.9-2.91A9.77,9.77,0,0,1,35,91.5,18.26,18.26,0,0,1,37,99,32.57,32.57,0,0,1,35.1,112.8a10.67,10.67,0,0,1-3,4.74"/><path class="cls-6" d="M18.11,100a10.81,10.81,0,0,1,4.3-11,7.77,7.77,0,0,1,10.7,1.51C36,94.06,36.34,99.31,36,103.7a31.47,31.47,0,0,1-1.3,7.07c-.68,2.23-1.51,4.5-3.32,6.06-1,.84.45,2.25,1.42,1.41,3.12-2.7,4.26-7.58,4.86-11.49.67-4.34.71-9.14-.77-13.33-1.22-3.46-3.76-6.66-7.43-7.66a10.55,10.55,0,0,0-10,3.12,13.11,13.11,0,0,0-3.27,11.61c.25,1.26,2.18.72,1.93-.54Z"/><path class="cls-6" d="M32.6,116.65c.15-.23.3-.44.45-.66L17.2,100.66a13.23,13.23,0,0,0-11-2.57,6.6,6.6,0,0,0-4.64,3.06A6,6,0,0,0,1,104.3a11.41,11.41,0,0,0,3.8,7.38,20.91,20.91,0,0,0,7.36,4.14,35.84,35.84,0,0,0,20.41.89Z"/><path class="cls-6" d="M33.47,117.15l.44-.66a1,1,0,0,0-.15-1.21L18.7,100.72C15,97.1,9,95.62,4.06,97.72c-3.53,1.52-4.69,5-3.75,8.55A14.21,14.21,0,0,0,7,114.56a32.08,32.08,0,0,0,13.26,4,36.85,36.85,0,0,0,7.2,0c1.13-.11,2.26-.28,3.38-.49.86-.16,2.08-.19,2.63-1,.75-1-1-2-1.73-1l0,.06.6-.46a34.05,34.05,0,0,1-22.59-2c-3.13-1.52-6.07-3.87-7.24-7.27-.57-1.66-.85-3.8.25-5.31A6.43,6.43,0,0,1,6.82,99a12.08,12.08,0,0,1,9.67,2.4c.53.45,1,1,1.52,1.47l8.09,7.82,6.24,6-.15-1.21q-.24.33-.45.66C31,117.22,32.76,118.22,33.47,117.15Z"/><path class="cls-6" d="M218.73,162.67c-4.06-7.13-5.4-16.19-1.86-23.59a13.28,13.28,0,0,1,4.56-5.54,8,8,0,0,1,6.95-1c3.73,1.38,5.38,5.77,5.77,9.73a30.1,30.1,0,0,1-.37,8.58"/><path class="cls-6" d="M219.59,162.16c-3.52-6.27-5-14-2.54-20.93,1.21-3.39,3.55-6.92,7.24-7.87s6.5,1.31,7.82,4.56c1.59,3.92,1.44,8.58.7,12.67-.22,1.26,1.7,1.79,1.93.53,1.17-6.48,1.08-19.05-7.92-19.94-4.3-.43-7.95,2.46-10,6a22.29,22.29,0,0,0-2.93,12.19,30.49,30.49,0,0,0,4,13.83c.62,1.12,2.35.12,1.72-1Z"/><path class="cls-6" d="M232.7,151a12.31,12.31,0,0,1,5.05-1.57,6,6,0,0,1,4.81,1.82c1.84,2.11,1.39,5.53-.37,7.71s-4.47,3.33-7.16,4.1a37.69,37.69,0,0,1-12.37,1.41,11.5,11.5,0,0,1-5.18-1.21,1.28,1.28,0,0,1,.79-.86"/><path class="cls-6" d="M233.2,151.83c2.75-1.38,7.75-2.72,9.26,1.12,1.2,3.07-1.12,6.06-3.65,7.5a26.67,26.67,0,0,1-10.13,2.82c-3.37.37-7.6.73-10.69-.9l.46,1.13.32-.26c1.15-.59.14-2.31-1-1.73a2.46,2.46,0,0,0-1.24,1.46,1,1,0,0,0,.46,1.13c3.9,2.06,9.13,1.58,13.34,1s8.86-1.68,11.91-4.69c2.46-2.42,3.55-6.68,1.26-9.58-2.84-3.59-7.79-2.45-11.29-.69-1.15.58-.14,2.31,1,1.73Z"/><path class="cls-6" d="M64.75,237.62c-2.36-4.27-.43-9.8,2.86-13.41,1.89-2.06,4.63-3.84,7.34-3.14a7.48,7.48,0,0,1,3.68,2.65c5.12,6.15,5.09,15.26,2.44,22.81-1.17,3.33-3,6.74-6.27,8.17"/><path class="cls-6" d="M65.62,237.11c-1.78-3.4-.68-7.4,1.34-10.44,2.12-3.2,6.34-6.61,9.91-3.37,5.54,5,5.76,13.86,4,20.58-1,3.84-2.71,8.16-6.54,10-1.16.55-.15,2.27,1,1.73,3.94-1.85,5.93-6.08,7.14-10a29.25,29.25,0,0,0,1-13.27c-.68-4.1-2.65-8.67-6.15-11.14-4.07-2.88-8.7.07-11.32,3.45-3,3.82-4.46,9.07-2.12,13.55.6,1.14,2.33.13,1.73-1Z"/><path class="cls-6" d="M65.31,237.32a8.77,8.77,0,0,0-5.85-1.43c-2.41.13-5,.89-6.3,2.94-1.44,2.33-.52,5.54,1.42,7.48s4.63,2.87,7.26,3.64A99.74,99.74,0,0,0,76,253"/><path class="cls-6" d="M65.81,236.45c-4.05-2.95-13.15-2.08-14.24,3.76a8,8,0,0,0,2.85,7.31c2.43,2.08,5.61,3,8.64,3.82A101.44,101.44,0,0,0,75.76,254c1.26.18,1.8-1.74.53-1.93a100.34,100.34,0,0,1-11.64-2.34c-3.2-.84-7-1.65-9.37-4.09-2.13-2.16-2.7-5.92.23-7.66a9.19,9.19,0,0,1,9.29.24c1,.76,2-1,1-1.73Z"/><rect class="cls-7" x="109.06" y="121.75" width="13.32" height="20.77" rx="6.66" transform="translate(-27.12 29.92) rotate(-13.2)"/><rect class="cls-7" x="159.56" y="112.86" width="13.32" height="20.77" rx="6.66"/><ellipse class="cls-8" cx="105.33" cy="147.4" rx="10.87" ry="5.37" transform="translate(-21.13 17.67) rotate(-8.72)"/><ellipse class="cls-8" cx="180.54" cy="135.86" rx="10.87" ry="5.38" transform="translate(-18.51 28.94) rotate(-8.72)"/></g></g></svg>