<svg xmlns="http://www.w3.org/2000/svg" xmlns:xlink="http://www.w3.org/1999/xlink" viewBox="0 0 241.35 290.8"><defs><style>.cls-1,.cls-4{fill:#fff;}.cls-1,.cls-6,.cls-8,.cls-9{stroke:#000;stroke-linecap:round;stroke-linejoin:round;}.cls-1,.cls-8,.cls-9{stroke-width:3.13px;}.cls-2{fill:#f66;}.cls-3{fill:#ffdc97;}.cls-5{clip-path:url(#clip-path);}.cls-6{fill:#ffeb99;stroke-width:2.09px;}.cls-7{fill:#4c4519;}.cls-8{fill:none;}.cls-9{fill:#69bd2e;}.cls-10{fill:#595959;}</style><clipPath id="clip-path"><path class="cls-1" d="M47.4,106.54S42.53,58.22,93.28,43.62s77.16,20.86,77.16,20.86,8.35,11.12,7.3,15c0,0,18.77,65.73,4.87,78.25s-68.43,31-96,17.72C57.72,161.49,47.05,140.25,47.4,106.54Z"/></clipPath></defs><g id="图层_2" data-name="图层 2"><g id="图层_2-2" data-name="图层 2"><path class="cls-2" d="M105.1,265s-53.19,29.2-74.39-33c0,0-4.52-30.59-25.72-37.19s32-3.83,33,2.43c0,0-33.37-25-21.55-57.35s.69-41.37.69-41.37,24.34,4.52,26.07,21.55c0,0-5.11-31.37,4.05-52.36,0,0,5.69-6.73,2.21-20.63,0,0,29.2,23.25,28.85,36s89.33,69.49,89.33,69.49,30.59-9.75,31.63-22.14c0,0,9,29,5.22,37s-14.6,19.13-14.6,19.13,28.15-21.62,51.44-11.86c0,0-37.52,25.4-31.62,40.87s24-5,24-5,3.44,53.48-31.63,54.19-42.41-5.21-42.41-5.21l-8.34-27.81Z"/><path class="cls-3" d="M111.35,239.32s-14.94,22.25-31.28,12.51S53.4,211.74,47.27,212,70,219.51,71.73,201.08,55,179.53,41.14,167.37c0,0,27.46-1.74,28.85-11.48s-4.17-18.07-4.17-18.07L151.33,192l28.5-20.47s-10.78,23.29-2.43,29.54L191,198.3s8.34,43.1-15.64,48.67-33-17-33-17Z"/><path class="cls-1" d="M102.32,175.36s-7,50.06-4.18,70.22,4.72,31.63,2.5,35.45,3.78,6.65,3.78,6.65,21.18,3.08,25-1.09l.57-22.25a8.82,8.82,0,0,1,6.64-8.39c3.93-.95,9.3-3.6,15-10.37L143,257.05c-1.69,1.48-7.69,25.84,1.28,30.34,7.09,3.55,26.17,1.64,24.78-2.88s-3.12-28.16-2.08-40-12.17-77.16-12.17-77.16Z"/><path class="cls-4" d="M47.4,106.54S42.53,58.22,93.28,43.62s77.16,20.86,77.16,20.86,8.35,11.12,7.3,15c0,0,18.77,65.73,4.87,78.25s-68.43,31-96,17.72C57.72,161.49,47.05,140.25,47.4,106.54Z"/><g class="cls-5"><path class="cls-6" d="M177.74,79.43s-62.2-22.55-83.42,15.29c-12.86,22.94,1.43,60.73,18.46,67.51s62.85-1.59,68.79-9.9l9.73-12.42-7.65-67.09Z"/><path class="cls-7" d="M175.57,119.64a6.24,6.24,0,0,1,1.47-4c2.47-2.93,8.06-8.15,15-5.62,8,2.93-3.69,14-7.33,17.16a5.8,5.8,0,0,1-3.6,1.51C178.69,128.81,175.53,127.46,175.57,119.64Z"/></g><path class="cls-8" d="M47.4,106.54S42.53,58.22,93.28,43.62s77.16,20.86,77.16,20.86,8.35,11.12,7.3,15c0,0,18.77,65.73,4.87,78.25s-68.43,31-96,17.72C57.72,161.49,47.05,140.25,47.4,106.54Z"/><path class="cls-9" d="M81.81,1.56s7.64,19.47,8.69,32,27,20.16,27,20.16,6-24.33-3-37.54S81.81,1.56,81.81,1.56Z"/><path class="cls-1" d="M151.33,203.86s16,10.78,19.81,4.87,3.27-24.43-8-32.67L156,173.51,162.3,193Z"/><path class="cls-1" d="M120.39,183.64s-5.91,23.45,1.74,27.75,36.15-16.41,42.75-13.88,9-14.85-15.29-19c0,0-17.73,5.21-23.64,11.82s-8.12-16.52,4.17-15.64S143.79,180,143.79,180"/><path class="cls-7" d="M119.17,123.12a4,4,0,0,1,3.62-5.62c7.2.07,19.26,1.36,19.5,9.17.31,9.94-13.18,5.75-16.12,4.72a3.69,3.69,0,0,1-1.09-.58A20.61,20.61,0,0,1,119.17,123.12Z"/><path class="cls-10" d="M205.18,85.91c2.58.87,5.68-.17,8.29-.58s5.36-1,7.36-3a1,1,0,0,0-.45-1.7c-2.64-1.08-5.46-.51-8.16.11s-5.59.81-7.7,2.61a1.52,1.52,0,0,0,.66,2.52Z"/><path class="cls-10" d="M210.45,96.91a22,22,0,0,0,15.72-1.49,1,1,0,0,0-.22-1.71,44.91,44.91,0,0,0-15-.56c-2,.24-2.76,3.17-.51,3.76Z"/><path class="cls-10" d="M218.45,79.55c-.62-3.44,5.12-6.92,7.54-6.94,4,0,6.39,3.09,6.19,7a1.93,1.93,0,0,0,2.42,1.83q4.47,6.59-1,7.88c-.89.24-1.8.43-2.71.58-1.45.28-1.54,2.34-.39,3,5.41,3.25-2.61,6.78-5.12,6a7.63,7.63,0,0,1-4.62-3.57.71.71,0,0,0-1.2,0c-4.7,6.5,5.85,9.47,10.54,7.54,5.44-2.25,7-9.24,2.07-12.88l-.84,3.09c4.44-.52,9.17-2.91,9.83-7.82a6.61,6.61,0,0,0-7.09-7.64L236,79.61c.39-6.27-4.63-11.84-11.17-10.86-4,.6-13.45,7.94-8.41,12a1.23,1.23,0,0,0,2-1.18Z"/></g></g></svg>