<svg xmlns="http://www.w3.org/2000/svg" viewBox="0 0 237.72 284.39"><defs><style>.cls-1,.cls-4,.cls-5{fill:#fff;}.cls-1,.cls-2,.cls-3,.cls-4,.cls-5{stroke:#000;}.cls-1,.cls-2,.cls-5{stroke-miterlimit:10;}.cls-1,.cls-3{stroke-width:3.34px;}.cls-2{fill:#ffeb99;stroke-width:2.23px;}.cls-3{fill:#69bd2e;}.cls-3,.cls-4,.cls-5{stroke-linecap:round;}.cls-3,.cls-4{stroke-linejoin:round;}.cls-4,.cls-5{stroke-width:3.25px;}.cls-6{fill:#4c4519;}.cls-7{fill:#fff8b3;}.cls-8{fill:#fff9c5;}.cls-9{fill:#fffacc;}</style></defs><g id="图层_2" data-name="图层 2"><g id="图层_3" data-name="图层 3"><path class="cls-1" d="M116.9,29.16Q89.29,31.59,71.12,47.43c-9.5,8.28-37.44,46.91-14.93,100.08,14.21,33.56,121.56,38.36,141.55,11.23s12.64-84.56-9.61-107.91C173.36,35.33,145.22,26.67,116.9,29.16Z" transform="translate(-3.6 -0.95)"/><path class="cls-2" d="M120.74,54.72Q97.94,56.46,83,68.57c-7.8,6.33-30.68,36-11.82,77,11.9,25.94,100.56,30.18,116.93,9.37s10-65.09-8.48-83.2C167.39,59.76,144.11,53,120.74,54.72Z" transform="translate(-3.6 -0.95)"/><path class="cls-3" d="M133.44,31.71s19-34.26,47.33-21.64c16.78,7.47,11.13,31.92,23.38,32.5,0,0-29,7.82-44.54-2.76S133.44,31.71,133.44,31.71Z" transform="translate(-3.6 -0.95)"/><path class="cls-4" d="M170,176.28s26-17.85,29.43-32.08c1.73-7.11,9.05-9.79,11.86-6.23a19,19,0,0,1,2.5,18.56c-1,2.55-2.39,5.67-4.3,9.45-5.15,10.14-17.55,16.43-27.6,23.87l-14.48,8.36S170,240.52,166.29,250s-46.77,10-46.77,10S92.73,277.54,86.4,245.25l4.45-49s-30.18-12.91-37.57-38.89C51,149.5,50.57,143.94,51,140a8.77,8.77,0,0,1,13.11-6.53c3.62,2.06,7.41,5.09,7.37,8.73-.08,6.93,12.24,30,17.51,31.45l3.7-2.19s56.73,12.1,70.45,4.8Z" transform="translate(-3.6 -0.95)"/><path class="cls-5" d="M97.81,237.46s21.52-14.76,30.71-5.85,2.42,48.72-7.88,51.5-20.32-5-20.32-5-4.18-13.74,5.29-21.81" transform="translate(-3.6 -0.95)"/><path class="cls-4" d="M144,233.57s15-16.71,26.17-4.46,9.74,41.75,9.74,41.75-9.7,12.15-22.55,5c-7.51-4.17-2.5-21.45-5.29-24.5" transform="translate(-3.6 -0.95)"/><path class="cls-6" d="M100.7,109.14C93.31,111.71,92,121.66,94.88,128a15.29,15.29,0,0,0,17.86,7.84c7.69-2.4,10-13.13,5.89-19.48a11.71,11.71,0,0,0-8.59-5.48,10.19,10.19,0,0,0-9.32,4.11,9.13,9.13,0,0,0,.18,10.72A8.4,8.4,0,0,0,111,127.9c1.94-.93.25-3.81-1.68-2.88a5.07,5.07,0,0,1-5.89-1.48,5.79,5.79,0,0,1-.21-6.35,6.79,6.79,0,0,1,6.46-3,8.18,8.18,0,0,1,6,3.71c2.87,4.33,2,12.6-3.44,14.59A11.94,11.94,0,0,1,98.74,128a12.25,12.25,0,0,1-1.93-8.37c.38-2.81,1.9-6.26,4.78-7.26,2-.7,1.15-3.93-.89-3.22Z" transform="translate(-3.6 -0.95)"/><path class="cls-6" d="M156.38,120.09a6.45,6.45,0,0,1,3.13-6.17,12,12,0,0,1,7.31-1.64,11.73,11.73,0,0,1,6.16,2.25,8.14,8.14,0,0,1,3.11,6.22c.14,2.44.19,5.73-1.28,7.83-1.36,1.93-3.92,2.32-6.12,2.3s-4.9-.28-6.31-2.32a5.33,5.33,0,0,1-.45-5.44,5.24,5.24,0,0,1,5.34-2.34,4.41,4.41,0,0,1,2.83,1.62,2.27,2.27,0,0,1,.53,1.72,1.21,1.21,0,0,1-.34.6,1,1,0,0,1-.28.22c-.5.07-.4.22.32.46l-.6,2.28.13-.08-1.29.16.15.07-1.16-2.06,0,.11c-.34,2.11,2.87,3,3.22.89l0-.11a1.73,1.73,0,0,0-1.17-2,1.64,1.64,0,0,0-1.56.19,1.73,1.73,0,0,0-.6,2.28c.8,1.9,3.53,1.36,4.81.34a4.68,4.68,0,0,0,1.52-5c-1-3.42-4.72-5.29-8.08-5a8.23,8.23,0,0,0-7.28,5.47,8.84,8.84,0,0,0,2.26,8.8c2.59,2.5,6.83,2.83,10.24,2.39,3.77-.48,6.8-2.59,7.89-6.34a21.16,21.16,0,0,0,.65-5.94,13.86,13.86,0,0,0-1.25-6.09,12.53,12.53,0,0,0-7.49-6,16,16,0,0,0-11.95.82A10,10,0,0,0,153.16,121c.36,2.12,3.58,1.22,3.22-.89Z" transform="translate(-3.6 -0.95)"/><path class="cls-6" d="M58.34,21.24c-5.5,1-11.45,2.09-15.89,5.74C38.59,30.17,36,35.41,38,40.35s7,7.73,11.49,9.86a93.38,93.38,0,0,0,17.75,6,331.3,331.3,0,0,0,38.43,7.07,385.3,385.3,0,0,0,39,2.86c13.1.32,26.22,0,39.3-.85,1.65-.11,3.3-.22,4.94-.35.19,0,.63-.07.72-.27s-.07-.27-.28-.26c-12.68,1-25.41,1.42-38.13,1.3s-25.53-.81-38.23-2.18a346.34,346.34,0,0,1-37.6-6.09,159.17,159.17,0,0,1-18-4.81,69.45,69.45,0,0,1-8.31-3.48,28.84,28.84,0,0,1-6.64-4.38,12.26,12.26,0,0,1-3.85-6.17,10.42,10.42,0,0,1,1.2-7.32c2.89-5.23,8.58-7.46,14.12-8.68,1.41-.31,2.83-.57,4.25-.83.47-.09.92-.64.17-.51Z" transform="translate(-3.6 -0.95)"/><path class="cls-6" d="M144.77,90.64c14.28,2.44,28.77.24,42.87-2.24,6.87-1.2,13.8-2.3,20.41-4.56a45.14,45.14,0,0,0,8.83-4A23.93,23.93,0,0,0,223.8,74a7.07,7.07,0,0,0,1.58-4.26,6.87,6.87,0,0,0-1.68-4.23c-2.2-2.68-5.71-3.63-8.93-4.49-.33-.09-1.26.41-.66.57,2.86.76,5.93,1.58,8.08,3.76A6.27,6.27,0,0,1,223.46,73c-1.45,2.55-4.09,4.47-6.51,6a41.88,41.88,0,0,1-8.31,4c-6.33,2.3-13,3.39-19.64,4.56s-13.51,2.34-20.33,3a88.56,88.56,0,0,1-23.23-.53.94.94,0,0,0-.76.2c-.15.15-.15.32.09.37Z" transform="translate(-3.6 -0.95)"/><path class="cls-7" d="M18.27,60.43A20.53,20.53,0,0,1,4.68,74.53,13.1,13.1,0,0,1,15.21,79,13.09,13.09,0,0,1,18.07,90a29.12,29.12,0,0,1,3.8-11.56,11,11,0,0,1,3.71-4.11,5,5,0,0,1,5.29,0,26.38,26.38,0,0,1-12-14.45" transform="translate(-3.6 -0.95)"/><path class="cls-6" d="M17.2,60.14A19.53,19.53,0,0,1,4.38,73.46c-1.15.36-1,2.24.3,2.18A11.92,11.92,0,0,1,17,89.73l2.19.29a27.9,27.9,0,0,1,3.32-10.43C24,77,27,73.09,30.31,75.33l1.12-1.92A25.53,25.53,0,0,1,19.92,59.62c-.47-1.34-2.62-.76-2.15.59A27.89,27.89,0,0,0,30.31,75.33a1.11,1.11,0,0,0,1.12-1.92c-3.78-2.53-7.89.42-10,3.63A30,30,0,0,0,17,90c-.14,1.25,1.95,1.53,2.19.3A14.39,14.39,0,0,0,16,78.17,14.23,14.23,0,0,0,4.68,73.42L5,75.6A21.79,21.79,0,0,0,19.34,60.73a1.11,1.11,0,0,0-2.14-.59Z" transform="translate(-3.6 -0.95)"/><path class="cls-8" d="M73.2,11.56A44.29,44.29,0,0,0,81.37,2a19.72,19.72,0,0,0,.56,6.86,10,10,0,0,0,9.88,6.63c-6,.18-11.51,4.67-13.39,10.38a21,21,0,0,0-6.5-15" transform="translate(-3.6 -0.95)"/><path class="cls-6" d="M74,12.35a47,47,0,0,0,8.36-9.76L80.26,2c-.14,3.9,0,7.75,2.71,10.82a11.18,11.18,0,0,0,8.84,3.79c1.42-.07,1.43-2.29,0-2.23a16.36,16.36,0,0,0-14.46,11.2l2.19.29a22.36,22.36,0,0,0-6.83-15.83c-1-1-2.61.58-1.57,1.57A20.12,20.12,0,0,1,77.31,25.9a1.12,1.12,0,0,0,2.19.3,14,14,0,0,1,12.31-9.56V14.41a9,9,0,0,1-7.26-3.13c-2.24-2.59-2.18-6-2.06-9.25a1.13,1.13,0,0,0-2.08-.56,44.43,44.43,0,0,1-8,9.3c-1.08,1,.5,2.53,1.57,1.58Z" transform="translate(-3.6 -0.95)"/><path class="cls-9" d="M220.34,86.1a24.19,24.19,0,0,0,9.76-12.25,15.25,15.25,0,0,0,2.31,9.07,10.56,10.56,0,0,0,7.83,4.82c-2.94-.8-6.12.7-8.16,3s-3.18,5.17-4.27,8A14.08,14.08,0,0,0,216.7,86.44" transform="translate(-3.6 -0.95)"/><path class="cls-6" d="M220.9,87.06a25.72,25.72,0,0,0,10.27-12.91l-2.19-.3c-.19,7,3.69,14.3,11.26,15,1.25.11,1.5-1.9.29-2.19a9.49,9.49,0,0,0-8.7,2.69c-2.55,2.44-3.85,5.83-5.1,9l2.19.3A15.28,15.28,0,0,0,217,85.36c-1.4-.28-2,1.87-.6,2.15a13,13,0,0,1,10.29,11.2,1.12,1.12,0,0,0,2.19.29c1.75-4.52,4.93-11.65,11.06-10.18l.3-2.19c-6.33-.59-9.19-7.15-9-12.78,0-1.32-1.78-1.43-2.19-.3a23.23,23.23,0,0,1-9.24,11.59c-1.2.77-.08,2.7,1.12,1.92Z" transform="translate(-3.6 -0.95)"/></g></g></svg>