<svg xmlns="http://www.w3.org/2000/svg" viewBox="0 0 242.99 257.83"><defs><style>.cls-1,.cls-3{fill:#fff;}.cls-1,.cls-2,.cls-3,.cls-4{stroke:#000;}.cls-1,.cls-2{stroke-miterlimit:10;}.cls-1,.cls-3,.cls-4{stroke-width:3px;}.cls-2{fill:#ffeb99;stroke-width:2px;}.cls-3,.cls-4{stroke-linecap:round;stroke-linejoin:round;}.cls-4{fill:#69bd2e;}.cls-5{fill:#4c4519;}.cls-6{fill:#ffa4a4;}.cls-7{fill:#ffb6ee;}</style></defs><g id="图层_2" data-name="图层 2"><g id="图层_13" data-name="图层 13"><path class="cls-1" d="M52.66,189.18s-12.25,36-12.75,42c0,0-12.5,14-3.5,19.5s16.34-5.5,16.34-5.5"/><path class="cls-1" d="M52.75,257.68s-1.54-48.5,8.56-68l50.56-5.17,7.54,73.17"/><path class="cls-1" d="M59.66,53.37Q33.47,58.8,17.85,76c-8.16,9-30.58,49.16-3,97.56,17.39,30.56,115.31,24.32,131.4-3.92s4.26-81.58-19.69-101.44C110.65,55,86.51,47.79,59.66,53.37Z"/><path class="cls-2" d="M68.46,73.88c-13.75,2.86-24.7,8.78-32.92,17.85-6.43,7.09-24.09,38.72-2.39,76.84,13.7,24.06,90.82,19.15,103.49-3.09s3.36-64.25-15.5-79.89C108.62,75.2,89.61,69.49,68.46,73.88Z"/><path class="cls-3" d="M116.52,209.35s21,11.34,22.52-3.66-3.5-44-13.5-40.5-9,18.83-9,18.83l2,13.67"/><path class="cls-4" d="M71.91,13.18s-1.17,21-6.33,29.67,5.13,21,12,22.5c0,0,16.68-9.84,14.18-23.84S72.91,13.18,72.91,13.18Z"/><rect class="cls-5" x="52.03" y="126.91" width="17" height="25.5" rx="8.5" transform="translate(-14.29 7.1) rotate(-6.01)"/><rect class="cls-5" x="106.52" y="121.18" width="17" height="25.5" rx="8.5" transform="translate(-13.39 12.78) rotate(-6.01)"/><ellipse class="cls-6" cx="45.83" cy="160.01" rx="13.58" ry="6.5" transform="translate(-16.5 5.68) rotate(-6.01)"/><ellipse class="cls-6" cx="132.94" cy="150.01" rx="13.58" ry="6.5" transform="translate(-14.97 14.74) rotate(-6.01)"/><path class="cls-7" d="M128.79,14.29l-.38.18,9.7,1.25-.44-.4,2.06,3.53c.56,1.66.22,0,1.35-1.2a5.87,5.87,0,0,1,3.53-1.71,10.42,10.42,0,0,1,9.08,3.77c2.28,3,.77,6-.9,9-2.21,3.94-4.75,7.73-7.13,11.57C140.21,49,154,57.07,159.47,48.33c4.65-7.48,10.92-15.35,11.44-24.48S165.28,6.59,157.42,2.78c-8.31-4-18.47-3.92-25.86,2-5.79,4.67-11.6,16-4.77,22.23,2.86,2.61,6.31,2.82,9.7,1.25l.37-.17c3.93-1.81,4.91-7.47,2.87-10.95-2.35-4-7-4.69-10.94-2.87Z"/><path class="cls-7" d="M145.91,57.68h-1a6,6,0,0,0-3.08.69,7.13,7.13,0,0,0-4.23,4.23,6,6,0,0,0-.69,3.08l.28,2.13a8,8,0,0,0,2.06,3.53l1.62,1.25a8,8,0,0,0,4,1.09h1a9,9,0,0,0,5.66-2.34,6,6,0,0,0,1.65-2.58,6,6,0,0,0,.69-3.08l-.29-2.13A8,8,0,0,0,151.57,60L150,58.77a8,8,0,0,0-4-1.09Z"/><path class="cls-7" d="M206.33,61.58c6.57-5.87,12.3,3.81,10.17,9.9-2.94,8.39-12.7,10.78-20.59,10.7-10.3-.1-10.31,15.9,0,16C213.47,98.36,233,87.75,233.06,68c.05-20.15-22.79-31.39-38-17.77-7.7,6.87,3.65,18.15,11.31,11.31Z"/><path class="cls-7" d="M163.41,98.18v.5a9,9,0,0,0,2.34,5.66,6,6,0,0,0,2.58,1.65,6,6,0,0,0,3.08.69l2.13-.29a8,8,0,0,0,3.53-2l1.25-1.62a8.08,8.08,0,0,0,1.09-4v-.5a9,9,0,0,0-2.34-5.66,9,9,0,0,0-5.66-2.34l-2.13.29a8,8,0,0,0-3.53,2l-1.25,1.62a8,8,0,0,0-1.09,4Z"/><path class="cls-7" d="M224.92,137.3c-.29,0,1.07,2.51,1.38,3.51a14.38,14.38,0,0,1,.76,6.26c-.67,3.94-4.38,5.91-8.11,6.38-8.76,1.09-15.58-7.76-22.44-11.77-8.9-5.2-17,8.62-8.07,13.82,7.16,4.19,12.8,10.51,21,12.89a28.66,28.66,0,0,0,25.82-5.21c7.31-6.09,8.89-15.46,7-24.4-2-9.42-7.59-16.22-17.35-17.48-4.29-.56-8,4.07-8,8,0,4.78,3.69,7.44,8,8Z"/><path class="cls-7" d="M169.91,154.18c10.29,0,10.31-16,0-16s-10.31,16,0,16Z"/></g></g></svg>