<svg xmlns="http://www.w3.org/2000/svg" xmlns:xlink="http://www.w3.org/1999/xlink" viewBox="0 0 205.29 252.71"><defs><style>.cls-1,.cls-4{fill:#ffeb99;}.cls-1,.cls-2,.cls-3,.cls-7,.cls-8{stroke:#000;}.cls-1,.cls-3,.cls-6,.cls-7{stroke-miterlimit:10;}.cls-1,.cls-7{stroke-width:2px;}.cls-2,.cls-3{fill:#fff;}.cls-2,.cls-8,.cls-9{stroke-linecap:round;stroke-linejoin:round;}.cls-2,.cls-3,.cls-8,.cls-9{stroke-width:3px;}.cls-5{clip-path:url(#clip-path);}.cls-6{fill:#aeffff;stroke:#65c8d0;}.cls-7,.cls-9{fill:none;}.cls-8{fill:#69bd2e;}.cls-9{stroke:#4c4519;}.cls-10{fill:#65c8d0;}.cls-11{fill:#b0cbcc;}</style><clipPath id="clip-path"><path class="cls-1" d="M99.93,43.81Q80.67,45.94,68.39,56.64C62,62.23,43.48,88,60.66,122.18c10.85,21.59,82,23.1,95.28,5s7.72-54.7-8.48-69.48C136.71,47.91,119.67,41.62,99.93,43.81Z"/></clipPath></defs><g id="图层_2" data-name="图层 2"><g id="图层_14" data-name="图层 14"><path class="cls-2" d="M78.32,148.22S65.3,184.33,66.63,193c0,0-5.4,14,5.8,13.33s8.11-10,8.11-10"/><path class="cls-2" d="M86.3,144.83s-7.5,55-6.5,71.5,2,30.5,6.5,32.5,20.3,4,22.15,0,.15-23,0-27c0,0,8.85,3.5,9.85,0,0,0,2.56,13.46,1.53,20.88a5.67,5.67,0,0,0,3.75,6.21c6.39,2.16,16.85,4.46,21.22-1.59,0,0,3-20.5,0-29.5,0,0,6.65-18-7.68-73Z"/><path class="cls-3" d="M94.6,20.78q-24.5,3-40.16,17.67c-8.19,7.66-31.84,42.89-10.17,89.48C58,157.34,148.46,159,165.4,134.28S175.49,59.59,155,39.51C141.36,26.18,119.71,17.69,94.6,20.78Z"/><path class="cls-4" d="M99.93,43.81Q80.67,45.94,68.39,56.64C62,62.23,43.48,88,60.66,122.18c10.85,21.59,82,23.1,95.28,5s7.72-54.7-8.48-69.48C136.71,47.91,119.67,41.62,99.93,43.81Z"/><g class="cls-5"><path class="cls-6" d="M76.88,99.46S72.63,135.33,75,137.83s16,3,16,3,.5-40.48-.83-43.14"/><path class="cls-6" d="M132,95.08s-1,42.92,1,44.59,16-3.84,16-3.84-2.22-35.58-3.86-38.62"/></g><path class="cls-7" d="M99.93,43.81Q80.67,45.94,68.39,56.64C62,62.23,43.48,88,60.66,122.18c10.85,21.59,82,23.1,95.28,5s7.72-54.7-8.48-69.48C136.71,47.91,119.67,41.62,99.93,43.81Z"/><path class="cls-8" d="M108.45,26.42s6.88-22,33.73-16.09c13.33,2.93,12.61,21,23.61,25.5,0,0-12.49,11-32,3.23S123.6,26,108.45,26.42Z"/><path class="cls-2" d="M140.3,151.53S157.8,144.77,156,137c0,0-18-16.77-2.66-20.55s21.33,19.22,19,26.55-15.83,18.17-23,20.83-5.75,1.5-5.75,1.5"/><path class="cls-9" d="M73.13,100.67S85.3,96.33,92,97"/><path class="cls-9" d="M128.66,95.06s15.38-.4,18.64,3.72"/><path class="cls-10" d="M21.41,113.62C18,115.22,6.27,121.7,9.84,126.91c1.63,2.38,5.37,1.32,7.61.73a20.08,20.08,0,0,0,9.17-5c.39-.39,0-1.24-.59-1-2,.82-3.9,1.72-5.93,2.42-1.45.5-5.27,2.24-6.83,1.71-4.64-1.55,7.16-10.94,8.36-11.73a.22.22,0,0,0-.22-.38Z"/><path class="cls-10" d="M31.88,145.44c-2.78.58-4.84,3-6.18,5.35-1.21,2.15-3.19,5.57-.8,7.6,2.18,1.86,5.52.47,7.72-.62A18.27,18.27,0,0,0,40.31,151,1,1,0,0,0,39,149.7c-1.78,1-3.42,2.13-5.24,3.07-1.42.73-3.87,2.56-5.45,2.4-1-.1-.52-.72-.27-1.65s.44-1.55.71-2.3A17.18,17.18,0,0,1,32,145.67a.14.14,0,0,0-.13-.23Z"/><path class="cls-10" d="M188.48,95.61c1.4,1,3.22.88,4.89,1.23A16.28,16.28,0,0,1,200,99.56c3.36,2.64.15,4.43-2.62,4.66a12.33,12.33,0,0,1-6.75-1.14.77.77,0,0,0-.93,1.2c2.67,2.64,5.64,4.35,9.56,3.7,3.05-.52,6.3-2.51,6-6-.27-3.29-3.45-5.34-6.25-6.42s-8.15-2.69-10.6-.39a.3.3,0,0,0,.06.47Z"/><path class="cls-10" d="M191.89,132.1c2,2,10.24,6.94,6.7,10.56-3.4,3.47-8.37-2.07-10.61-4.26a.46.46,0,0,0-.77.45c1.06,3.21,2.83,6.6,6,8.15a7.16,7.16,0,0,0,8.34-1.38c5.23-5.49-4.06-13.33-9.15-14.38a.52.52,0,0,0-.51.86Z"/><path class="cls-11" d="M4.1,20.6c.11,4,1.28,7.93,1.5,12,.13,2.46,3.37,4.3,5.23,2.17,1.12-1.27,3.88-5.11,6-2.81,1.13,1.2-.2,3.74-.93,4.7-1.22,1.61-5.71,4.19-7.76,2.39A1.28,1.28,0,0,0,6,40c-.56,4.21,2.94,6.29,6.8,5.88A12.51,12.51,0,0,0,23,37c1.16-3.92.15-8.91-3.66-11-5-2.77-9.72.83-12.87,4.5l5.12,1.35c-.9-4.47-3.11-9.32-7.44-11.25a.06.06,0,0,0-.08.05Z"/><path class="cls-11" d="M.42,22.63c2.5,2.31,7.72-.2,10.38-1.3,3.81-1.58,1.46-7.16-2.21-5.22-1.66.87-3.34,1.63-5.06,2.37C2,19.13.63,19.63.06,21.26a1.39,1.39,0,0,0,.36,1.37Z"/><path class="cls-11" d="M23.72,13.56c.11,4,1.27,7.94,1.5,12,.13,2.46,3.37,4.29,5.23,2.17,1.11-1.28,3.87-5.12,6-2.82,1.12,1.2-.2,3.74-.93,4.71-1.22,1.6-5.71,4.19-7.77,2.39a1.27,1.27,0,0,0-2.14.89c-.56,4.2,2.93,6.29,6.8,5.87a12.54,12.54,0,0,0,10.2-8.85c1.16-3.92.14-8.91-3.66-11-5-2.77-9.72.84-12.88,4.5l5.13,1.35c-.9-4.46-3.12-9.32-7.45-11.24a0,0,0,0,0-.07,0Z"/><path class="cls-11" d="M20,15.59c2.49,2.31,7.71-.2,10.37-1.3,3.81-1.57,1.47-7.16-2.2-5.22-1.66.88-3.34,1.64-5.07,2.38-1.49.64-2.89,1.15-3.46,2.77A1.37,1.37,0,0,0,20,15.59Z"/><path class="cls-11" d="M42.71,4.89c.11,4.06,1.27,7.94,1.49,12,.14,2.46,3.38,4.29,5.24,2.17,1.11-1.27,3.87-5.11,6-2.81,1.12,1.19-.21,3.74-.94,4.7-1.21,1.61-5.71,4.19-7.76,2.39a1.27,1.27,0,0,0-2.14.89c-.56,4.21,2.93,6.29,6.8,5.87a12.52,12.52,0,0,0,10.2-8.84c1.16-3.92.14-8.91-3.66-11-4.95-2.76-9.72.84-12.88,4.5l5.12,1.36c-.9-4.47-3.11-9.32-7.44-11.25,0,0-.07,0-.07,0Z"/><path class="cls-11" d="M39,6.93c2.49,2.31,7.71-.2,10.37-1.3C53.21,4.05,50.87-1.53,47.2.4c-1.66.88-3.35,1.64-5.07,2.38-1.49.65-2.89,1.15-3.47,2.77A1.39,1.39,0,0,0,39,6.93Z"/><path class="cls-11" d="M68.48,9.52c1.78-1,2.92-3.26,5.21-3.07,1.72.14,3,1.42,4.88,1.46,2.63.06,5.36-1.85,5.34-4.63a1.06,1.06,0,0,0-1.57-.89c-1.72.74-3,1.3-4.84.67s-2.69-1.4-4.65-1.17a9.29,9.29,0,0,0-7.06,5.56c-.63,1.54,1.43,2.81,2.69,2.07Z"/></g></g></svg>