<svg width="813" height="408" viewBox="0 0 813 408" fill="none" xmlns="http://www.w3.org/2000/svg">
<path d="M568.431 275.782C489.29 403.571 265.726 408.895 219.255 371.796C212.028 407.686 57.5452 435.552 13.1516 354.852C11.3206 351.568 9.69549 348.108 8.27636 344.446C-36.3944 230.036 110.618 142.874 189.76 207.873C189.76 207.873 172.367 84.3004 297.15 40.9103C376.258 13.3889 477.978 30.849 492.431 101.105C510.618 -17.4201 733.35 -36.4341 780.96 69.1243C784.278 76.4521 786.734 84.4053 788.22 92.9462C805.793 194.116 653.003 292.343 568.431 275.782Z" fill="white"/>
<path d="M591.061 275.651C511.919 403.44 288.356 408.764 241.884 371.665C234.657 407.555 80.1744 435.421 35.7808 354.721C132.248 379.996 218.511 369.347 231.995 344.555C264.669 356.863 529.652 362.12 571.11 244.078C621.937 244.078 788.106 213.756 803.593 68.9899C806.91 76.3177 809.367 84.2708 810.853 92.8118C828.422 193.986 675.632 292.212 591.061 275.651Z" fill="#E6F9FC"/>
</svg>
