<svg xmlns="http://www.w3.org/2000/svg" viewBox="0 0 615 308.15"><defs><style>.cls-1{fill:#d9feff;}.cls-2{fill:#c1e0ea;}.cls-3{fill:#f5ffff;}</style></defs><g id="图层_2" data-name="图层 2"><g id="图层_1-2" data-name="图层 1"><path class="cls-1" d="M614.22,215.84c0,33.93-40.74,61.43-91,61.43q-6.43,0-12.64-.59c-15.55,15.13-57.83,26-107,26-24.19,0-46.61-2.63-65-7.1h0c-15.16,7.35-36.24,11.9-59.35,11.9-32.34,0-60.33-8.92-73.8-21.92a83.59,83.59,0,0,1-26.6,4.08c-14,0-26.57-3-35.19-7.84-16.25,5-35.21,8.69-55.41,7.84-26-1.1-47.59-7.75-62.93-17.16a67.6,67.6,0,0,1-16-13.25v0c-6.53-7.58-9.82-15.87-9.32-24,1.45-23.51,6.27-46.26,45.42-54.94a51.75,51.75,0,0,1-.71-8.64c0-34.07,32.51-63.31,78.87-75.84,3.06-19.2,21.89-34,44.67-34A50.7,50.7,0,0,1,185,64.55C200.83,27.06,246.19,0,299.68,0c38,0,72.15,13.66,94.5,35h0c21.86,0,33.32,10.74,39.6,24.37.08.16,0,.36,0,.54q3.69-.19,7.47-.2c42.24,0,76.48,18.59,76.48,41.52,0,.4,0,.8,0,1.19a2.77,2.77,0,0,0,2.29,2.76c32.88,7.68,55.78,24.84,55.78,44.78a27.87,27.87,0,0,1-3.9,14c1.92.82,3.81,1.7,5.63,2.61C599.78,177.73,614.22,195.65,614.22,215.84Z"/><path class="cls-2" d="M615,216.53c0,33.92-40.73,61.42-91,61.42-4.29,0-8.51-.2-12.63-.59-15.56,15.14-57.84,26-107,26-24.19,0-46.61-2.63-65-7.11h0c-15.17,7.35-36.25,11.91-59.36,11.91-32.34,0-60.32-8.93-73.79-21.93a83.6,83.6,0,0,1-26.61,4.09c-14,0-26.56-3-35.19-7.84-16.25,5-35.21,8.69-55.4,7.84-26-1.1-47.6-7.75-62.93-17.17l-16-13.24,0,0c80.68,36.36,137.36,16.46,137.36,16.46,11.77,8.24,62.84,1.19,62.84,1.19,59.7,23.16,128.55.18,128.55.18,49.42,16.47,153-29.51,153-29.51,87.07,13.73,83.44-65.68,86-79.07.25-1.24-5.24-4.66-5.24-4.66l5.65,2.76C600.57,178.42,615,196.34,615,216.53Z"/><path class="cls-3" d="M517.74,101.23c0,.4.81,2.46.78,2.85,0,0-29-29.51-87.85-36.38,0,0-8.63-18.53-43.14-24,0,0-158.44-51.47-202.37,20.59h0s-32.86,1.17-61.53,31.47c3.06-19.2,21.89-34,44.67-34A50.7,50.7,0,0,1,185,64.55C200.83,27.06,246.19,0,299.68,0c38,0,72.15,13.66,94.5,35h0c21.86,0,33.32,10.74,39.6,24.37.08.16,0,.36,0,.54q3.69-.19,7.47-.2C483.5,59.71,517.74,78.3,517.74,101.23Z"/></g></g></svg>