<svg xmlns="http://www.w3.org/2000/svg" viewBox="0 0 504 219"><defs><style>.cls-1{fill:#e6feff;}.cls-2{fill:#9ad9e8;}</style></defs><g id="图层_2" data-name="图层 2"><g id="图层_1-2" data-name="图层 1"><path class="cls-1" d="M504,131.5c0,32.31-56.64,58.5-126.5,58.5q-6.94,0-13.69-.34A82.89,82.89,0,0,1,349.87,199l-.05,0c-22.56,12.2-56.66,20-94.82,20-40.69,0-76.76-8.83-99.15-22.44A153.26,153.26,0,0,1,108,204C48.35,204,0,171.76,0,132a51.11,51.11,0,0,1,7-25.49C21.05,81.72,55.07,63.46,96,60.44,96.05,27.06,137.44,0,188.5,0,220.32,0,248.38,10.51,265,26.52A90.55,90.55,0,0,1,294,22c27.37,0,50,10.93,53.52,25.12,2-.08,4-.12,6-.12,36.78,0,67.32,13.23,73.4,30.63C472.22,86.53,504,107.3,504,131.5Z"/><path class="cls-2" d="M349.82,199c-22.56,12.2-56.66,20-94.82,20-40.69,0-76.76-8.83-99.15-22.44A153.26,153.26,0,0,1,108,204C48.35,204,0,171.76,0,132c0-9,6-36,21-42,12.61,28.3,33.71,87.33,131,88C152,178,290,224.44,349.82,199Z"/></g></g></svg>