<svg xmlns="http://www.w3.org/2000/svg" viewBox="0 0 535 206"><defs><style>.cls-1{fill:#defdff;}.cls-2{fill:#a6e0ed;}</style></defs><g id="图层_2" data-name="图层 2"><g id="图层_1-2" data-name="图层 1"><path class="cls-1" d="M535,110.5c0,28.2-40.86,51.4-93.26,54.21-4.43,23-65.08,41.29-139.24,41.29-47.5,0-89.45-7.49-114.64-18.93-11.77,1.17-24.14,1.83-36.9,1.91h0c-1,0-1.94,0-2.92,0-52.67,0-98.92-9.76-125.15-24.46h0l-.08-.05C8.34,156.39,0,146.79,0,136.5c0-16.71,22-31.59,56.29-41.2C64,75,100.39,55.74,146,49.41c4.74-.66,9.43-1.15,14-1.48C161.44,21.32,198.27,0,243.5,0c34.87,0,64.75,12.67,77.24,30.67C334.79,23.43,353.7,19,374.5,19c40.37,0,73.63,16.7,78,38.17,20.17,2.22,38.18,7.51,52.2,14.88C523.43,81.9,535,95.49,535,110.5Z"/><path class="cls-2" d="M535,110.5c0,28.2-40.86,51.4-93.26,54.21-4.43,23-65.08,41.29-139.24,41.29-47.5,0-89.45-7.49-114.64-18.93-11.77,1.17-43.1,1.85-55.86,1.93,29.69-2.43,59-6,59-6,99,26,243-31,243-31,58-5,75-78,75-78C527.73,83.85,535,95.49,535,110.5Z"/></g></g></svg>