<svg xmlns="http://www.w3.org/2000/svg" viewBox="0 0 506 268"><defs><style>.cls-1{fill:#ebffff;}.cls-2{fill:#bee9f4;}.cls-3{fill:#8ed6ef;}.cls-4{fill:#f0fbfc;}</style></defs><g id="图层_2" data-name="图层 2"><g id="图层_1-2" data-name="图层 1"><path class="cls-1" d="M506,177c0,16.4-10.5,31.1-27.07,41-.51.32-1,.63-1.59.92C464,226.48,447,231,428.5,231a108.72,108.72,0,0,1-23.18-2.46c-1.15-.25-2.28-.52-3.41-.81-.11.21-.23.42-.35.63C388.78,251.48,354.85,268,315,268c-22.73,0-43.53-5.38-59.58-14.28-18,8.87-42,14.28-68.42,14.28-50.06,0-91.61-19.47-99.6-45l-1.9,0C38.28,223,0,193,0,156a54.73,54.73,0,0,1,7-26.65l.37-.65c11-19.3,33.31-33.77,60.33-38.25a54.32,54.32,0,0,1-.73-9C67,54,87.11,29.71,117.92,15h0C119.9,14.72,254.31-.56,297,60c1,0,60,3,99,44,0,0,37,8,39,22,0,0,16.42-7.69,52.71,16.16C499.12,151.57,506,163.73,506,177Z"/><path class="cls-2" d="M401.51,228.39s0,0,0,0C388.72,251.51,354.82,268,315,268c-22.73,0-43.53-5.38-59.58-14.28h0c-18,8.87-42,14.28-68.42,14.28-50,0-91.56-19.45-99.59-45,0,0,0,0,0,0H85.5C38.28,223,0,193,0,156a54.73,54.73,0,0,1,7-26.65H7L15,118s11-10,11-10c.34,1.46,7.59,86.05,70,92v3c.07.12,36.6,62.1,150.6,25.77a9.21,9.21,0,0,1,4.8-.21c17.13,3.88,126.76,25,150.6-1.56Z"/><path class="cls-3" d="M477.34,218.92C464,226.48,450.51,231,432,231c-8.07,0-25-1-30-4C419.07,227.69,458.66,229.3,477.34,218.92Z"/><path class="cls-4" d="M487.71,142.16C451.42,118.31,435,126,435,126c-2-14-44-20-44-20-39-41-90-44-91-44C257.31,1.44,119.9,14.72,117.94,15,137.59,5.53,161.59,0,187.5,0c53.74,0,99.26,23.79,114.79,56.66A102.62,102.62,0,0,1,314,56c36.41,0,67.66,18.72,81,45.42a45.16,45.16,0,0,1,26.45,6.13,46,46,0,0,1,16.4,15.84C457.81,125.07,475.4,132,487.71,142.16Z"/></g></g></svg>