<svg width="595" height="291" viewBox="0 0 595 291" fill="none" xmlns="http://www.w3.org/2000/svg">
<path d="M577.952 255.162L577.946 255.187C557.134 282.616 493.768 294.214 393.144 288.917C256.849 281.735 123.972 203.241 123.972 203.241C21.3696 137.823 0.511279 86.677 0.782378 55.8423C1.23782 3.84549 79.1299 -21.5131 121.348 25.5958C221.888 137.782 294.992 11.0703 413.574 153.009C413.682 152.955 413.815 152.906 413.926 152.852C416.713 156.2 419.324 159.565 421.701 162.983C433.207 179.61 592.372 163.685 577.952 255.162Z" fill="white"/>
<path d="M438.775 146.736L438.751 146.731C428.427 148.303 420.069 150.345 414.948 152.427C414.601 152.559 414.279 152.698 413.956 152.833C413.951 152.858 413.929 152.852 413.929 152.852C416.716 156.2 419.326 159.565 421.704 162.983C433.209 179.61 592.374 163.685 577.955 255.162L577.982 255.143C580.129 251.361 582.026 247.734 583.732 244.191C631.979 143.48 500.171 137.318 438.775 146.736Z" fill="#E6F9FC"/>
</svg>
