<svg width="266" height="294" viewBox="0 0 266 294" fill="none" xmlns="http://www.w3.org/2000/svg">
<g style="mix-blend-mode:multiply" opacity="0.3">
<path d="M232.506 4.67188H35.9992C17.5013 4.67188 2.50586 16.197 2.50586 30.4141V263.648C2.50586 277.865 17.5013 289.39 35.9992 289.39H232.506C251.004 289.39 266 277.865 266 263.648V30.4141C266 16.197 251.004 4.67188 232.506 4.67188Z" fill="#040000"/>
<path d="M232.506 9.28223H35.9992C17.5013 9.28223 2.50586 20.8074 2.50586 35.0244V268.258C2.50586 282.475 17.5013 294 35.9992 294H232.506C251.004 294 266 282.475 266 268.258V35.0244C266 20.8074 251.004 9.28223 232.506 9.28223Z" fill="#040000"/>
<path d="M232.511 5.82446H35.9995C18.3299 5.82446 4.00586 16.8336 4.00586 30.4141V263.648C4.00586 277.228 18.3299 288.237 35.9995 288.237H232.511C250.18 288.237 264.504 277.228 264.504 263.648V30.4141C264.504 16.8336 250.18 5.82446 232.511 5.82446Z" fill="#040000"/>
<path d="M232.511 10.4316H35.9995C18.3299 10.4316 4.00586 21.4408 4.00586 35.0212V268.255C4.00586 281.835 18.3299 292.844 35.9995 292.844H232.511C250.18 292.844 264.504 281.835 264.504 268.255V35.0212C264.504 21.4408 250.18 10.4316 232.511 10.4316Z" fill="#040000"/>
<path d="M232.511 10.4316H35.9995C18.3299 10.4316 4.00586 21.4408 4.00586 35.0212V268.255C4.00586 281.835 18.3299 292.844 35.9995 292.844H232.511C250.18 292.844 264.504 281.835 264.504 268.255V35.0212C264.504 21.4408 250.18 10.4316 232.511 10.4316Z" fill="#040000"/>
<path opacity="0.06" d="M232.511 10.4316H35.9995C18.3299 10.4316 4.00586 21.4408 4.00586 35.0212V268.255C4.00586 281.835 18.3299 292.844 35.9995 292.844H232.511C250.18 292.844 264.504 281.835 264.504 268.255V35.0212C264.504 21.4408 250.18 10.4316 232.511 10.4316Z" fill="#040000"/>
<g style="mix-blend-mode:overlay" opacity="0.7">
<path d="M232.511 10.4316H35.9995C18.3299 10.4316 4.00586 21.4408 4.00586 35.0212V268.255C4.00586 281.835 18.3299 292.844 35.9995 292.844H232.511C250.18 292.844 264.504 281.835 264.504 268.255V35.0212C264.504 21.4408 250.18 10.4316 232.511 10.4316Z" fill="#040000"/>
</g>
<path d="M36.5 17.5366H233.007C239.306 17.5366 245.348 19.4599 249.802 22.8834C254.256 26.3069 256.759 30.9502 256.759 35.7918V269.022C256.759 273.864 254.256 278.507 249.802 281.93C245.348 285.354 239.306 287.277 233.007 287.277H36.5C30.2006 287.277 24.1592 285.354 19.7048 281.93C15.2505 278.507 12.748 273.864 12.748 269.022V35.7918C12.7475 33.3944 13.3615 31.0204 14.5549 28.8053C15.7484 26.5903 17.4979 24.5777 19.7036 22.8825C21.9093 21.1873 24.5279 19.8426 27.4099 18.9254C30.2918 18.0081 33.3807 17.5362 36.5 17.5366Z" fill="#040000"/>
<path d="M35.998 16.7693H232.505C238.804 16.7693 244.846 18.6926 249.3 22.1161C253.755 25.5396 256.257 30.1829 256.257 35.0245V268.255C256.257 273.096 253.755 277.74 249.3 281.163C244.846 284.587 238.804 286.51 232.505 286.51H35.998C29.6986 286.51 23.6572 284.587 19.2029 281.163C14.7485 277.74 12.2461 273.096 12.2461 268.255V35.0245C12.2455 32.627 12.8595 30.253 14.053 28.038C15.2464 25.823 16.996 23.8104 19.2017 22.1152C21.4073 20.4199 24.0259 19.0753 26.9079 18.158C29.7899 17.2408 32.8787 16.7689 35.998 16.7693Z" fill="#040000"/>
<path d="M232.507 17.344H36C23.2975 17.344 13 25.2584 13 35.0213V268.255C13 278.018 23.2975 285.932 36 285.932H232.507C245.21 285.932 255.507 278.018 255.507 268.255V35.0213C255.507 25.2584 245.21 17.344 232.507 17.344Z" fill="#040000"/>
<path d="M58.4904 4.60132L48.8827 12.7722C46.535 13.7353 46.0045 34.2828 48.8827 37.5769C104.638 47.8378 162.758 47.8378 218.513 37.5769C221.479 33.4032 220.602 12.9809 218.513 12.7722L208.905 4.60132H58.4904Z" fill="#040000"/>
<path d="M133.697 44.1746C105.661 44.1748 77.7347 41.4784 50.5696 36.1482C50.0015 34.6553 49.3164 30.8476 49.3164 24.5421C49.3164 18.2366 50.0057 13.6262 50.5445 12.5121L59.5507 4.23535H207.844L216.921 12.5828C218.174 15.5814 218.592 31.4576 216.779 36.1643C189.628 41.4863 161.717 44.1773 133.697 44.1746Z" fill="#040000"/>
<path d="M133.696 41.8757C106.729 41.8714 79.8717 39.2358 53.7683 34.0324C53.3171 32.3565 52.8284 28.8217 52.8242 23.4183C52.8242 17.4274 53.4049 13.2698 53.856 12.0112L62.0267 4.30591H205.365L213.57 12.0337C213.987 13.4784 214.526 17.7902 214.518 23.3766C214.518 28.735 214.029 32.2602 213.553 34.0388C187.472 39.2351 160.639 41.8684 133.696 41.8757Z" fill="#040000"/>
<g style="mix-blend-mode:multiply" opacity="0.1">
<path d="M58.4904 4.60132L48.8827 12.7722C46.535 13.7353 46.0045 34.2828 48.8827 37.5769C104.638 47.8378 162.758 47.8378 218.513 37.5769C221.479 33.4032 220.602 12.9809 218.513 12.7722L208.905 4.60132H58.4904Z" fill="#040000"/>
</g>
<g style="mix-blend-mode:screen">
<path d="M58.4904 4.60132L48.8827 12.7722C46.535 13.7353 46.0045 34.2828 48.8827 37.5769C104.638 47.8378 162.758 47.8378 218.513 37.5769C221.479 33.4032 220.602 12.9809 218.513 12.7722L208.905 4.60132H58.4904Z" fill="#040000"/>
</g>
<g style="mix-blend-mode:soft-light" opacity="0.5">
<path d="M58.4904 4.60132L48.8827 12.7722C46.535 13.7353 46.0045 34.2828 48.8827 37.5769C104.638 47.8378 162.758 47.8378 218.513 37.5769C221.479 33.4032 220.602 12.9809 218.513 12.7722L208.905 4.60132H58.4904Z" fill="#040000"/>
</g>
<path d="M57.0529 3.86597L47.4452 12.0336C45.0975 12.9968 44.567 33.5443 47.4452 36.8383C103.201 47.0992 161.32 47.0992 217.076 36.8383C220.041 32.6646 219.164 12.2423 217.076 12.0336L207.468 3.86597H57.0529Z" fill="#040000"/>
<path d="M132.26 43.436C104.223 43.4363 76.2972 40.7398 49.1321 35.4096C48.564 33.9167 47.8789 30.109 47.8789 23.8067C47.8789 17.5044 48.5682 12.8909 49.107 11.7768L58.1174 3.5H206.41L215.492 11.8474C216.745 14.8461 217.163 30.719 215.35 35.4289C188.195 40.7489 160.282 43.4388 132.26 43.436Z" fill="#040000"/>
<path d="M132.259 41.1372C105.292 41.1339 78.4346 38.4994 52.3311 33.297C51.8757 31.6179 51.3912 28.0863 51.3828 22.6797C51.3828 16.6921 51.9676 12.5344 52.4188 11.2759L60.5895 3.57056H203.928L212.128 11.2983C212.567 12.7431 213.089 17.0516 213.081 22.638C213.081 27.9996 212.592 31.5248 212.111 33.3002C186.032 38.4967 159.2 41.1301 132.259 41.1372Z" fill="#040000"/>
</g>
<path d="M230 0H33.4933C14.9955 0 0 11.6313 0 25.9793V261.361C0 275.709 14.9955 287.34 33.4933 287.34H230C248.498 287.34 263.494 275.709 263.494 261.361V25.9793C263.494 11.6313 248.498 0 230 0Z" fill="#005645"/>
<path d="M230 4.65259H33.4933C14.9955 4.65259 0 16.2839 0 30.6319V266.014C0 280.362 14.9955 291.993 33.4933 291.993H230C248.498 291.993 263.494 280.362 263.494 266.014V30.6319C263.494 16.2839 248.498 4.65259 230 4.65259Z" fill="#005645"/>
<path d="M230.005 1.16309H33.4937C15.8241 1.16309 1.5 12.2736 1.5 25.9792V261.361C1.5 275.067 15.8241 286.177 33.4937 286.177H230.005C247.674 286.177 261.999 275.067 261.999 261.361V25.9792C261.999 12.2736 247.674 1.16309 230.005 1.16309Z" fill="#AAD6AB"/>
<path d="M230.005 5.81274H33.4937C15.8241 5.81274 1.5 16.9233 1.5 30.6288V266.011C1.5 279.716 15.8241 290.827 33.4937 290.827H230.005C247.674 290.827 261.999 279.716 261.999 266.011V30.6288C261.999 16.9233 247.674 5.81274 230.005 5.81274Z" fill="#AAD6AB"/>
<path d="M230.005 5.81274H33.4937C15.8241 5.81274 1.5 16.9233 1.5 30.6288V266.011C1.5 279.716 15.8241 290.827 33.4937 290.827H230.005C247.674 290.827 261.999 279.716 261.999 266.011V30.6288C261.999 16.9233 247.674 5.81274 230.005 5.81274Z" fill="#60BEA0"/>
<path style="mix-blend-mode:overlay" opacity="0.7" d="M230.005 5.81274H33.4937C15.8241 5.81274 1.5 16.9233 1.5 30.6288V266.011C1.5 279.716 15.8241 290.827 33.4937 290.827H230.005C247.674 290.827 261.999 279.716 261.999 266.011V30.6288C261.999 16.9233 247.674 5.81274 230.005 5.81274Z" fill="url(#paint0_radial_3224_8510)"/>
<g style="mix-blend-mode:multiply" opacity="0.3">
<path d="M230.497 12.9832H33.9941C20.8763 12.9832 10.2422 21.2316 10.2422 31.4065V266.785C10.2422 276.96 20.8763 285.208 33.9941 285.208H230.497C243.615 285.208 254.249 276.96 254.249 266.785V31.4065C254.249 21.2316 243.615 12.9832 230.497 12.9832Z" fill="#070302"/>
</g>
<path d="M33.4941 12.2087H230.001C236.3 12.2087 242.342 14.1498 246.796 17.6048C251.251 21.0599 253.753 25.7459 253.753 30.6321V266.011C253.753 270.897 251.251 275.583 246.796 279.038C242.342 282.493 236.3 284.434 230.001 284.434H33.4941C27.1947 284.434 21.1533 282.493 16.699 279.038C12.2446 275.583 9.74219 270.897 9.74219 266.011V30.6321C9.74164 28.2126 10.3556 25.8167 11.5491 23.5813C12.7425 21.3459 14.4921 19.3147 16.6977 17.6039C18.9034 15.893 21.522 14.536 24.404 13.6103C27.286 12.6846 30.3748 12.2083 33.4941 12.2087Z" fill="#0C6255"/>
<path d="M229.999 13.4365H33.4922C20.7897 13.4365 10.4922 21.4238 10.4922 31.2766V266.659C10.4922 276.511 20.7897 284.499 33.4922 284.499H229.999C242.702 284.499 252.999 276.511 252.999 266.659V31.2766C252.999 21.4238 242.702 13.4365 229.999 13.4365Z" fill="#F4F0EC"/>
<path style="mix-blend-mode:overlay" opacity="0.7" d="M229.505 6.20508H32.9937C15.3241 6.20508 1 17.3156 1 31.0212V266.403C1 280.109 15.3241 291.219 32.9937 291.219H229.505C247.174 291.219 261.499 280.109 261.499 266.403V31.0212C261.499 17.3156 247.174 6.20508 229.505 6.20508Z" fill="url(#paint1_radial_3224_8510)"/>
<g filter="url(#filter0_d_3224_8510)">
<path d="M47.2961 6.17232L55.4979 0H205.279L215.318 6.88135C216.081 7.40441 216.65 8.16855 216.812 9.07951C217.73 14.2645 217.375 24.6047 216.881 31.5511C216.692 34.2058 214.687 36.3589 212.065 36.8147C132.903 50.5769 68.9142 41.4387 46.4978 35.2134C41.7865 34.0399 42.5595 18.7126 44.6058 10.1225C44.9865 8.52424 45.9832 7.16028 47.2961 6.17232Z" fill="#56A9FF"/>
</g>
<path d="M47.2961 6.17232L55.4979 0H205.279L215.318 6.88135C216.081 7.40441 216.65 8.16855 216.812 9.07951C217.73 14.2645 217.375 24.6047 216.881 31.5511C216.692 34.2058 214.687 36.3589 212.065 36.8147C132.903 50.5769 68.9142 41.4387 46.4978 35.2134C41.7865 34.0399 42.5595 18.7126 44.6058 10.1225C44.9865 8.52424 45.9832 7.16028 47.2961 6.17232Z" fill="#1F79D2" fill-opacity="0.2"/>
<g filter="url(#filter1_d_3224_8510)">
<path d="M56.2812 0.80957L50.1005 7.2856C48.6005 8.90461 46.3005 16.2711 49.1005 32.785C76.9339 38.9912 148.501 47.6798 212.101 32.785C213.267 27.3883 214.801 14.733 211.601 7.2856L204.281 0.80957" stroke="#FFDD3D" stroke-width="3" stroke-linecap="round" stroke-linejoin="round"/>
</g>
<g filter="url(#filter2_d_3224_8510)">
<path d="M47.2812 5.6665H213.781" stroke="#EEF9FF" stroke-linecap="round"/>
</g>
<defs>
<filter id="filter0_d_3224_8510" x="43" y="0" width="177.383" height="46" filterUnits="userSpaceOnUse" color-interpolation-filters="sRGB">
<feFlood flood-opacity="0" result="BackgroundImageFix"/>
<feColorMatrix in="SourceAlpha" type="matrix" values="0 0 0 0 0 0 0 0 0 0 0 0 0 0 0 0 0 0 127 0" result="hardAlpha"/>
<feOffset dx="2" dy="1"/>
<feGaussianBlur stdDeviation="0.5"/>
<feComposite in2="hardAlpha" operator="out"/>
<feColorMatrix type="matrix" values="0 0 0 0 0.434722 0 0 0 0 0.423854 0 0 0 0 0.423854 0 0 0 1 0"/>
<feBlend mode="normal" in2="BackgroundImageFix" result="effect1_dropShadow_3224_8510"/>
<feBlend mode="normal" in="SourceGraphic" in2="effect1_dropShadow_3224_8510" result="shape"/>
</filter>
<filter id="filter1_d_3224_8510" x="44.2812" y="-2.19043" width="172.73" height="47.1997" filterUnits="userSpaceOnUse" color-interpolation-filters="sRGB">
<feFlood flood-opacity="0" result="BackgroundImageFix"/>
<feColorMatrix in="SourceAlpha" type="matrix" values="0 0 0 0 0 0 0 0 0 0 0 0 0 0 0 0 0 0 127 0" result="hardAlpha"/>
<feOffset dy="0.5"/>
<feGaussianBlur stdDeviation="1"/>
<feComposite in2="hardAlpha" operator="out"/>
<feColorMatrix type="matrix" values="0 0 0 0 0 0 0 0 0 0.576471 0 0 0 0 1 0 0 0 1 0"/>
<feBlend mode="normal" in2="BackgroundImageFix" result="effect1_dropShadow_3224_8510"/>
<feBlend mode="normal" in="SourceGraphic" in2="effect1_dropShadow_3224_8510" result="shape"/>
</filter>
<filter id="filter2_d_3224_8510" x="44.7812" y="4.1665" width="171.5" height="5" filterUnits="userSpaceOnUse" color-interpolation-filters="sRGB">
<feFlood flood-opacity="0" result="BackgroundImageFix"/>
<feColorMatrix in="SourceAlpha" type="matrix" values="0 0 0 0 0 0 0 0 0 0 0 0 0 0 0 0 0 0 127 0" result="hardAlpha"/>
<feOffset dy="1"/>
<feGaussianBlur stdDeviation="1"/>
<feComposite in2="hardAlpha" operator="out"/>
<feColorMatrix type="matrix" values="0 0 0 0 0.729412 0 0 0 0 0.87451 0 0 0 0 1 0 0 0 1 0"/>
<feBlend mode="normal" in2="BackgroundImageFix" result="effect1_dropShadow_3224_8510"/>
<feBlend mode="normal" in="SourceGraphic" in2="effect1_dropShadow_3224_8510" result="shape"/>
</filter>
<radialGradient id="paint0_radial_3224_8510" cx="0" cy="0" r="1" gradientUnits="userSpaceOnUse" gradientTransform="translate(131.747 147.884) scale(253.61 202.616)">
<stop stop-color="white"/>
<stop offset="1" stop-color="#040000"/>
</radialGradient>
<radialGradient id="paint1_radial_3224_8510" cx="0" cy="0" r="1" gradientUnits="userSpaceOnUse" gradientTransform="translate(131.247 148.276) scale(253.61 202.616)">
<stop stop-color="white"/>
<stop offset="1" stop-color="#040000"/>
</radialGradient>
</defs>
</svg>
