<svg width="353" height="490" viewBox="0 0 353 490" fill="none" xmlns="http://www.w3.org/2000/svg">
<g style="mix-blend-mode:screen">
<path d="M318.304 66.5047C332.119 40.3494 309.413 40.8071 306.871 40.6982C301.882 40.502 312.803 16.875 287.682 16.875C223.241 7.65526 106.991 -5.33521 87.3232 2.31522C67.6551 9.96565 71.9565 27.2282 66.184 27.5115C63.2258 27.6641 51.4729 27.6859 48.5946 27.8167C9.85005 30.7809 36.7778 88.0829 36.7778 88.0829C36.4959 90.299 35.8292 92.3912 34.8334 94.1846C33.8376 95.9781 32.5414 97.4208 31.0532 98.3924C12.4725 110.271 0 132.155 0 156.937V421.105C0 458.551 28.2549 489.197 62.7941 489.197L172.936 486.428L289.233 489.197C323.772 489.197 349.997 458.551 349.997 421.105L352.027 156.937C352.027 133.724 341.17 113.127 324.7 100.812C304.552 99.4387 317.248 69.2946 318.304 66.5047Z" fill="url(#paint0_linear_3359_8513)"/>
<path d="M111.389 2.94211C151.365 2.94211 230.645 11.6595 287.378 19.7884H287.602C302.969 19.7884 303.081 28.3968 303.161 35.3053C303.161 38.5525 303.257 43.4778 306.807 43.6086H307.158C316.673 43.8483 319.391 47.466 320.175 49.6018C321.374 52.8926 320.175 58.1666 316.593 64.8572L316.497 65.0315V65.2277L316.305 65.7071C311.252 78.6524 310.037 89.0479 312.819 95.7602C314.802 100.533 318.607 103.214 324.156 103.758C340.274 116.072 349.933 135.947 349.933 156.978L347.902 421.136C347.902 457.705 322.141 486.363 289.281 486.363L172.904 483.574L62.7941 486.363C29.3263 486.363 2.11072 457.095 2.11072 421.136V156.978C2.11072 134.204 13.5118 112.737 31.8687 100.947C33.6626 99.7842 35.2251 98.0507 36.4245 95.8926C37.6239 93.7345 38.4251 91.2151 38.7606 88.5466L38.9045 87.4569L38.4728 86.498C38.3288 86.2147 25.2807 57.9705 31.3091 41.9087C33.8675 35.131 39.704 31.3389 48.6266 30.6633C50.0338 30.6633 53.6636 30.5544 57.1814 30.5108C60.6993 30.4672 64.7289 30.5108 66.264 30.3582C69.6699 30.1839 70.8532 26.4572 71.9885 22.8613C73.7634 17.2604 76.2099 9.5673 87.8189 5.05607C91.5927 3.59591 99.5239 2.87673 111.389 2.87673M111.389 0C99.9396 0.0653802 91.4328 0.762769 87.2433 2.37548C67.4952 10.0468 71.9565 27.2853 66.184 27.5687C63.2258 27.7212 51.4729 27.743 48.5946 27.8738C9.85005 30.8377 36.7778 88.1325 36.7778 88.1325C36.4959 90.3484 35.8292 92.4403 34.8334 94.2335C33.8376 96.0267 32.5414 97.4693 31.0532 98.4408C12.4725 110.318 0 132.199 0 156.978V421.114C0 458.555 28.2549 489.197 62.7941 489.197L172.936 486.429L289.233 489.197C323.772 489.197 349.997 458.555 349.997 421.114L352.027 156.978C352.027 133.768 341.17 113.173 324.7 100.86C304.552 99.3997 317.248 69.2594 318.304 66.4699C332.119 40.3178 309.413 40.7755 306.871 40.6665C301.882 40.4704 312.803 16.8463 287.682 16.8463C236.817 9.67627 153.923 0.0653802 111.389 0.0653802V0Z" fill="url(#paint1_linear_3359_8513)"/>
</g>
<path d="M286.661 107.088H63.8233C35.077 107.088 11.7734 138.833 11.7734 177.992V398.173C11.7734 437.333 35.077 469.078 63.8233 469.078H286.661C315.408 469.078 338.711 437.333 338.711 398.173V177.992C338.711 138.833 315.408 107.088 286.661 107.088Z" fill="url(#paint2_linear_3359_8513)"/>
<path d="M286.666 109.243H63.8275C35.9461 109.243 13.3438 140.033 13.3438 178.014V398.195C13.3438 436.176 35.9461 466.966 63.8275 466.966H286.666C314.547 466.966 337.149 436.176 337.149 398.195V178.014C337.149 140.033 314.547 109.243 286.666 109.243Z" fill="url(#paint3_linear_3359_8513)"/>
<path d="M286.662 119.213H63.8243C39.4116 119.213 19.6211 146.172 19.6211 179.428V399.609C19.6211 432.865 39.4116 459.825 63.8243 459.825H286.662C311.075 459.825 330.866 432.865 330.866 399.609V179.428C330.866 146.172 311.075 119.213 286.662 119.213Z" fill="#33C4ED"/>
<path style="mix-blend-mode:soft-light" d="M286.662 119.213H63.8243C39.4116 119.213 19.6211 146.172 19.6211 179.428V399.609C19.6211 432.865 39.4116 459.825 63.8243 459.825H286.662C311.075 459.825 330.866 432.865 330.866 399.609V179.428C330.866 146.172 311.075 119.213 286.662 119.213Z" fill="url(#paint4_radial_3359_8513)"/>
<path style="mix-blend-mode:soft-light" opacity="0.5" d="M286.662 119.213H63.8243C39.4116 119.213 19.6211 146.172 19.6211 179.428V399.609C19.6211 432.865 39.4116 459.825 63.8243 459.825H286.662C311.075 459.825 330.866 432.865 330.866 399.609V179.428C330.866 146.172 311.075 119.213 286.662 119.213Z" fill="url(#paint5_radial_3359_8513)"/>
<g filter="url(#filter0_d_3359_8513)">
<rect x="29.9648" y="135.889" width="289.827" height="308.013" rx="24" stroke="#5EDAF5" shape-rendering="crispEdges"/>
</g>
<g style="mix-blend-mode:screen" opacity="0.7">
<path opacity="0.03" d="M43.3207 138.489C42.146 139.739 41.0248 141.08 39.9624 142.504C38.9291 143.891 37.9413 145.361 37.0296 146.852C35.2762 149.749 33.715 152.852 32.3644 156.125C29.9841 162.025 28.2777 168.384 27.3042 174.984C26.9206 177.544 26.6668 180.138 26.5444 182.746C26.1645 190.55 27.1978 195.953 28.5199 196.802C29.8419 197.651 30.8449 195.436 32.562 191.544C33.5041 189.35 34.6134 186.638 35.9051 183.595C36.9688 181.132 38.1693 178.441 39.5369 175.687C40.5094 173.617 41.5732 171.671 42.7432 169.643C43.2447 168.773 43.7766 167.904 44.2628 167.035C45.1442 165.655 46.0711 164.275 47.0437 162.894C48.0162 161.549 49.0192 160.203 50.0829 158.899C51.1466 157.595 51.876 156.829 52.8181 155.794C59.9088 148.546 67.9116 143.124 76.4326 139.793C83.2099 136.874 87.7535 135.073 87.1913 132.237C86.9481 131.036 85.6717 129.877 83.6506 128.759L82.8604 128.366C82.1893 127.988 81.5047 127.656 80.809 127.372C80.0492 127.124 79.2894 126.896 78.3624 126.689C77.4355 126.482 76.5541 126.255 75.5816 126.151L73.3934 125.985H72.4968C67.6762 125.684 62.8507 126.417 58.1975 128.159C52.7902 130.243 47.7357 133.753 43.3207 138.489Z" fill="#080808"/>
<path opacity="0.06" d="M43.471 138.634C42.3161 139.897 41.222 141.201 40.1887 142.567C39.1672 143.919 38.2032 145.35 37.3014 146.852C35.5895 149.686 34.0641 152.72 32.7427 155.919C30.425 161.686 28.7601 167.898 27.804 174.342C27.4348 176.851 27.181 179.388 27.0442 181.939C26.6491 189.557 27.652 194.815 28.9437 195.643C30.2353 196.471 31.2839 194.277 32.925 190.489C33.8672 188.419 34.9461 185.707 36.2377 182.726C37.1951 180.304 38.4411 177.675 39.7176 174.984C40.6901 173.038 41.7386 171.051 42.8783 169.064C43.3798 168.194 43.8965 167.346 44.3979 166.497C45.2641 165.11 46.1758 163.723 47.1484 162.357C48.1209 160.991 49.0783 159.707 50.1876 158.444C51.2969 157.182 51.9351 156.374 52.862 155.401C59.8021 148.286 67.6337 142.948 75.975 139.648C82.6308 136.771 87.0832 134.991 86.5362 132.238C86.293 131.058 85.0925 129.919 83.0563 128.863L82.2813 128.491C81.6043 128.157 80.9144 127.873 80.2147 127.642C79.4853 127.414 78.6951 127.187 77.8289 127C76.9627 126.814 76.051 126.586 75.1088 126.483C74.425 126.483 73.726 126.338 72.9814 126.296H72.1152C67.4201 126.046 62.7249 126.786 58.1958 128.491C52.8487 130.531 47.8463 133.976 43.471 138.634Z" fill="#101010"/>
<path opacity="0.1" d="M43.6416 138.799C42.5019 140.021 41.423 141.304 40.4049 142.629C39.4125 143.944 38.4692 145.325 37.5784 146.769C35.8644 149.535 34.3385 152.507 33.0197 155.649C30.7236 161.265 29.0686 167.323 28.1114 173.617C27.7298 176.054 27.4708 178.523 27.3364 181.008C26.9261 188.439 27.9139 193.573 29.1751 194.401C30.4364 195.229 31.4697 193.076 33.0957 189.37C34.0074 187.3 35.0863 184.671 36.3476 181.753C37.3657 179.393 38.5358 176.826 39.8578 174.176C40.8152 172.293 41.8333 170.326 42.897 168.401C43.3833 167.552 43.8999 166.724 44.4166 165.896C45.2676 164.53 46.1641 163.184 47.1063 161.756C48.0484 160.328 49.0058 159.189 50.0391 157.947C51.0724 156.705 51.7562 155.877 52.668 154.946C59.4824 147.961 67.1689 142.715 75.3555 139.462C81.8745 136.626 86.2357 134.887 85.7039 132.196C85.4607 131.036 84.2906 129.939 82.2696 128.904C82.0265 128.801 81.7833 128.656 81.5098 128.552C80.8521 128.235 80.1825 127.966 79.5039 127.745C78.7745 127.517 77.9843 127.31 77.1486 127.124C76.3128 126.938 75.4162 126.731 74.4893 126.627C73.8207 126.627 73.1217 126.503 72.4074 126.462H71.5565C66.9398 126.257 62.3275 127.018 57.8802 128.718C52.7021 130.799 47.8675 134.222 43.6416 138.799Z" fill="#191919"/>
<path opacity="0.13" d="M43.7905 138.944C42.6886 140.123 41.6336 141.38 40.6297 142.712C39.6167 144.092 38.6897 145.472 37.8489 146.852C36.1869 149.568 34.7022 152.478 33.4117 155.546C31.1713 161.022 29.5475 166.925 28.5946 173.059C28.2172 175.42 27.9533 177.813 27.8044 180.221C27.3941 187.466 28.3363 192.455 29.5823 193.283C30.8284 194.111 31.8313 191.979 33.4269 188.377C34.3386 186.307 35.3872 183.782 36.6332 180.925C37.6362 178.606 38.791 176.102 40.0827 173.514C41.0248 171.672 42.0278 169.747 43.1219 167.842C43.6081 167.035 44.1096 166.207 44.6415 165.399C45.4772 164.075 46.3586 162.75 47.2856 161.446C48.2125 160.142 49.1546 158.92 50.1576 157.699C51.1605 156.478 51.8595 155.629 52.7409 154.78C59.4263 147.936 66.9623 142.789 74.9877 139.586C81.3851 136.771 85.6248 135.053 85.1385 132.444C84.9106 131.306 83.7405 130.25 81.765 129.256L80.9901 128.904C80.343 128.592 79.6835 128.329 79.0146 128.118C78.3004 127.911 77.495 127.704 76.72 127.538C75.945 127.373 75.0181 127.166 74.1063 127.062L72.0701 126.917H71.2343C66.7025 126.737 62.1772 127.505 57.8163 129.194C52.7228 131.18 47.9598 134.491 43.7905 138.944Z" fill="#212121"/>
<path opacity="0.16" d="M43.9409 139.089C42.8619 140.269 41.8134 141.49 40.9017 142.774C39.9899 144.057 39.0326 145.423 38.1816 146.789C36.5452 149.451 35.0857 152.305 33.8204 155.318C31.6319 160.64 30.0342 166.374 29.0793 172.334C28.7137 174.649 28.4549 176.992 28.3043 179.351C27.8788 186.41 28.8057 191.296 30.0062 192.082C31.2067 192.869 32.2248 190.84 33.79 187.3C34.7017 185.23 35.7199 182.808 36.9507 180.034C37.9385 177.757 39.0782 175.315 40.3546 172.789C41.2816 170.968 42.2693 169.105 43.3938 167.242C43.8649 166.455 44.3511 165.648 44.9134 164.861C45.7492 163.557 46.6001 162.253 47.5119 160.99C48.4236 159.727 49.3506 158.506 50.3383 157.326C51.3261 156.146 51.9947 155.38 52.8608 154.449C59.4098 147.753 66.7842 142.706 74.6366 139.544C80.9125 136.77 85.1065 135.094 84.5899 132.527C84.3619 131.45 83.2223 130.457 81.2772 129.442L80.5478 129.111C79.9097 128.815 79.2604 128.567 78.6027 128.366C77.9189 128.159 77.1591 127.973 76.3537 127.807C75.5483 127.641 74.5454 127.372 73.6488 127.372L71.6582 127.227H70.8528C66.4137 127.038 61.9798 127.785 57.7083 129.442C52.7083 131.428 48.0346 134.703 43.9409 139.089Z" fill="#292929"/>
<path opacity="0.19" d="M44.113 139.234C42.0354 141.476 40.1357 144.008 38.445 146.789C36.841 149.373 35.407 152.143 34.1597 155.069C32.0161 160.248 30.4442 165.828 29.4946 171.63C29.1348 173.883 28.876 176.165 28.7196 178.461C28.2789 185.334 29.1755 190.074 30.3608 190.881C31.546 191.689 32.549 189.66 34.0838 186.224C34.9651 184.154 35.9832 181.835 37.1229 179.103C38.0955 176.888 39.2048 174.507 40.466 172.023C41.3778 170.264 42.3503 168.442 43.4292 166.62C43.8851 165.834 44.3714 165.068 44.8728 164.281C45.6782 163.018 46.5292 161.756 47.4106 160.493C48.2919 159.23 49.2189 158.092 50.1914 156.912C51.1639 155.732 51.8174 155.028 52.6683 154.117C59.0678 147.562 66.271 142.606 73.9426 139.482C80.021 136.75 84.1846 135.094 83.668 132.609C83.4552 131.554 82.3307 130.539 80.4313 129.629L79.717 129.297C79.1384 129.029 78.55 128.801 77.9543 128.614C77.2705 128.407 76.5411 128.221 75.7509 128.076C74.9607 127.931 74.125 127.724 73.2436 127.641C72.6206 127.641 71.9671 127.641 71.2985 127.517H70.5083C66.1622 127.386 61.8269 128.161 57.6526 129.815C52.7387 131.746 48.1425 134.943 44.113 139.234Z" fill="#313131"/>
<path opacity="0.23" d="M44.2663 139.378C43.2178 140.517 42.23 141.697 41.2271 142.918C40.2242 144.139 39.4188 145.443 38.5982 146.768C37.0332 149.313 35.6301 152.034 34.4041 154.903C32.3159 159.94 30.7801 165.366 29.8454 171.008C29.4862 173.192 29.2274 175.405 29.0704 177.633C28.6297 184.319 29.4959 188.935 30.59 189.701C31.6841 190.467 32.7478 188.542 34.2522 185.188C35.1335 183.263 36.1213 180.883 37.2914 178.233C38.2639 176.163 39.3428 173.741 40.5889 171.319C41.4854 169.601 42.4428 167.821 43.4913 166.04C43.9472 165.274 44.4182 164.509 44.9045 163.763C45.7099 162.521 46.5305 161.279 47.4118 160.058C48.2932 158.837 49.1746 157.698 50.1167 156.56C51.0588 155.421 51.7123 154.717 52.548 153.806C58.8295 147.391 65.8923 142.535 73.412 139.461C79.4904 136.77 83.4413 135.135 82.9398 132.733C82.7271 131.698 81.633 130.663 79.7487 129.856C79.536 129.732 79.2928 129.628 79.0497 129.525C78.5026 129.297 77.8644 129.028 77.1958 128.842C76.5272 128.655 75.813 128.49 75.038 128.345C74.263 128.2 73.5184 128.014 72.5914 127.931L70.6919 127.827H69.917C65.6662 127.734 61.4294 128.516 57.3499 130.146C52.6023 132.078 48.1639 135.21 44.2663 139.378Z" fill="#3A3A3A"/>
<path opacity="0.26" d="M44.4342 139.544C43.4009 140.641 42.4284 141.8 41.5014 143.001C40.5745 144.202 39.7387 145.464 38.9333 146.748C37.3891 149.225 36.0109 151.885 34.8152 154.697C32.7406 159.573 31.2046 164.839 30.2565 170.326C29.8894 172.452 29.6305 174.61 29.4815 176.784C29.0104 183.284 29.8462 187.776 31.0011 188.521C32.156 189.267 33.1133 187.383 34.6025 184.133C35.4535 182.249 36.4412 179.993 37.6417 177.343C38.599 175.273 39.6627 172.934 40.8784 170.595C41.7598 168.918 42.7019 167.158 43.7352 165.44C44.1759 164.695 44.647 163.95 45.1333 163.205C45.9082 162.004 46.6528 160.783 47.5798 159.603C48.5067 158.423 49.3121 157.284 50.2391 156.187C51.166 155.09 51.7587 154.366 52.6096 153.496C58.7661 147.225 65.677 142.462 73.0329 139.42C78.9137 136.791 82.8343 135.28 82.348 132.837C82.1353 131.823 81.0564 130.891 79.2177 130.042L78.5338 129.732C77.9868 129.525 77.3638 129.256 76.7255 129.09C76.0873 128.925 75.3579 128.738 74.6133 128.593C73.8687 128.448 73.0937 128.304 72.2124 128.241C71.6197 128.241 70.9967 128.241 70.3585 128.138H69.5987C65.4432 128.057 61.303 128.839 57.3204 130.456C52.6442 132.356 48.2726 135.439 44.4342 139.544Z" fill="#424242"/>
<path opacity="0.29" d="M44.5216 139.793C43.5283 140.851 42.5748 141.977 41.6647 143.167C40.7682 144.347 39.9324 145.589 39.1422 146.831C37.6409 149.268 36.2842 151.863 35.0849 154.593C33.0897 159.337 31.6055 164.447 30.6781 169.767C30.3205 171.812 30.0616 173.886 29.9031 175.977C29.432 182.187 30.2374 186.658 31.3163 187.404C32.3952 188.149 33.3982 186.307 34.857 183.119C35.708 181.276 36.6805 178.979 37.8202 176.515C38.7471 174.445 39.7956 172.21 40.9961 169.912C41.8623 168.276 42.774 166.579 43.7922 164.902C44.2379 164.157 44.6938 163.467 45.1598 162.832C45.9196 161.652 46.6794 160.472 47.5608 159.292C48.4421 158.112 49.2627 157.057 50.1744 155.96C51.0862 154.862 51.694 154.2 52.4994 153.351C58.5227 147.143 65.2954 142.414 72.5124 139.379C78.2717 136.791 82.1162 135.238 81.63 132.92C81.4324 131.947 80.3687 131.057 78.5908 130.25L77.9526 129.96C77.3696 129.699 76.7759 129.485 76.1746 129.318C75.5364 129.152 74.8526 129.008 74.108 128.863C73.3634 128.718 72.5884 128.594 71.7678 128.531H69.9595H69.2149C65.1557 128.483 61.1142 129.264 57.2253 130.85C52.6167 132.72 48.3072 135.753 44.5216 139.793Z" fill="#4A4A4A"/>
<path opacity="0.32" d="M44.734 139.793C43.7615 140.849 42.8194 141.863 41.938 143.084C41.0566 144.306 40.2512 145.444 39.4763 146.686C37.991 149.058 36.6589 151.599 35.4949 154.283C33.5452 158.884 32.0869 163.84 31.1641 169.001C30.8145 170.971 30.5556 172.97 30.3891 174.984C29.9028 181.194 30.693 185.334 31.7415 186.058C32.7901 186.783 33.7778 185.003 35.2062 181.918C36.042 180.117 36.9993 177.923 38.1238 175.46C39.0356 173.39 40.0689 171.32 41.239 169.043C42.1051 167.449 43.0017 165.793 43.9894 164.137C44.4149 163.433 44.8708 162.729 45.3267 162.067C46.0865 160.928 46.8463 159.769 47.682 158.63C48.5178 157.492 49.3536 156.436 50.2502 155.38C51.1467 154.325 51.7697 153.642 52.5143 152.813C58.3966 146.824 64.9916 142.259 72.0107 139.317C77.6484 136.75 81.4017 135.177 80.9307 132.982C80.7331 132.03 79.6846 131.181 77.8915 130.395L77.2381 130.126C76.6641 129.882 76.0807 129.681 75.4905 129.525C74.8726 129.36 74.204 129.215 73.4847 129.091C72.7705 128.967 71.9651 128.822 71.1901 128.78C70.6329 128.78 70.0403 128.78 69.4122 128.78H68.698C64.7333 128.749 60.788 129.537 56.9971 131.119C52.553 132.96 48.3959 135.9 44.734 139.793Z" fill="#525252"/>
<path opacity="0.35" d="M44.9022 139.979C43.9398 141.014 43.0281 142.091 42.167 143.208C41.316 144.326 40.5106 145.506 39.7508 146.707C38.3011 149.011 36.9948 151.476 35.8455 154.076C33.9488 158.531 32.5167 163.325 31.5906 168.318C31.2567 170.256 31.0081 172.219 30.846 174.197C30.3446 180.159 31.1044 184.237 32.1225 184.961C33.1406 185.686 34.1283 183.947 35.5416 180.945C36.3621 179.186 37.3043 177.033 38.3984 174.735C39.2949 172.665 40.3131 170.595 41.4376 168.525C42.2733 166.973 43.1547 165.358 44.1272 163.743C44.5527 163.067 44.9934 162.377 45.4493 161.673C46.1787 160.555 46.9689 159.417 47.7439 158.32C48.5189 157.223 49.385 156.25 50.2512 155.132C51.1174 154.014 51.7708 153.455 52.485 152.648C58.228 146.784 64.6687 142.309 71.5255 139.42C77.0264 136.895 80.643 135.28 80.2327 133.21C80.0352 132.299 79.017 131.471 77.1935 130.726L76.5553 130.457C76.0538 130.271 75.4764 130.043 74.8686 129.898C74.2607 129.753 73.5921 129.608 72.8931 129.484C72.1941 129.36 71.4495 129.236 70.6745 129.194C69.8995 129.153 69.5348 129.194 68.927 129.194H68.2431C64.3954 129.187 60.5688 129.969 56.8918 131.513C52.5497 133.315 48.4863 136.185 44.9022 139.979Z" fill="#5A5A5A"/>
<path opacity="0.39" d="M45.0521 140.145C44.1252 141.138 43.2286 142.215 42.3776 143.271C41.5267 144.326 40.7669 145.527 39.9615 146.686C38.546 148.937 37.2654 151.339 36.1321 153.869C34.2801 158.181 32.8738 162.82 31.9533 167.656C31.6072 169.529 31.3484 171.431 31.1783 173.348C30.6768 179.103 31.4062 183.078 32.3939 183.699C33.3817 184.32 34.3694 182.705 35.737 179.786C36.5424 178.068 37.4694 175.998 38.5483 173.576C39.4448 171.651 40.4326 169.602 41.5875 167.366C42.4232 165.855 43.2894 164.282 44.2315 162.729C44.657 162.046 45.0825 161.384 45.5232 160.659C46.2526 159.562 47.0428 158.465 47.7874 157.388C48.532 156.312 49.307 155.318 50.2339 154.304C51.1609 153.29 51.6623 152.648 52.4069 151.861C58.0237 146.156 64.3067 141.782 70.9915 138.924C76.3709 136.439 79.9419 134.949 79.5012 132.879C79.3037 131.989 78.3008 131.182 76.5988 130.478L75.9758 130.229C75.4743 130.043 74.9121 129.836 74.3194 129.691C73.7268 129.546 73.0886 129.422 72.4047 129.318C71.7209 129.215 71.0219 129.443 70.2621 129.443C69.5023 129.443 69.1528 129.443 68.5602 129.443H67.8916C64.1126 129.48 60.3587 130.282 56.753 131.823C52.512 133.599 48.5462 136.42 45.0521 140.145Z" fill="#636363"/>
<path opacity="0.42" d="M45.2068 140.29C44.2951 141.263 43.4289 142.361 42.6083 143.354C41.7877 144.348 41.0887 145.548 40.2985 146.666C38.9089 148.86 37.6488 151.199 36.5299 153.663C34.7315 157.832 33.3612 162.318 32.4574 166.994C32.1149 168.8 31.851 170.632 31.6673 172.48C31.1506 178.069 31.8496 181.898 32.8221 182.582C33.7947 183.265 34.752 181.65 36.0893 178.814C36.925 177.055 37.8064 175.109 38.8549 172.914C39.7363 171.051 40.7088 169.064 41.8181 166.994C42.6235 165.524 43.4745 163.993 44.4014 162.481C44.8117 161.819 45.2372 161.177 45.6779 160.411C46.3769 159.356 47.1063 158.341 47.8813 157.244C48.6563 156.147 49.4009 155.174 50.2822 154.243C51.1636 153.311 51.6803 152.628 52.3945 151.862C57.8807 146.289 64.0136 142.007 70.5384 139.193C75.781 136.751 79.2608 135.281 78.8353 133.273C78.6378 132.424 77.6653 131.658 75.9937 130.996L75.3859 130.748C74.8996 130.582 74.3526 130.375 73.7751 130.251C73.1977 130.127 72.5594 129.982 71.8908 129.899C71.2222 129.816 70.508 129.692 69.7786 129.65H67.4688C63.8059 129.732 60.1712 130.541 56.6797 132.052C52.523 133.836 48.6365 136.627 45.2068 140.29Z" fill="#6B6B6B"/>
<path opacity="0.45" d="M45.3751 140.435C44.4735 141.387 43.6225 142.38 42.8222 143.415C42.032 144.471 41.3026 145.486 40.5732 146.665C39.2266 148.793 38.0071 151.063 36.9262 153.455C35.1751 157.475 33.8307 161.8 32.9296 166.31C32.5877 168.06 32.3238 169.837 32.1395 171.63C31.6076 177.012 32.2914 180.718 33.2184 181.401C34.1453 182.084 35.1178 180.49 36.4399 177.758C37.2149 176.122 38.1114 174.156 39.1448 171.961C40.0109 170.161 40.9683 168.215 42.0472 166.207C42.8526 164.778 43.6883 163.288 44.6001 161.818C44.9952 161.177 45.4055 160.535 45.831 159.914C46.53 158.879 47.2442 157.844 47.9888 156.829C48.7334 155.815 49.5084 154.759 50.3289 153.89C51.1495 153.021 51.6966 152.337 52.4108 151.571C57.7562 146.127 63.7284 141.93 70.0836 139.151C75.2046 136.75 78.6085 135.322 78.183 133.376C78.0007 132.548 77.0281 131.823 75.4022 131.181L74.8095 130.954C74.3233 130.788 73.7914 130.602 73.29 130.478C72.7885 130.353 72.1047 130.25 71.4664 130.167C70.8282 130.084 70.114 129.96 69.3998 129.939H67.0444C63.457 130.035 59.8991 130.844 56.4833 132.341C52.4562 134.116 48.6943 136.857 45.3751 140.435Z" fill="#737373"/>
<path opacity="0.48" d="M45.5254 140.58C44.6593 141.511 43.8235 142.484 43.0333 143.499C42.2431 144.513 41.5137 145.569 40.8299 146.645C39.5063 148.724 38.3023 150.938 37.2285 153.269C35.5262 157.156 34.208 161.333 33.3079 165.69C32.9641 167.383 32.7002 169.105 32.5177 170.844C31.9859 176.061 32.6241 179.642 33.5359 180.283C34.4476 180.925 35.3898 179.435 36.6814 176.764C37.4564 175.191 38.3378 173.266 39.3407 171.154C40.1917 169.395 41.1338 167.491 42.1975 165.545C42.9725 164.178 43.7931 162.729 44.6897 161.301C45.0695 160.68 45.4798 160.059 45.8901 159.438C46.5739 158.444 47.273 157.368 48.0024 156.436C48.7318 155.505 49.5219 154.532 50.2969 153.6C51.0719 152.669 51.6342 152.069 52.318 151.344C57.5388 146.054 63.3598 141.964 69.5501 139.234C74.5344 136.874 77.8471 135.467 77.4216 133.604C77.2545 132.796 76.3123 132.113 74.7016 131.534L74.1241 131.306C73.6682 131.161 73.1516 130.975 72.6045 130.871C72.0575 130.768 71.4648 130.644 70.8266 130.561C70.1884 130.478 69.5198 130.395 68.8207 130.375H66.6173C63.1244 130.489 59.663 131.305 56.3449 132.796C52.4305 134.504 48.7679 137.139 45.5254 140.58Z" fill="#7B7B7B"/>
<path opacity="0.52" d="M45.6925 140.724C44.8415 141.635 44.0362 142.588 43.2612 143.56C42.4862 144.533 41.7416 145.631 41.1034 146.624C39.8104 148.646 38.6319 150.798 37.5779 153.062C35.9199 156.791 34.6274 160.799 33.7333 164.985C33.4004 166.604 33.1416 168.25 32.9584 169.912C32.3657 174.984 33.0191 178.379 33.8853 179.124C34.7515 179.869 35.7088 178.296 36.9245 175.729C37.6843 174.176 38.5504 172.334 39.5534 170.285C40.374 168.567 41.3009 166.724 42.3342 164.841C43.1092 163.495 43.8538 162.087 44.7808 160.7C45.1607 160.1 45.5558 159.521 45.966 158.92C46.6347 157.947 47.3033 156.974 48.0327 156.001C48.7621 155.029 49.5523 154.138 50.2665 153.228C50.9807 152.317 51.5581 151.758 52.2419 151.033C57.3068 145.891 62.9525 141.905 68.9574 139.234C73.8201 136.895 77.0417 135.529 76.5554 133.728C76.3882 132.941 75.4613 132.299 73.8961 131.658L73.501 131.513C73.0451 131.368 72.5437 131.202 71.9814 131.099L70.3555 130.726C69.7324 130.726 69.079 130.581 68.3952 130.561H66.8756H66.283C62.8824 130.715 59.5154 131.531 56.2841 132.983C52.4495 134.703 48.8651 137.323 45.6925 140.724Z" fill="#848484"/>
<path opacity="0.55" d="M45.8454 140.891C45.0248 141.76 44.2347 142.691 43.4749 143.623C42.7151 144.555 42.0464 145.693 41.3778 146.604C38.0329 151.693 35.5711 157.742 34.175 164.303C33.8326 165.857 33.5686 167.44 33.3848 169.043C32.8073 173.887 33.3848 177.199 34.2509 177.841C35.1171 178.483 36.0441 177.054 37.2901 174.57C38.0347 173.059 38.8857 171.258 39.8582 169.271C40.6636 167.615 41.5754 165.835 42.5935 164.013C43.3533 162.709 44.1131 161.343 44.9793 159.997C45.344 159.417 45.739 158.838 46.1341 158.258C46.7876 157.327 47.4562 156.374 48.1552 155.443C48.8542 154.511 49.5836 153.642 50.3434 152.752C51.1032 151.862 51.6047 151.303 52.2581 150.682C57.2086 145.682 62.7128 141.79 68.5633 139.152C73.2892 136.854 76.4348 135.508 76.0397 133.77C75.8725 133.024 74.976 132.403 73.4412 131.886L72.8941 131.7C72.4534 131.555 71.952 131.41 71.3745 131.306C70.7971 131.203 70.2956 131.12 69.6878 131.058C69.08 130.996 68.4569 130.934 67.7883 130.934C67.1197 130.934 66.8158 130.934 66.2687 130.934H65.7976C62.4922 131.1 59.2217 131.915 56.0875 133.356C52.3787 135.04 48.9131 137.589 45.8454 140.891Z" fill="#8C8C8C"/>
<path opacity="0.58" d="M46.0423 141.035C45.2521 141.884 44.5227 142.795 43.7477 143.705C42.9728 144.616 42.3497 145.61 41.6963 146.603C40.4588 148.502 39.3261 150.522 38.3076 152.648C36.7502 156.086 35.5196 159.779 34.6454 163.64C34.3166 165.135 34.0528 166.656 33.8552 168.194C33.2778 172.831 33.8552 176.019 34.6454 176.64C35.4356 177.261 36.4081 175.895 37.6846 173.493C38.414 172.044 39.2042 170.305 40.2071 168.38C41.21 166.455 41.8938 165.048 42.8816 163.267C43.6262 162.025 44.4012 160.7 45.2217 159.396C45.5865 158.83 45.9663 158.272 46.3614 157.72C46.9845 156.809 47.6379 155.877 48.3217 154.966C49.0055 154.056 49.7197 153.228 50.4491 152.379C51.1785 151.53 51.68 150.971 52.3182 150.309C57.1387 145.447 62.4929 141.653 68.1828 139.068C72.7415 136.812 75.7807 135.508 75.4464 133.831C75.2792 133.127 74.3979 132.527 72.9087 132.03L72.3768 131.865C71.9361 131.74 71.4651 131.596 70.9636 131.513L69.3224 131.285C68.656 131.193 67.9864 131.152 67.3166 131.161H65.797H65.2499C58.2526 131.672 51.5428 135.121 46.0423 141.035Z" fill="#949494"/>
<path opacity="0.61" d="M46.167 141.18C45.3769 142.008 44.6474 142.877 43.918 143.767C43.1886 144.658 42.5656 145.63 41.9274 146.583C40.7204 148.423 39.6132 150.381 38.6147 152.441C37.1043 155.738 35.8997 159.277 35.0284 162.977C34.6989 164.403 34.435 165.855 34.2383 167.325C33.6456 171.796 34.2383 174.86 34.9677 175.46C35.6971 176.06 36.6848 174.756 37.8701 172.438C38.5843 171.03 39.3897 169.333 40.3318 167.49C41.274 165.648 41.9882 164.261 43.0063 162.563C43.7357 161.363 44.5259 160.079 45.2857 158.817C45.6352 158.258 46.0151 157.72 46.395 157.181C47.018 156.312 47.641 155.422 48.3097 154.532C48.9783 153.642 49.6773 152.834 50.3915 152.006C51.1057 151.178 51.592 150.64 52.215 149.936C56.8979 145.215 62.091 141.513 67.6085 138.965C72.076 136.75 75.0393 135.467 74.6746 133.873C74.5226 133.189 73.6564 132.631 72.1824 132.175L71.6658 132.01C71.2555 131.885 70.7844 131.761 70.2981 131.678C69.8119 131.596 69.2648 131.533 68.7785 131.492C68.2923 131.451 67.6085 131.492 66.9854 131.492C66.3624 131.492 66.0737 131.492 65.5874 131.492H65.0555C58.2242 132.009 51.6738 135.369 46.2886 141.118L46.167 141.18Z" fill="#9C9C9C"/>
<path opacity="0.65" d="M46.3163 141.325C45.5565 142.132 44.7967 142.981 44.1433 143.85C43.4899 144.72 42.8213 145.651 42.1982 146.562C41.0177 148.334 39.9358 150.223 38.9615 152.213C37.4788 155.364 36.2846 158.749 35.4057 162.294C35.0782 163.65 34.8142 165.033 34.6155 166.435C34.0076 170.699 34.5243 173.638 35.2689 174.239C36.0135 174.839 36.9556 173.556 38.1105 171.341C38.8247 169.954 39.6301 168.339 40.5267 166.559C41.4232 164.779 42.1526 163.433 43.0948 161.777C43.809 160.597 44.5384 159.376 45.3286 158.154C45.6781 157.616 46.0428 157.099 46.4075 156.581C47.0153 155.732 47.6384 154.863 48.2766 154.014C48.9148 153.166 49.6138 152.379 50.3128 151.572C51.0118 150.764 51.4829 150.247 52.0756 149.626C56.6271 145.034 61.6704 141.424 67.0283 138.924C71.3592 136.75 74.2464 135.508 73.8817 133.976C73.7297 133.314 72.8788 132.796 71.4503 132.362L70.9489 132.217C70.5538 132.217 70.0979 131.989 69.6116 131.927L68.092 131.761C67.545 131.761 66.9523 131.761 66.3597 131.761C65.7671 131.761 65.4632 131.761 64.9921 131.761H64.4754C57.8326 132.317 51.4718 135.617 46.2403 141.221L46.3163 141.325Z" fill="#A5A5A5"/>
<path opacity="0.68" d="M46.47 141.47C45.7406 142.277 45.0416 143.084 44.3578 143.912C43.674 144.74 43.0814 145.672 42.4735 146.541C41.3301 148.27 40.2741 150.103 39.3128 152.027C37.8941 155.033 36.7413 158.257 35.8785 161.632C35.563 162.937 35.2992 164.263 35.0883 165.607C34.4805 169.747 34.9667 172.5 35.6809 173.079C36.3952 173.659 37.3373 172.458 38.4466 170.306C39.1456 168.981 39.9662 167.407 40.8172 165.689C41.6681 163.971 42.4127 162.688 43.3397 161.073C44.0387 159.955 44.7377 158.755 45.5127 157.595L46.5764 156.064C47.169 155.256 47.7617 154.408 48.3999 153.58C49.0381 152.752 49.6916 152.006 50.3602 151.22C51.0288 150.433 51.4999 149.957 52.0925 149.336C56.5118 144.917 61.3935 141.428 66.5742 138.986C70.7835 136.916 73.5795 135.632 73.23 134.183C73.0781 133.541 72.2575 133.045 70.8595 132.672L70.358 132.465C69.9629 132.465 69.5222 132.279 69.0663 132.217C68.6105 132.155 68.0938 132.092 67.5468 132.072C66.9997 132.051 66.4526 132.072 65.8752 132.072H64.5532H64.0669C57.6438 132.715 51.507 135.951 46.4396 141.366L46.47 141.47Z" fill="#ADADAD"/>
<path opacity="0.71" d="M46.6339 141.635C45.9197 142.401 45.2359 143.188 44.5672 143.995C43.8986 144.803 43.3364 145.672 42.7437 146.541C41.6387 148.199 40.6229 149.963 39.7046 151.82C38.3344 154.684 37.2126 157.754 36.3615 160.97C36.0333 162.207 35.7642 163.473 35.5561 164.758C34.933 168.65 35.3889 171.341 36.0879 171.9C36.7869 172.459 37.6987 171.299 38.7928 169.25C39.4766 167.966 40.2364 166.455 41.1026 164.799C41.9687 163.143 42.6222 161.881 43.5795 160.349C44.2481 159.272 44.9471 158.113 45.6917 156.975L46.7251 155.525C47.3025 154.739 47.8952 153.911 48.503 153.124C49.1108 152.338 49.7642 151.592 50.4177 150.847C51.0711 150.102 51.527 149.605 52.0892 149.026C56.3725 144.728 61.0989 141.317 66.115 138.903C70.2027 136.833 72.9076 135.591 72.5733 134.204C72.4213 133.604 71.616 133.148 70.2635 132.796L69.7924 132.672L68.5312 132.444C68.0753 132.444 67.589 132.341 67.0116 132.32C66.4341 132.3 65.9479 132.32 65.3856 132.32L64.1092 132.444H63.6381C57.4257 133.162 51.5037 136.343 46.6035 141.594L46.6339 141.635Z" fill="#B5B5B5"/>
<path opacity="0.74" d="M46.7888 141.863C46.105 142.608 45.4364 143.374 44.7982 144.14C44.1599 144.906 43.5825 145.775 43.005 146.603C41.9133 148.211 40.8981 149.912 39.9659 151.696C38.6533 154.417 37.5628 157.325 36.7139 160.369C36.3958 161.548 36.1269 162.751 35.9085 163.971C35.2703 167.697 35.711 170.181 36.3644 170.782C37.0178 171.382 37.884 170.243 39.0085 168.277L41.2879 163.992C42.0021 162.626 42.8075 161.176 43.6889 159.707C44.3575 158.672 45.0261 157.637 45.7707 156.457C46.0898 155.981 46.4241 155.525 46.7736 155.049C47.1231 154.573 47.8981 153.517 48.4908 152.751C49.0834 151.985 49.7216 151.282 50.3599 150.557C50.9981 149.833 51.4236 149.357 51.9706 148.777C56.124 144.617 60.7005 141.305 65.5558 138.944C69.5067 136.874 72.1204 135.715 71.8013 134.39C71.6493 133.81 70.8743 133.396 69.5371 133.086H69.0812C68.7165 133.086 68.3062 132.92 67.8807 132.879H66.4675C65.966 132.879 65.4494 132.879 64.9479 132.879L63.7171 133.024H63.2612C57.2606 133.751 51.5413 136.82 46.7888 141.863Z" fill="#BDBDBD"/>
<path opacity="0.77" d="M46.9588 141.863C46.2902 142.587 45.6368 143.333 45.0138 144.057C44.3907 144.782 43.8437 145.651 43.2814 146.438C42.2333 147.992 41.2539 149.631 40.3486 151.344C39.077 153.942 38.0124 156.718 37.1727 159.624C36.8584 160.732 36.5945 161.866 36.3825 163.019C35.7291 166.559 36.1242 168.981 36.7624 169.519C37.4006 170.057 38.282 169.001 39.3305 167.138L41.5643 162.998C42.2785 161.694 43.0839 160.307 43.9197 158.858C44.5731 157.864 45.2265 156.788 45.9407 155.753C46.2446 155.298 46.5789 154.842 46.9133 154.407C47.2476 153.973 48.0074 152.917 48.5848 152.172L50.4083 150.102C50.925 149.522 51.4416 148.942 51.9279 148.404C55.9427 144.382 60.3586 141.162 65.042 138.841C68.8713 136.771 71.3939 135.673 71.1203 134.431C70.9836 133.893 70.2086 133.479 68.9169 133.21H68.4762C68.1267 133.21 67.7316 133.065 67.3062 133.024C66.8807 132.982 66.4248 133.024 65.9385 133.024C65.4523 133.024 64.966 133.024 64.4189 133.024L63.2337 133.189H62.793C57.0228 134.003 51.5364 137.009 46.9588 141.863Z" fill="#C5C5C5"/>
<path opacity="0.81" d="M47.1038 142.07C46.4504 142.774 45.8273 143.478 45.2347 144.14C44.642 144.803 44.095 145.672 43.5479 146.417C42.5257 147.91 41.5717 149.486 40.6911 151.137C39.487 153.577 38.4687 156.178 37.6519 158.9C37.341 159.947 37.0771 161.018 36.8617 162.108C36.1931 165.462 36.573 167.76 37.1657 168.319C37.7583 168.878 38.6852 167.842 39.6882 166.042L41.8612 162.088C42.5602 160.825 43.3808 159.5 44.1558 158.134C44.794 157.182 45.4322 156.064 46.1312 155.153L47.0734 153.849C47.6204 153.166 48.1523 152.421 48.6993 151.779L50.4621 149.709C50.9635 149.15 51.465 148.591 51.9817 148.053C55.868 144.172 60.1338 141.05 64.655 138.779C68.3476 136.709 70.7334 135.695 70.4751 134.515C70.3535 133.997 69.6089 133.625 68.3476 133.397H67.9222C67.5727 133.397 67.1928 133.273 66.7825 133.252H65.4756H63.956L62.7556 133.376H62.3453C59.7974 133.78 57.2993 134.636 54.9145 135.922C52.1018 137.433 49.4695 139.505 47.1038 142.07Z" fill="#CECECE"/>
<path opacity="0.84" d="M47.2568 142.235C46.6337 142.898 46.0411 143.581 45.4485 144.305C44.8558 145.03 44.3543 145.775 43.8225 146.5C42.8268 147.937 41.8981 149.458 41.0416 151.054C39.8585 153.336 38.8407 155.769 38.0025 158.32C37.7016 159.308 37.4379 160.317 37.2123 161.342C36.5285 164.509 36.878 166.683 37.4554 167.179C38.0329 167.676 38.975 166.745 39.9019 165.109L42.0294 161.321C42.7132 160.121 43.4578 158.837 44.2784 157.533C44.9014 156.622 45.5244 155.629 46.193 154.676C46.4818 154.242 46.8009 153.848 47.12 153.434C47.4391 153.02 48.1533 152.068 48.6396 151.364C49.1259 150.66 49.7641 150.06 50.3415 149.398L51.8611 147.824C55.6008 144.099 59.6892 141.07 64.0178 138.82C67.5889 136.874 69.9442 135.797 69.6403 134.68C69.5188 134.204 68.7894 133.872 67.5737 133.665L67.3154 133.583H66.2212C65.8262 133.583 65.4007 133.583 64.9448 133.583C64.4777 133.577 64.0107 133.612 63.5468 133.686L62.4375 133.872H62.0424C59.5919 134.315 57.1923 135.178 54.9003 136.439C52.1588 137.854 49.5837 139.806 47.2568 142.235Z" fill="#D6D6D6"/>
<path opacity="0.87" d="M47.4264 142.381C46.8186 143.023 46.2411 143.685 45.6789 144.451C45.1166 145.217 44.6152 145.859 44.1593 146.521C43.1893 147.894 42.281 149.346 41.4392 150.868C40.2897 152.986 39.2875 155.245 38.4456 157.616C38.1361 158.551 37.8722 159.512 37.6554 160.494C36.9716 163.475 37.2907 165.503 37.8226 166C38.3544 166.497 39.2662 165.607 40.2083 163.93L42.2902 160.308C42.9588 159.148 43.6882 157.927 44.4784 156.664C45.0862 155.816 45.6941 154.863 46.3475 153.952C46.6362 153.538 46.9401 153.145 47.2441 152.752L48.7636 150.682C49.2955 150.061 49.8577 149.44 50.42 148.819L51.8332 147.287C55.4559 143.703 59.4042 140.774 63.5796 138.572C67.0291 136.668 69.2933 135.633 69.0046 134.577C68.883 134.121 68.184 133.811 66.9835 133.666H66.6036H65.5399H64.2787C63.8532 133.666 63.3973 133.666 62.9262 133.79C62.4552 133.914 62.2272 133.914 61.8625 133.997H61.4978C59.1391 134.451 56.8316 135.307 54.6293 136.543C52.0385 138.018 49.6136 139.983 47.4264 142.381Z" fill="#DEDEDE"/>
<path opacity="0.9" d="M47.5563 142.526C46.9789 143.147 46.4166 143.788 45.8696 144.409L44.35 146.479C43.4144 147.793 42.5317 149.176 41.7059 150.62C40.6286 152.625 39.678 154.751 38.8643 156.975C38.5561 157.827 38.2872 158.705 38.0589 159.604C37.3599 162.419 37.6486 164.303 38.1653 164.799C38.6819 165.296 39.5785 164.448 40.4902 162.895C41.0981 161.881 41.7667 160.701 42.5113 159.438C43.2559 158.175 43.8789 157.182 44.6539 155.981C45.2465 155.153 45.824 154.263 46.4622 153.373L47.3436 152.255L48.8632 150.371C49.3798 149.771 49.9269 149.171 50.4587 148.591C50.9906 148.011 51.3705 147.597 51.8264 147.121C55.3119 143.659 59.1121 140.827 63.1321 138.696C66.4448 136.833 68.6178 135.798 68.3443 134.825C68.2227 134.39 67.5389 134.121 66.384 133.997H66.0041H65.0012C64.6213 133.997 64.2414 133.997 63.8159 133.997C63.3905 133.997 62.9802 133.997 62.5243 134.142L61.5062 134.349H61.1567C58.8927 134.823 56.6818 135.685 54.5768 136.916C52.0599 138.341 49.6979 140.229 47.5563 142.526Z" fill="#E6E6E6"/>
<path opacity="0.94" d="M47.7276 142.67L46.0409 144.471C45.5394 145.134 45.0683 145.796 44.5213 146.417C43.6155 147.681 42.7583 149.007 41.9532 150.392C40.9614 152.284 40.0774 154.277 39.3091 156.353C38.9897 157.125 38.7006 157.92 38.4429 158.734C37.7287 161.342 38.0022 163.122 38.4429 163.578C38.8836 164.033 39.8257 163.267 40.7071 161.818L42.6978 158.527C43.336 157.471 44.0198 156.457 44.7644 155.215C45.3418 154.449 45.9193 153.6 46.5271 152.751C46.8006 152.379 47.0894 152.027 47.3781 151.675L48.8065 149.874L50.3261 148.177C50.7668 147.701 51.2075 147.224 51.6481 146.79C54.9975 143.47 58.637 140.73 62.4828 138.634C65.674 136.812 67.7558 135.818 67.4975 134.908C67.3759 134.494 66.7225 134.266 65.598 134.183H65.2333H64.2607H63.1362L61.9054 134.369L60.9176 134.597H60.5833C58.4173 135.111 56.3049 135.979 54.2922 137.185C51.9421 138.627 49.7362 140.47 47.7276 142.67Z" fill="#EFEFEF"/>
<path opacity="0.97" d="M47.8963 142.815C47.3645 143.395 46.8326 143.974 46.3767 144.554L44.9635 146.396C44.0685 147.582 43.2214 148.832 42.4258 150.143C41.4366 151.862 40.5378 153.675 39.7361 155.566C39.4401 156.3 39.1713 157.053 38.9307 157.823C38.2165 160.265 38.4445 161.963 38.9307 162.356C39.417 162.75 40.268 162.087 41.1341 160.721L43.0032 157.637C43.6263 156.622 44.2949 155.566 45.0243 154.49C45.5865 153.766 46.1336 152.937 46.7262 152.151L47.5468 151.137L48.9448 149.418L50.4644 147.804L51.7257 146.458C54.9508 143.288 58.4397 140.647 62.1197 138.592C65.1589 136.812 67.1647 135.839 66.9216 134.99C66.8152 134.618 66.1618 134.411 65.0829 134.369H64.7334C64.4446 134.369 64.1255 134.369 63.7912 134.369H62.7123L61.5422 134.576L60.6001 134.825H60.281C58.2137 135.369 56.1996 136.238 54.2786 137.412C51.9937 138.842 49.8495 140.658 47.8963 142.815Z" fill="#F7F7F7"/>
<path d="M48.0499 142.981L46.5303 144.616L45.1778 146.397C44.3203 147.523 43.5134 148.719 42.7617 149.978C41.4235 152.129 40.2806 154.492 39.3578 157.016C38.6132 159.252 38.826 160.783 39.2362 161.156C39.6465 161.529 40.5431 160.928 41.3789 159.645C42.473 157.947 43.7342 155.877 45.2234 153.725C46.0288 152.731 46.743 151.654 47.6852 150.537L49.0224 148.922C49.4935 148.404 49.9646 147.887 50.542 147.369C58.2919 138.862 66.7712 136.647 66.285 134.949C66.1786 134.618 65.5555 134.432 64.4918 134.432C63.0545 134.403 61.6201 134.619 60.2218 135.073C55.7678 136.382 51.5997 139.09 48.0499 142.981Z" fill="white"/>
</g>
<path d="M94.6897 53.8072V94.9853C83.413 92.8336 71.8658 92.8336 60.589 94.9853L64.5726 74.2645C60.806 68.2689 58.3725 61.0875 55.1484 54.7625C68.3702 50.9082 81.5299 51.5835 94.6897 53.8072Z" fill="url(#paint6_linear_3359_8513)"/>
<path d="M94.5331 85.0703L94.7036 94.9531C88.984 94.4589 88.209 94.0142 82.6289 91.4941L94.5331 85.0703Z" fill="#05004F"/>
<g style="mix-blend-mode:screen" opacity="0.15">
<path d="M77.4852 54.6809C71.1466 54.2635 64.7863 54.9421 58.6523 56.6904C61.5664 62.3071 64.4495 67.8909 67.2705 73.3594L63.8449 92.0378L80.3993 90.6048L77.4852 54.6809Z" fill="url(#paint7_radial_3359_8513)"/>
</g>
<path d="M268.238 53.8076V94.9858C279.49 92.8439 291.01 92.8439 302.261 94.9858L298.262 74.265C302.029 68.2694 304.462 61.0879 307.702 54.763C294.496 50.9087 281.383 51.584 268.238 53.8076Z" fill="url(#paint8_linear_3359_8513)"/>
<path d="M268.393 85.0703L268.238 94.9531C273.942 94.4589 274.717 94.0142 280.313 91.4941L268.393 85.0703Z" fill="#05004F"/>
<g style="mix-blend-mode:screen" opacity="0.15">
<path d="M285.481 54.681C291.814 54.2645 298.169 54.9431 304.298 56.6905C301.399 62.3072 298.516 67.891 295.68 73.3594L299.152 92.0378L282.582 90.6048L285.481 54.681Z" fill="url(#paint9_radial_3359_8513)"/>
</g>
<path d="M82.9518 39.2802C78.7667 54.9938 78.9527 72.5027 82.6108 91.4447C150.363 82.1549 215.913 85.3009 280.302 91.4447C284.27 74.2398 284.27 56.271 280.302 39.0661C214.813 32.3787 149.107 30.5504 82.9518 39.2802Z" fill="url(#paint10_radial_3359_8513)"/>
<path style="mix-blend-mode:screen" opacity="0.28" d="M83.2292 37.4653C79.0441 53.1788 79.2301 70.6878 82.8882 89.6297C150.64 80.34 216.191 83.486 280.579 89.6297C284.547 72.4248 284.547 54.456 280.579 37.2511C215.09 30.5638 149.384 28.7355 83.2292 37.4653Z" fill="url(#paint11_radial_3359_8513)"/>
<path d="M97.6838 37.8794C98.1644 38.9336 96.8003 40.4489 94.5838 41.256C92.3672 42.0631 90.2902 41.849 89.8252 40.7948C89.3602 39.7407 90.7242 38.2253 92.9253 37.5006C95.1263 36.7758 97.2188 36.8252 97.6838 37.8794Z" fill="#FCFBFC"/>
<path d="M88.2141 42.096C88.292 42.3314 88.3219 42.5817 88.302 42.8304C88.282 43.079 88.2126 43.3203 88.0983 43.5383C87.984 43.7563 87.8274 43.946 87.639 44.0949C87.4505 44.2438 87.2344 44.3485 87.0051 44.402C86.5395 44.6166 86.0172 44.6482 85.5317 44.4913C85.0461 44.3344 84.6289 43.9992 84.3545 43.5455C84.2767 43.3089 84.2473 43.0575 84.2683 42.8079C84.2892 42.5583 84.3599 42.3163 84.4758 42.0981C84.5917 41.8799 84.75 41.6904 84.9403 41.5424C85.1305 41.3943 85.3483 41.2911 85.579 41.2395C86.0424 41.026 86.5621 40.9949 87.045 41.1519C87.528 41.3089 87.9425 41.6436 88.2141 42.096Z" fill="#FCFBFC"/>
<path d="M279.518 43.3302C278.929 44.335 276.79 44.335 274.728 43.3302C272.666 42.3255 271.488 40.6948 272.077 39.6901C272.666 38.6853 274.805 38.6853 276.851 39.6901C278.898 40.6948 280.107 42.2596 279.518 43.3302Z" fill="#FCFBFC"/>
<path d="M269.943 39.3448C269.626 39.768 269.18 40.0604 268.682 40.1717C268.184 40.2829 267.665 40.206 267.214 39.9542C266.986 39.8889 266.774 39.7689 266.596 39.6032C266.418 39.4375 266.278 39.2306 266.186 38.9984C266.095 38.7662 266.055 38.5149 266.069 38.2637C266.084 38.0125 266.152 37.7682 266.269 37.5494C266.581 37.1248 267.025 36.8309 267.521 36.7194C268.017 36.608 268.534 36.6861 268.981 36.94C269.212 37.0033 269.425 37.1219 269.605 37.2868C269.785 37.4516 269.927 37.6583 270.02 37.8907C270.113 38.1231 270.154 38.3752 270.141 38.6273C270.127 38.8794 270.059 39.1249 269.943 39.3448Z" fill="#FCFBFC"/>
<defs>
<filter id="filter0_d_3359_8513" x="24.4648" y="129.389" width="306.828" height="325.013" filterUnits="userSpaceOnUse" color-interpolation-filters="sRGB">
<feFlood flood-opacity="0" result="BackgroundImageFix"/>
<feColorMatrix in="SourceAlpha" type="matrix" values="0 0 0 0 0 0 0 0 0 0 0 0 0 0 0 0 0 0 127 0" result="hardAlpha"/>
<feMorphology radius="1" operator="dilate" in="SourceAlpha" result="effect1_dropShadow_3359_8513"/>
<feOffset dx="3" dy="2"/>
<feGaussianBlur stdDeviation="3.5"/>
<feComposite in2="hardAlpha" operator="out"/>
<feColorMatrix type="matrix" values="0 0 0 0 1 0 0 0 0 1 0 0 0 0 1 0 0 0 0.7 0"/>
<feBlend mode="normal" in2="BackgroundImageFix" result="effect1_dropShadow_3359_8513"/>
<feBlend mode="normal" in="SourceGraphic" in2="effect1_dropShadow_3359_8513" result="shape"/>
</filter>
<linearGradient id="paint0_linear_3359_8513" x1="316.976" y1="610.317" x2="-127.462" y2="45.5729" gradientUnits="userSpaceOnUse">
<stop stop-color="#FAFAFA"/>
<stop offset="0.06" stop-color="#C0C0C0"/>
<stop offset="0.13" stop-color="#8D8D8D"/>
<stop offset="0.19" stop-color="#626262"/>
<stop offset="0.25" stop-color="#3E3E3E"/>
<stop offset="0.31" stop-color="#232323"/>
<stop offset="0.38" stop-color="#0F0F0F"/>
<stop offset="0.44" stop-color="#040404"/>
<stop offset="0.51"/>
<stop offset="0.58" stop-color="#030303"/>
<stop offset="0.65" stop-color="#0E0E0E"/>
<stop offset="0.71" stop-color="#1F1F1F"/>
<stop offset="0.76" stop-color="#373737"/>
<stop offset="0.82" stop-color="#575757"/>
<stop offset="0.87" stop-color="#7E7E7E"/>
<stop offset="0.92" stop-color="#ACACAC"/>
<stop offset="0.97" stop-color="#E0E0E0"/>
<stop offset="1" stop-color="white"/>
</linearGradient>
<linearGradient id="paint1_linear_3359_8513" x1="276.489" y1="514.738" x2="-50.1108" y2="99.6815" gradientUnits="userSpaceOnUse">
<stop stop-color="white"/>
<stop offset="0.51"/>
<stop offset="1" stop-color="white"/>
</linearGradient>
<linearGradient id="paint2_linear_3359_8513" x1="175.242" y1="107.088" x2="175.242" y2="469.078" gradientUnits="userSpaceOnUse">
<stop stop-color="white"/>
<stop offset="1"/>
</linearGradient>
<linearGradient id="paint3_linear_3359_8513" x1="175.247" y1="109.243" x2="175.247" y2="466.944" gradientUnits="userSpaceOnUse">
<stop stop-color="#3DBAE3"/>
<stop offset="1" stop-color="#3965AF"/>
</linearGradient>
<radialGradient id="paint4_radial_3359_8513" cx="0" cy="0" r="1" gradientUnits="userSpaceOnUse" gradientTransform="translate(175.243 290.634) scale(184.212 291.092)">
<stop stop-color="white"/>
<stop offset="0.09" stop-color="#F9F9F9"/>
<stop offset="0.22" stop-color="#E8E8E8"/>
<stop offset="0.36" stop-color="#CCCCCC"/>
<stop offset="0.52" stop-color="#A5A5A5"/>
<stop offset="0.69" stop-color="#727272"/>
<stop offset="0.86" stop-color="#363636"/>
<stop offset="1"/>
</radialGradient>
<radialGradient id="paint5_radial_3359_8513" cx="0" cy="0" r="1" gradientUnits="userSpaceOnUse" gradientTransform="translate(175.243 290.634) scale(184.212 291.092)">
<stop stop-color="white"/>
<stop offset="0.09" stop-color="#F9F9F9"/>
<stop offset="0.22" stop-color="#E8E8E8"/>
<stop offset="0.36" stop-color="#CCCCCC"/>
<stop offset="0.52" stop-color="#A5A5A5"/>
<stop offset="0.69" stop-color="#727272"/>
<stop offset="0.86" stop-color="#363636"/>
<stop offset="1"/>
</radialGradient>
<linearGradient id="paint6_linear_3359_8513" x1="94.0542" y1="73.3915" x2="60.0309" y2="73.5957" gradientUnits="userSpaceOnUse">
<stop offset="0.03" stop-color="#180773"/>
<stop offset="0.46" stop-color="#0A0095"/>
<stop offset="0.51" stop-color="#1404AE"/>
<stop offset="0.59" stop-color="#2008CB"/>
<stop offset="0.68" stop-color="#2A0BE2"/>
<stop offset="0.77" stop-color="#310DF2"/>
<stop offset="0.87" stop-color="#350FFC"/>
<stop offset="1" stop-color="#360FFF"/>
</linearGradient>
<radialGradient id="paint7_radial_3359_8513" cx="0" cy="0" r="1" gradientUnits="userSpaceOnUse" gradientTransform="translate(52.2197 69.5214) rotate(180) scale(30.4426 38.496)">
<stop stop-color="#00F773"/>
<stop offset="0.09" stop-color="#00ED6E"/>
<stop offset="0.24" stop-color="#00D161"/>
<stop offset="0.43" stop-color="#00A44C"/>
<stop offset="0.67" stop-color="#00662F"/>
<stop offset="0.93" stop-color="#00170B"/>
<stop offset="1"/>
</radialGradient>
<linearGradient id="paint8_linear_3359_8513" x1="268.858" y1="73.392" x2="302.882" y2="73.5962" gradientUnits="userSpaceOnUse">
<stop offset="0.03" stop-color="#180773"/>
<stop offset="0.46" stop-color="#0A0095"/>
<stop offset="0.51" stop-color="#1404AE"/>
<stop offset="0.59" stop-color="#2008CB"/>
<stop offset="0.68" stop-color="#2A0BE2"/>
<stop offset="0.77" stop-color="#310DF2"/>
<stop offset="0.87" stop-color="#350FFC"/>
<stop offset="1" stop-color="#360FFF"/>
</linearGradient>
<radialGradient id="paint9_radial_3359_8513" cx="0" cy="0" r="1" gradientUnits="userSpaceOnUse" gradientTransform="translate(310.7 69.5215) scale(30.4426 38.496)">
<stop stop-color="#00F773"/>
<stop offset="0.09" stop-color="#00ED6E"/>
<stop offset="0.24" stop-color="#00D161"/>
<stop offset="0.43" stop-color="#00A44C"/>
<stop offset="0.67" stop-color="#00662F"/>
<stop offset="0.93" stop-color="#00170B"/>
<stop offset="1"/>
</radialGradient>
<radialGradient id="paint10_radial_3359_8513" cx="0" cy="0" r="1" gradientUnits="userSpaceOnUse" gradientTransform="translate(175.799 38.9832) scale(112.486 142.243)">
<stop stop-color="#360FFF"/>
<stop offset="0.2" stop-color="#340EFB"/>
<stop offset="0.39" stop-color="#2F0DEF"/>
<stop offset="0.58" stop-color="#270ADB"/>
<stop offset="0.78" stop-color="#1C06BF"/>
<stop offset="0.97" stop-color="#0D019C"/>
<stop offset="1" stop-color="#0A0095"/>
</radialGradient>
<radialGradient id="paint11_radial_3359_8513" cx="0" cy="0" r="1" gradientUnits="userSpaceOnUse" gradientTransform="translate(176.076 36.2849) scale(165.667 31.6881)">
<stop stop-color="#00F773"/>
<stop offset="0.09" stop-color="#00ED6E"/>
<stop offset="0.24" stop-color="#00D161"/>
<stop offset="0.43" stop-color="#00A44C"/>
<stop offset="0.67" stop-color="#00662F"/>
<stop offset="0.93" stop-color="#00170B"/>
<stop offset="1"/>
</radialGradient>
</defs>
</svg>
