<svg width="277" height="392" viewBox="0 0 277 392" fill="none" xmlns="http://www.w3.org/2000/svg">
<path opacity="0.5" fill-rule="evenodd" clip-rule="evenodd" d="M272.534 368.266C272.534 374.561 270.029 380.598 265.569 385.049C261.109 389.499 255.059 392 248.752 392C248.752 392 198.338 387.444 137.66 387.444C76.9819 387.444 23.7821 391.993 23.7821 391.993C17.476 391.993 11.4279 389.493 6.96814 385.044C2.50832 380.595 0.00187964 374.56 0 368.266L0 50.9912C0 44.6966 2.50561 38.6599 6.96563 34.2089C11.4256 29.758 17.4747 27.2575 23.7821 27.2575C23.7821 27.2575 77.6127 18.4219 137.065 18.4219C196.516 18.4219 248.752 27.2575 248.752 27.2575C255.059 27.2575 261.109 29.758 265.569 34.2089C270.029 38.6599 272.534 44.6966 272.534 50.9912V368.266Z" fill="#087FAF"/>
<path fill-rule="evenodd" clip-rule="evenodd" d="M276.999 364.1C276.999 370.394 274.493 376.431 270.033 380.882C265.573 385.333 259.524 387.833 253.217 387.833C253.217 387.833 202.81 383.285 142.125 383.285C81.4396 383.285 28.247 387.833 28.247 387.833C21.9396 387.833 15.8905 385.333 11.4305 380.882C6.97046 376.431 4.46484 370.394 4.46484 364.1V46.8316C4.47236 40.5419 6.98129 34.5124 11.4405 30.0676C15.8997 25.6228 21.9445 23.1262 28.247 23.1262C28.247 23.1262 82.0776 14.2835 141.529 14.2835C200.981 14.2835 253.217 23.1262 253.217 23.1262C259.523 23.1262 265.571 25.6257 270.031 30.0751C274.491 34.5245 276.997 40.5595 276.999 46.8528V364.1Z" fill="url(#paint0_linear_3359_20841)"/>
<path fill-rule="evenodd" clip-rule="evenodd" d="M273.712 359.997C273.711 363.045 273.109 366.064 271.938 368.88C270.768 371.696 269.054 374.254 266.893 376.409C264.732 378.564 262.166 380.273 259.343 381.438C256.521 382.603 253.495 383.202 250.44 383.2C250.44 383.2 201.125 378.743 141.773 378.743C82.4201 378.743 30.3474 383.2 30.3474 383.2C27.2935 383.201 24.2694 382.601 21.4477 381.436C18.626 380.27 16.062 378.561 13.9023 376.406C11.7425 374.252 10.0293 371.693 8.86036 368.878C7.69147 366.062 7.08984 363.044 7.08984 359.997V50.0079C7.10111 43.8608 9.55689 37.9696 13.9177 33.6282C18.2785 29.2869 24.1878 26.8505 30.3474 26.8543C30.3474 26.8543 83.0084 18.2167 141.17 18.2167C199.332 18.2167 250.44 26.8543 250.44 26.8543C256.602 26.8486 262.514 29.2839 266.877 33.6253C271.241 37.9666 273.699 43.8589 273.712 50.0079V359.997Z" fill="url(#paint1_linear_3359_20841)"/>
<path fill-rule="evenodd" clip-rule="evenodd" d="M262.278 60.9233C262.248 55.2697 259.97 49.8591 255.946 45.8799C251.921 41.9007 246.479 39.6783 240.814 39.7009C207.468 34.573 173.788 31.9177 140.05 31.7567C86.3963 31.7567 37.8183 39.6726 37.8183 39.6726C32.1538 39.65 26.7119 41.8726 22.6885 45.852C18.6652 49.8314 16.3894 55.242 16.3612 60.895V257.132H16.0352V346.973C16.0352 359.763 25.6473 370.141 37.4923 370.141C37.4923 370.141 85.496 365.698 140.277 365.698C195.057 365.698 240.53 370.141 240.53 370.141C252.382 370.141 261.987 359.763 261.987 346.973V259.77H262.278V60.9233Z" fill="url(#paint2_linear_3359_20841)"/>
<path fill-rule="evenodd" clip-rule="evenodd" d="M250.7 26.925C250.7 26.925 199.421 18.2875 141.061 18.2875C82.7011 18.2875 29.8771 26.925 29.8771 26.925C23.7006 26.91 17.771 29.3437 13.3923 33.6909C9.01357 38.0382 6.54424 43.943 6.52734 50.1069V60.6191C9.14303 65.7337 12.5526 75.1211 15.8417 92.2971V60.994C15.883 55.3328 18.1727 49.9191 22.2085 45.9405C26.2444 41.9619 31.6969 39.7434 37.3697 39.7716C37.3697 39.7716 86.1107 31.8557 139.941 31.8557C173.798 31.9947 207.599 34.6287 241.067 39.7363C246.746 39.708 252.204 41.9314 256.24 45.9176C260.277 49.9039 262.563 55.3267 262.595 60.994V259.841H262.276V347.037C262.276 359.834 252.642 370.212 240.748 370.212C240.748 370.212 195.105 365.769 140.161 365.769C85.2175 365.769 37.0578 370.212 37.0578 370.212C26.6731 370.212 18.0108 362.303 15.9764 351.776C13.141 348.982 9.84479 343.91 6.53443 334.883V360.067C6.54187 363.12 7.15173 366.141 8.32919 368.959C9.50665 371.776 11.2287 374.335 13.3969 376.488C15.5651 378.641 18.1371 380.347 20.966 381.509C23.7949 382.67 26.8253 383.264 29.8842 383.256C29.8842 383.256 82.0915 378.807 141.657 378.807C201.222 378.807 250.707 383.256 250.707 383.256C256.883 383.268 262.81 380.831 267.185 376.483C271.561 372.135 274.028 366.23 274.043 360.067V50.1069C274.035 47.0552 273.426 44.0348 272.249 41.2182C271.072 38.4016 269.35 35.844 267.182 33.6914C265.015 31.5387 262.444 29.8332 259.616 28.6722C256.788 27.5113 253.758 26.9176 250.7 26.925Z" fill="url(#paint3_linear_3359_20841)"/>
<path style="mix-blend-mode:multiply" fill-rule="evenodd" clip-rule="evenodd" d="M21.8477 214.793V344.25C21.8926 349.659 24.0887 354.83 27.953 358.624C31.8173 362.418 37.0334 364.525 42.4541 364.482C42.4541 364.482 88.5298 360.598 141.12 360.598C193.71 360.598 237.376 364.482 237.376 364.482C242.795 364.523 248.009 362.415 251.872 358.621C255.735 354.827 257.93 349.658 257.975 344.25V258.186C174.131 285.322 67.4697 238.413 21.8477 214.793Z" fill="url(#paint4_linear_3359_20841)"/>
<path fill-rule="evenodd" clip-rule="evenodd" d="M250.291 70.2824C250.291 70.2824 254.31 187.621 250.291 217.424C250.291 217.424 244.932 226.416 244.932 217.424C244.932 208.433 240.02 83.4686 240.02 83.4686C240.02 83.4686 239.127 72.73 227.969 71.2798C227.969 71.2798 192.25 66.052 173.947 66.8302C173.947 66.8302 163.371 65.2668 158.168 61.758C152.965 58.2492 144.927 48.7204 167.249 49.4773C189.571 50.2343 238.042 56.0846 238.042 56.0846C238.042 56.0846 249.915 58.2846 250.291 70.2824Z" fill="#1A93D1"/>
<path fill-rule="evenodd" clip-rule="evenodd" d="M248.567 362.338C248.567 362.338 255.705 358.03 255.705 351.883V306.438C255.705 306.438 253.323 288.753 252.16 327.625C252.16 327.625 251.572 347.355 248.616 351.883C245.66 356.41 237.416 367.205 248.567 362.338Z" fill="#1A93D1"/>
<path fill-rule="evenodd" clip-rule="evenodd" d="M16.3678 205.434C16.3678 205.434 9.71874 334.183 13.9719 348.331C18.225 362.48 18.0336 340.819 16.3678 205.434Z" fill="#35AED7"/>
<path fill-rule="evenodd" clip-rule="evenodd" d="M15.8442 60.9941C15.8442 60.9941 16.1349 41.4058 7.08984 45.1197C7.08984 45.1197 11.1091 27.3707 32.9277 26.451C32.9277 26.451 20.6432 34.7844 66.9528 36.4468C66.9741 36.4468 16.8579 34.7066 15.8442 60.9941Z" fill="url(#paint5_linear_3359_20841)"/>
<path fill-rule="evenodd" clip-rule="evenodd" d="M195.262 34.3033L246.449 40.4083C246.449 40.4083 262.597 40.6983 262.597 78.0639L261.569 281.884L263.795 192.361C263.795 192.361 266.758 71.8953 270.096 144.151C273.435 216.406 273.804 110.98 273.804 110.98L274.045 50.1423C274.045 50.1423 273.57 27.6041 250.702 26.9604C227.834 26.3166 251.191 31.7212 240.445 31.792C229.699 31.8627 133.769 23.8336 195.262 34.3033Z" fill="url(#paint6_linear_3359_20841)"/>
<path fill-rule="evenodd" clip-rule="evenodd" d="M21.9739 363.576C21.9739 363.576 30.2604 377.017 17.4727 379.705C17.4727 379.705 25.3693 384.332 34.868 382.86C34.868 382.86 139.779 375.553 195.226 379.91C250.672 384.268 129.621 366.965 64.0091 376.946C-1.60268 386.928 58.8345 368.344 85.5017 366.533C85.5017 366.533 37.0158 372.39 21.9739 363.576Z" fill="url(#paint7_linear_3359_20841)"/>
<path fill-rule="evenodd" clip-rule="evenodd" d="M252.621 43.3087C252.621 43.3087 269.364 51.5925 268.655 35.1522C268.655 35.1522 275.177 39.043 274.043 59.2043C272.909 79.3656 271.611 76.9604 271.611 76.9604L268.273 65.4932L266.791 63.6964C266.791 63.6964 265.657 71.7538 261.503 62.706C261.468 62.6989 262.028 50.3616 252.621 43.3087Z" fill="white"/>
<path fill-rule="evenodd" clip-rule="evenodd" d="M49.1661 368.394C49.1661 368.394 22.2862 368.578 17.466 350.213L15.8427 77.0382C15.8427 77.0382 9.21492 352.406 18.7349 359.218C18.7349 359.218 19.1389 369.61 49.1661 368.394Z" fill="#C9EAF7"/>
<path d="M215.104 0H61.8964C54.7739 0 49 4.81237 49 10.7487V39.2513C49 45.1876 54.7739 50 61.8964 50H215.104C222.226 50 228 45.1876 228 39.2513V10.7487C228 4.81237 222.226 0 215.104 0Z" fill="url(#paint8_linear_3359_20841)"/>
<path d="M227.222 37.646C227.222 43.2685 221.567 47.8281 214.554 47.8281H64.0428C57.0428 47.8281 51.375 43.2685 51.375 37.646V10.6284C51.375 5.02185 57.0428 0.462219 64.0428 0.462219H214.535C221.529 0.462219 227.203 5.02185 227.203 10.6443L227.222 37.646Z" fill="url(#paint9_linear_3359_20841)"/>
<g opacity="0.2">
<path d="M156.883 47.8285H199.536L227.222 16.3947V10.6288C227.222 5.00628 221.566 0.446655 214.554 0.446655H195.898L156.883 47.8285Z" fill="white"/>
<path d="M126.019 0.462341H98.5907L60.0156 47.2968C61.317 47.6512 62.6762 47.8305 64.0434 47.8283H84.3018L126.019 0.462341Z" fill="white"/>
</g>
<path style="mix-blend-mode:multiply" opacity="0.2" d="M53.5586 11.6915V35.7172C53.5586 41.3397 59.1133 45.8993 65.9624 45.8993H213.338C215.873 45.9151 218.353 45.2722 220.442 44.0576C222.531 42.843 224.129 41.1151 225.019 39.1077C178.144 43.6089 78.6428 18.3502 53.5586 11.6915Z" fill="url(#paint10_linear_3359_20841)"/>
<path d="M223.897 34.5693V11.6914C223.897 11.6914 223.733 2.87506 213.051 2.87506H120.393C120.393 2.87506 108.071 5.10173 154.563 6.21241C201.056 7.32309 212.888 7.74291 212.888 7.74291C212.888 7.74291 217.814 8.71542 217.984 13.7161C218.153 18.7168 219.95 27.8892 220.774 18.7168C221.597 9.54445 222.25 48.737 223.897 34.5693Z" fill="#E3F4FA"/>
<defs>
<linearGradient id="paint0_linear_3359_20841" x1="-11.8105" y1="357.697" x2="292.653" y2="52.6203" gradientUnits="userSpaceOnUse">
<stop stop-color="#002651"/>
<stop offset="0.43" stop-color="#004376"/>
<stop offset="0.78" stop-color="#00558D"/>
<stop offset="0.99" stop-color="#005B95"/>
</linearGradient>
<linearGradient id="paint1_linear_3359_20841" x1="-8.71766" y1="353.828" x2="288.898" y2="55.6054" gradientUnits="userSpaceOnUse">
<stop stop-color="#006BB6"/>
<stop offset="0.32" stop-color="#0085CC"/>
<stop offset="0.75" stop-color="#00A3E5"/>
<stop offset="1" stop-color="#00AEEF"/>
</linearGradient>
<linearGradient id="paint2_linear_3359_20841" x1="1.21296" y1="342.311" x2="276.559" y2="66.4034" gradientUnits="userSpaceOnUse">
<stop stop-color="#004376"/>
<stop offset="0.14" stop-color="#004F85"/>
<stop offset="0.51" stop-color="#006BAA"/>
<stop offset="0.81" stop-color="#007CC1"/>
<stop offset="1" stop-color="#0082C9"/>
</linearGradient>
<linearGradient id="paint3_linear_3359_20841" x1="-9.03207" y1="354.104" x2="289.001" y2="55.463" gradientUnits="userSpaceOnUse">
<stop stop-color="#0081C8"/>
<stop offset="0.32" stop-color="#0092D3"/>
<stop offset="0.95" stop-color="#00BEF1"/>
<stop offset="1" stop-color="#00C2F3"/>
</linearGradient>
<linearGradient id="paint4_linear_3359_20841" x1="46.3741" y1="377.01" x2="211.371" y2="211.676" gradientUnits="userSpaceOnUse">
<stop stop-color="#0087BA"/>
<stop offset="1" stop-color="white"/>
</linearGradient>
<linearGradient id="paint5_linear_3359_20841" x1="15.1992" y1="60.3503" x2="52.982" y2="22.4833" gradientUnits="userSpaceOnUse">
<stop stop-color="#00AEEF"/>
<stop offset="0.12" stop-color="#11B3F0"/>
<stop offset="0.37" stop-color="#3EC1F3"/>
<stop offset="0.7" stop-color="#85D6F8"/>
<stop offset="1" stop-color="#C9EBFC"/>
</linearGradient>
<linearGradient id="paint6_linear_3359_20841" x1="176.669" y1="197.15" x2="303.664" y2="69.8962" gradientUnits="userSpaceOnUse">
<stop stop-color="#00AEEF"/>
<stop offset="0.12" stop-color="#11B3F0"/>
<stop offset="0.37" stop-color="#3EC1F3"/>
<stop offset="0.7" stop-color="#85D6F8"/>
<stop offset="1" stop-color="#C9EBFC"/>
</linearGradient>
<linearGradient id="paint7_linear_3359_20841" x1="62.719" y1="424.866" x2="158.114" y2="329.277" gradientUnits="userSpaceOnUse">
<stop stop-color="#00AEEF"/>
<stop offset="0.12" stop-color="#11B3F0"/>
<stop offset="0.37" stop-color="#3EC1F3"/>
<stop offset="0.7" stop-color="#85D6F8"/>
<stop offset="1" stop-color="#C9EBFC"/>
</linearGradient>
<linearGradient id="paint8_linear_3359_20841" x1="49" y1="25.0026" x2="228" y2="25.0026" gradientUnits="userSpaceOnUse">
<stop stop-color="#002651"/>
<stop offset="0.43" stop-color="#004376"/>
<stop offset="0.78" stop-color="#00558D"/>
<stop offset="0.99" stop-color="#005B95"/>
</linearGradient>
<linearGradient id="paint9_linear_3359_20841" x1="84.9483" y1="70.1108" x2="175.598" y2="-37.0802" gradientUnits="userSpaceOnUse">
<stop stop-color="#00AEEF"/>
<stop offset="0.18" stop-color="#2CBBF2"/>
<stop offset="0.47" stop-color="#6FD0F6"/>
<stop offset="0.71" stop-color="#A0DEF9"/>
<stop offset="0.9" stop-color="#BEE8FB"/>
<stop offset="1" stop-color="#C9EBFC"/>
</linearGradient>
<linearGradient id="paint10_linear_3359_20841" x1="88.2818" y1="69.2129" x2="160.145" y2="-15.7587" gradientUnits="userSpaceOnUse">
<stop stop-color="#0087BA"/>
<stop offset="0.08" stop-color="#2096C3"/>
<stop offset="0.28" stop-color="#63B5D5"/>
<stop offset="0.46" stop-color="#9AD0E4"/>
<stop offset="0.63" stop-color="#C6E4F0"/>
<stop offset="0.78" stop-color="#E5F3F8"/>
<stop offset="0.91" stop-color="#F8FCFD"/>
<stop offset="1" stop-color="white"/>
</linearGradient>
</defs>
</svg>
