<svg width="294" height="338" viewBox="0 0 294 338" fill="none" xmlns="http://www.w3.org/2000/svg">
<path opacity="0.4" d="M149.416 338C116.732 337.964 84.074 336.103 51.5915 332.424C37.3792 330.815 24.2533 323.944 14.7321 313.13C5.2109 302.315 -0.0352129 288.318 0.0001779 273.824V75.7639C0.016275 61.8402 4.88827 48.3704 13.7551 37.7351C22.622 27.0999 34.9129 19.9838 48.4556 17.6446C82.4743 11.5458 116.948 8.42857 151.495 8.3274C183.283 8.29287 215.01 11.1589 246.291 16.8909C259.651 19.3949 271.72 26.5692 280.398 37.1644C289.075 47.7596 293.81 61.1043 293.779 74.874V274.151C293.819 288.608 288.603 302.574 279.125 313.379C269.647 324.184 256.574 331.071 242.403 332.724C211.529 336.242 180.485 338.004 149.416 338Z" fill="black"/>
<path d="M242.25 330.971C179.486 338.173 115.978 337.909 51.7796 330.672C38.0011 329.09 25.2806 322.419 16.0493 311.932C6.81788 301.445 1.72299 287.878 1.73832 273.824V75.7639C1.76161 62.2534 6.4906 49.1849 15.0915 38.8628C23.6924 28.5407 35.6129 21.6277 48.7511 19.3428C114.795 7.67357 180.561 6.52934 245.986 18.6254C258.95 21.0538 270.663 28.0121 279.088 38.2894C287.512 48.5668 292.115 61.5125 292.094 74.874V274.151C292.12 288.173 287.054 301.714 277.862 312.193C268.669 322.672 255.993 329.356 242.25 330.971Z" fill="#7AC993"/>
<g style="mix-blend-mode:multiply" opacity="0.3">
<path d="M151.157 329.2C118.856 329.167 86.5807 327.327 54.4794 323.688C42.8119 322.363 32.0383 316.717 24.2265 307.834C16.4146 298.951 12.1149 287.457 12.1526 275.558V77.5166C12.168 66.0775 16.1728 55.0122 23.4591 46.2763C30.7454 37.5405 40.8442 31.6964 51.9706 29.7771C85.3972 23.7797 119.272 20.714 153.218 20.6142C184.389 20.594 215.498 23.4206 246.168 29.0596C257.135 31.1121 267.042 37.0006 274.163 45.6984C281.284 54.3963 285.167 65.3515 285.135 76.6539V275.912C285.176 287.772 280.904 299.232 273.136 308.102C265.367 316.972 254.647 322.63 243.023 323.997C212.521 327.47 181.851 329.207 151.157 329.2Z" fill="black"/>
</g>
<path d="M149.418 327.439C117.116 327.405 84.8413 325.565 52.74 321.926C41.0726 320.603 30.2989 314.957 22.4881 306.074C14.6774 297.19 10.3803 285.695 10.4222 273.796V75.7639C10.4341 64.3215 14.4385 53.252 21.7271 44.5137C29.0157 35.7753 39.1188 29.9313 50.2491 28.0153C83.6763 22.0224 117.55 18.9568 151.497 18.8524C182.66 18.8154 213.763 21.6237 244.429 27.2434C255.394 29.2975 265.301 35.1865 272.422 43.8839C279.543 52.5814 283.426 63.5357 283.396 74.8376V274.15C283.438 286.011 279.167 297.472 271.399 306.342C263.63 315.213 252.909 320.871 241.284 322.235C210.782 325.708 180.112 327.445 149.418 327.439Z" fill="#FCFCE4"/>
<g style="mix-blend-mode:multiply" opacity="0.3">
<path d="M231.542 47.2219C173.141 45.4663 115.242 45.4663 57.8444 47.2219C55.9997 47.2815 54.1619 46.9649 52.4402 46.2909C50.7184 45.6169 49.1478 44.5992 47.8216 43.2982C46.4954 41.9972 45.4405 40.4394 44.7196 38.7174C43.9987 36.9953 43.6265 35.144 43.625 33.2733V23.3749C43.6196 19.8078 44.9636 16.3744 47.3804 13.7813C49.7972 11.1882 53.1029 9.63284 56.6169 9.43532C115.295 6.25235 174.1 6.25235 232.778 9.43532C236.289 9.63948 239.588 11.1975 242.001 13.7896C244.414 16.3817 245.756 19.8114 245.752 23.3749V33.2915C245.75 35.1602 245.377 37.0093 244.656 38.7292C243.935 40.4492 242.88 42.0048 241.555 43.304C240.23 44.6032 238.661 45.6194 236.941 46.2924C235.221 46.9654 233.385 47.2815 231.542 47.2219Z" fill="black"/>
</g>
<path d="M231.542 43.7166C173.141 41.9428 115.242 41.9428 57.8444 43.7166C55.9986 43.7775 54.1595 43.4615 52.4367 42.7874C50.7138 42.1132 49.1423 41.0948 47.8156 39.7926C46.489 38.4904 45.4344 36.931 44.7144 35.2073C43.9945 33.4836 43.624 31.6307 43.625 29.7589V19.8514C43.6218 16.285 44.9665 12.8528 47.3829 10.2602C49.7992 7.66756 53.1036 6.11152 56.6169 5.91184C115.295 2.72889 174.1 2.72889 232.778 5.91184C236.289 6.11384 239.59 7.67117 242.003 10.2638C244.417 12.8564 245.758 16.2873 245.752 19.8514V29.768C245.751 31.6379 245.379 33.4884 244.659 35.2099C243.938 36.9313 242.884 38.4887 241.559 39.7895C240.234 41.0904 238.664 42.1083 236.943 42.7829C235.223 43.4575 233.386 43.775 231.542 43.7166Z" fill="#BF5933"/>
<path d="M231.542 40.1931C173.141 38.4314 115.242 38.4314 57.8445 40.1931C55.9989 40.2528 54.1604 39.9359 52.4381 39.2613C50.7158 38.5867 49.1448 37.5682 47.8184 36.2662C46.492 34.9643 45.4373 33.4054 44.717 31.6823C43.9966 29.9592 43.6253 28.1069 43.625 26.2354V16.3461C43.6173 12.7774 44.9603 9.34173 47.3774 6.74671C49.7944 4.1517 53.1013 2.59505 56.617 2.39745C115.295 -0.785518 174.1 -0.785518 232.778 2.39745C236.29 2.60169 239.591 4.16096 242.004 6.75503C244.417 9.3491 245.758 12.7811 245.752 16.3461V26.2536C245.751 28.1231 245.379 29.9732 244.659 31.6942C243.938 33.4152 242.884 34.9719 241.558 36.2721C240.233 37.5722 238.663 38.5892 236.943 39.2628C235.222 39.9364 233.386 40.2527 231.542 40.1931Z" fill="#FAB473"/>
<path d="M231.542 41.9549C173.141 40.1931 115.242 40.1931 57.8444 41.9549C55.9989 42.0145 54.1604 41.6976 52.4381 41.023C50.7158 40.3484 49.1448 39.3299 47.8184 38.028C46.492 36.726 45.4373 35.1672 44.717 33.444C43.9966 31.7209 43.6253 29.8686 43.625 27.9972V18.0987C43.6196 14.5317 44.9636 11.0982 47.3804 8.50515C49.7972 5.91207 53.1029 4.3567 56.6169 4.15918C115.295 0.971681 174.1 0.971681 232.778 4.15918C236.289 4.36333 239.588 5.92133 242.001 8.51346C244.414 11.1056 245.756 14.5353 245.752 18.0987V28.0153C245.751 29.8848 245.379 31.7349 244.659 33.4559C243.938 35.1769 242.884 36.7337 241.558 38.0338C240.233 39.3339 238.663 40.351 236.943 41.0245C235.222 41.6981 233.386 42.0145 231.542 41.9549Z" fill="#FFA76A"/>
<path d="M59.8601 25.4817C62.7945 25.4817 65.1734 23.0707 65.1734 20.0966C65.1734 17.1225 62.7945 14.7115 59.8601 14.7115C56.9257 14.7115 54.5469 17.1225 54.5469 20.0966C54.5469 23.0707 56.9257 25.4817 59.8601 25.4817Z" fill="#E79360"/>
<path d="M59.8601 27.2434C62.7945 27.2434 65.1734 24.8324 65.1734 21.8583C65.1734 18.8842 62.7945 16.4732 59.8601 16.4732C56.9257 16.4732 54.5469 18.8842 54.5469 21.8583C54.5469 24.8324 56.9257 27.2434 59.8601 27.2434Z" fill="#FFBC86"/>
<path d="M229.079 25.4817C232.013 25.4817 234.392 23.0707 234.392 20.0966C234.392 17.1225 232.013 14.7115 229.079 14.7115C226.144 14.7115 223.766 17.1225 223.766 20.0966C223.766 23.0707 226.144 25.4817 229.079 25.4817Z" fill="#E79360"/>
<path d="M229.079 27.2434C232.013 27.2434 234.392 24.8324 234.392 21.8583C234.392 18.8842 232.013 16.4732 229.079 16.4732C226.144 16.4732 223.766 18.8842 223.766 21.8583C223.766 24.8324 226.144 27.2434 229.079 27.2434Z" fill="#FFBC86"/>
</svg>
