<svg width="294" height="394" viewBox="0 0 294 394" fill="none" xmlns="http://www.w3.org/2000/svg">
  <path style="mix-blend-mode:screen"
    d="M266.274 58.6438H28.85C12.944 58.6438 0 71.8608 0 88.1227V342.021C0 358.283 12.944 371.507 28.85 371.507H266.274C273.625 371.497 280.671 368.387 285.869 362.86C291.067 357.332 293.991 349.838 294 342.021V88.1227C293.989 80.3068 291.064 72.8145 285.866 67.2885C280.669 61.7625 273.623 58.6537 266.274 58.6438Z"
    fill="url(#paint0_radial_3359_21597)" />
  <path opacity="0.42"
    d="M266.274 81.1309H29.1681C13.0854 81.1309 0 94.3554 0 110.61V364.515C0 380.777 13.0854 394.002 29.1681 394.002H266.274C273.625 393.992 280.671 390.882 285.869 385.354C291.067 379.827 293.991 372.332 294 364.515V110.61C293.991 102.793 291.066 95.2998 285.868 89.7734C280.671 84.2469 273.624 81.1388 266.274 81.1309Z"
    fill="url(#paint1_linear_3359_21597)" />
  <path
    d="M266.274 64.5156H27.726C20.3786 64.5236 13.3339 67.6296 8.1365 73.1528C2.9391 78.676 0.0130965 86.1656 0 93.9795L0 350.08C0.009353 357.898 2.93348 365.392 8.13108 370.919C13.3287 376.447 20.3755 379.557 27.726 379.567H266.274C273.625 379.557 280.671 376.447 285.869 370.919C291.067 365.392 293.991 357.898 294 350.08V93.9795C293.985 86.1662 291.058 78.6778 285.861 73.155C280.664 67.6323 273.621 64.5256 266.274 64.5156Z"
    fill="url(#paint2_linear_3359_21597)" />
  <path style="mix-blend-mode:screen"
    d="M264.834 74.6726H27.7277C24.8811 74.6726 22.0625 75.2695 19.4331 76.4291C16.8037 77.5888 14.415 79.2884 12.4039 81.4307C10.3927 83.5731 8.79846 86.1162 7.71236 88.9144C6.62625 91.7127 6.0696 94.7112 6.07425 97.7385V351.599C6.07332 354.624 6.63272 357.619 7.72049 360.414C8.80826 363.209 10.4031 365.748 12.4139 367.887C14.4247 370.026 16.812 371.723 19.4396 372.881C22.0672 374.039 24.8835 374.635 27.7277 374.635H264.834C277.558 374.635 287.929 364.32 287.929 351.599V97.7385C287.929 84.9575 277.587 74.6726 264.834 74.6726Z"
    fill="url(#paint3_radial_3359_21597)" />
  <path
    d="M266.276 70.3647H27.7276C21.9848 70.3647 16.4772 72.7909 12.4164 77.1096C8.35555 81.4282 6.07422 87.2856 6.07422 93.3931V347.298C6.07422 353.406 8.35555 359.263 12.4164 363.582C16.4772 367.901 21.9848 370.327 27.7276 370.327H266.276C272.019 370.327 277.526 367.901 281.587 363.582C285.648 359.263 287.929 353.406 287.929 347.298V93.3931C287.927 87.2862 285.645 81.43 281.585 77.1118C277.524 72.7936 272.018 70.3667 266.276 70.3647Z"
    fill="url(#paint4_linear_3359_21597)" />
  <path
    d="M147.002 70.3647H27.7276C21.9848 70.3647 16.4772 72.7909 12.4164 77.1096C8.35555 81.4282 6.07422 87.2856 6.07422 93.3931V114.918C6.07422 108.81 8.35555 102.953 12.4164 98.6343C16.4772 94.3156 21.9848 91.8894 27.7276 91.8894H266.276C272.019 91.8894 277.526 94.3156 281.587 98.6343C285.648 102.953 287.929 108.81 287.929 114.918V93.3931C287.927 87.2862 285.645 81.43 281.585 77.1118C277.524 72.7936 272.018 70.3667 266.276 70.3647H147.002Z"
    fill="#12102C" />
  <g style="mix-blend-mode:multiply" opacity="0.32">
    <path
      d="M280.887 64.7937C278.774 61.8328 276.202 59.2775 273.28 57.2379C272.861 56.9147 272.416 56.6304 271.951 56.3883L271.881 56.471C271.842 56.5108 271.807 56.5535 271.775 56.5988L271.619 56.7868L271.442 57.0048L271.28 57.2078C270.912 57.6438 270.424 58.3205 270.085 58.7114C269.746 59.1024 269.548 59.0798 269.244 59.3956C269.152 58.9671 269.053 58.5611 268.975 58.125V58.0122C268.869 57.2604 268.791 56.5086 268.735 55.7568C268.678 55.005 268.664 54.3734 268.657 54.2531C268.615 53.8321 268.657 53.3885 268.593 52.9675C268.593 52.8322 268.332 52.8923 268.247 52.8322C268.162 52.772 268.247 52.4112 268.205 52.4112C267.859 52.4105 267.514 52.4382 267.172 52.4939C266.976 52.4684 266.783 52.4153 266.6 52.336C266.416 52.2909 266.72 52.336 266.6 52.2909C266.147 52.2105 265.704 52.0794 265.278 51.8999C264.748 51.712 263.723 51.3361 263.228 51.1481C262.733 50.9601 261.68 50.3512 261.142 50.0655C263.171 43.8103 264.946 39.134 262.804 44.8027C263.149 43.8734 263.446 42.9247 263.694 41.9608C263.758 42.1713 263.829 42.3894 263.885 42.5924C263.885 42.2766 263.8 41.6827 263.786 41.4346C263.774 41.277 263.774 41.1185 263.786 40.9609C263.786 40.8256 263.843 41.0887 263.843 41.0361C263.843 40.9835 263.793 40.9684 263.786 40.9158C263.723 39.9575 263.465 39.0252 263.031 38.1829C262.596 37.3406 261.995 36.6083 261.269 36.0365C260.054 34.999 263.079 36.6229 254.285 32.7886C253.147 32.2924 252.044 31.706 250.892 31.285L251.04 31.5631C236.583 25.9921 231.635 24.7215 224.954 22.842C223.915 24.684 224.247 24.0299 220.607 29.7362C220.296 27.0823 220.493 31.0744 220.027 21.5564C218.995 21.3835 205.761 19.3009 205.627 19.3009L205.931 19.4513C165.897 14.0983 126.754 14.9403 86.798 20.564C86.6175 21.0814 86.588 21.6448 86.7132 22.1804C86.8263 22.4661 86.7909 22.2706 86.7697 22.2932C87.2858 23.3457 86.897 24.3456 86.6778 25.4283C85.7871 23.9246 84.3308 21.3835 84.2177 21.188C81.7646 21.594 69.2802 23.8194 65.7596 24.4659C65.7596 25.308 65.7596 21.4586 65.7596 32.315C65.2648 31.5631 64.5084 30.3226 64.1832 29.7663C64.1337 29.6911 61.9422 25.7215 61.7089 25.7666C61.587 25.7947 61.4666 25.8298 61.3484 25.8718C54.7792 27.6811 48.3488 30.0184 42.1127 32.8638C42.3459 32.8638 42.6004 32.8638 42.8196 32.9239C39.7586 34.4276 34.9302 37.1417 32.4771 38.6829C31.5129 39.2258 30.7871 40.1488 30.4553 41.2541C30.1655 41.9007 30.3068 42.0811 30.1796 42.6675C29.9958 43.5021 29.7342 43.3141 29.5292 43.6975C29.5292 43.6975 29.812 43.5472 29.8403 43.6299C29.8685 43.7126 29.5999 44.0509 29.6423 44.0434C29.7896 43.894 29.9289 43.7358 30.0594 43.5697C30.1513 43.487 30.2149 43.5697 30.2998 43.472C30.7239 44.9005 31.2824 46.0883 31.8338 47.5093C31.9328 47.7724 33.3184 51.4488 33.2124 51.2007C29.2606 41.6902 29.5999 42.1112 32.972 51.3285C32.4347 51.6217 31.9045 51.9225 31.3673 52.2082C30.4967 52.6891 29.5824 53.0745 28.6385 53.3585C28.208 53.542 27.7633 53.6853 27.3094 53.787C27.1398 53.8396 27.5993 53.787 26.9772 53.9374C26.3551 54.0877 26.2137 53.8471 25.6906 53.9374C25.6906 53.9374 25.7401 54.3208 25.6906 54.3509C25.6411 54.3809 25.3654 54.4035 25.33 54.4787C25.2947 54.5539 25.33 54.4035 25.33 54.4787C25.33 54.4035 25.33 54.5539 25.33 54.4787C25.33 54.5539 25.33 54.396 25.33 54.599C25.33 54.802 25.33 55.4786 25.33 55.7793C25.3331 55.8043 25.3331 55.8296 25.33 55.8545C25.33 56.3131 25.33 56.7793 25.2735 57.2454C25.2289 58.4749 25.0558 59.6954 24.7574 60.8842C24.5029 60.6361 24.2272 60.5083 23.9586 60.2452C23.6899 59.982 23.1315 59.2302 22.9335 58.9971L22.884 58.937L22.7639 58.7941C22.7418 58.7583 22.7157 58.7254 22.6861 58.6964L22.5871 58.5761L22.5094 58.4784L22.4175 58.3656L22.2973 58.2228L22.2478 58.1626L22.1771 58.0724C22.1771 58.0724 22.1771 58.0724 22.1418 58.0724C22.1064 58.0724 22.1418 58.0273 22.0923 58.0198C22.0923 58.0198 22.1488 57.9446 22.0569 58.0198C21.965 58.0949 22.2761 57.8694 22.0569 58.0198C17.5891 61.027 15.949 62.7562 13.2344 66.4402C14.6482 69.6505 16.9953 72.0187 19.0666 74.7102C28.2567 86.807 26.2278 93.1073 26.6661 102.437C26.6661 102.355 26.6661 102.483 26.6661 102.437C26.7298 102.678 26.8641 103.137 27.0337 103.189C28.4476 103.798 31.3319 104.084 33.0003 104.091C33.0003 104.806 33.0003 105.52 33.0003 106.242C32.9366 105.715 32.866 105.189 32.8023 104.67C33.4598 111.001 32.0954 107.896 30.4624 116C30.2362 117.105 30.2079 117.166 30.2008 117.203C30.1937 117.241 30.2927 116.97 30.2998 117.038C30.3069 117.105 30.2503 117.346 30.2503 117.399C30.2503 117.451 30.4765 116.715 30.5967 116.512C31.4967 115.232 32.5441 114.078 33.7143 113.076C34.7959 112.158 38.069 111.234 38.8466 110.993C39.2072 110.888 39.9141 110.527 40.3241 110.707C40.3241 110.489 40.4302 109.88 40.4584 109.64C40.4867 109.399 40.5645 108.7 40.5998 108.392C41.1461 109.118 41.7727 109.772 42.4661 110.339C42.5714 110.425 42.696 110.48 42.8276 110.498C42.9591 110.517 43.0929 110.498 43.2155 110.444C43.3781 110.384 49.0406 107.151 49.5779 106.753C50.0903 106.347 50.5389 105.857 50.9069 105.302C50.9748 105.185 51.0317 105.062 51.0766 104.933C51.0766 104.866 51.0766 104.708 51.0766 104.73C51.0766 104.753 51.1968 105.016 51.1614 105.099C51.1614 104.061 50.5747 103.595 50.0233 102.843C48.8356 101.182 45.3999 92.3179 45.2939 92.1675C51.4654 90.2955 69.8457 85.5515 74.3842 86.4687C74.0378 86.0026 74.1863 86.7469 73.7551 86.0627C71.6343 82.7472 70.0154 78.8001 68.4672 75.0485C121.268 62.1022 179.498 61.3879 225.718 72.9209C225.702 72.9698 225.683 73.0175 225.661 73.0637C222.091 82.2134 219.871 85.4538 220.006 85.2357C220.006 85.2357 220.048 85.2357 220.076 85.2357C227.711 85.3936 241.284 88.8595 248.672 91.1526C248.672 91.1526 248.615 91.2127 248.601 91.2578C243.653 104.941 242.946 102.46 243.002 104.272C242.96 104.189 243.002 103.919 243.08 103.896C243.271 103.836 242.819 103.851 243.497 104.761C244.444 106.031 244.77 106.039 250.75 109.452C250.933 109.586 251.15 109.657 251.372 109.655C251.586 109.611 251.785 109.51 251.952 109.362C252.583 108.824 253.146 108.203 253.628 107.512L253.924 109.835C254.443 109.778 254.967 109.874 255.437 110.114C255.819 110.219 257.41 110.67 257.777 110.805C258.754 111.118 259.688 111.565 260.555 112.136C261.726 113.109 262.776 114.236 263.68 115.489C263.829 115.722 264.09 116.572 264.055 116.406C263.899 115.654 264.126 116.294 264.104 116.203C264.083 116.113 264.062 116.106 263.829 115.008C262.86 110.414 261.623 108.76 261.354 107.648C261.149 106.346 261.149 105.017 261.354 103.716C261.298 104.242 261.234 104.768 261.178 105.294C261.178 104.543 261.178 103.858 261.135 103.137C262.88 103.111 264.616 102.874 266.31 102.43L266.515 102.355C266.642 102.31 266.904 102.227 267.073 102.152C267.243 102.077 267.342 101.678 267.363 101.55C267.38 101.488 267.401 101.428 267.427 101.37C267.427 101.31 267.427 101.407 267.427 101.37C267.427 101.332 267.427 101.317 267.427 101.295C267.5 100.845 267.517 100.388 267.476 99.9339C266.409 81.8976 270.757 79.6347 280.887 64.7937Z"
      fill="#004A61" />
  </g>
  <path
    d="M48.9189 91.3857C46.9607 92.5359 45.1933 93.4381 43.2634 94.5433C43.091 94.6704 42.8864 94.7385 42.6766 94.7388C42.4504 94.7153 42.2373 94.6151 42.0687 94.4531C41.4393 93.9266 40.8678 93.3264 40.365 92.6638C40.2987 93.4371 40.1877 94.2054 40.0327 94.9643C39.4884 94.6185 37.4241 95.5357 37.205 95.6184C35.2403 96.2161 33.4134 97.24 31.8393 98.6257C31.0394 99.4204 30.4266 100.404 30.0508 101.498C30.4201 99.0471 31.0829 96.6569 32.0231 94.3854C32.2774 93.8727 32.4879 93.3367 32.6523 92.784C32.756 92.2297 32.8034 91.6651 32.7937 91.1C32.7937 90.0098 32.7583 88.9197 32.8361 87.8371C33.7142 87.7244 34.6019 87.7244 35.48 87.8371C36.3656 87.7737 37.2436 87.6226 38.1028 87.386C40.8479 86.9144 43.6335 86.7657 46.4093 86.9424C47.5474 87.0251 49.237 87.2882 50.1277 88.1303C51.485 89.5136 49.9934 90.7692 48.9189 91.3857Z"
    fill="url(#paint5_linear_3359_21597)" />
  <path
    d="M31.8462 98.6182C31.0622 99.4034 30.4597 100.371 30.0859 101.445C30.1609 100.618 30.3076 99.8 30.5242 99.0016C30.6823 98.6221 30.925 98.2892 31.2312 98.0318C33.9105 95.5733 36.823 94.7087 40.2163 93.9268C40.1991 94.2799 40.1373 94.6289 40.0325 94.9644C39.4882 94.6185 37.4239 95.5357 37.2048 95.6184C35.2432 96.2148 33.4188 97.2361 31.8462 98.6182ZM49.9932 90.6263C50.2655 90.3688 50.5033 90.0728 50.7002 89.7467C50.785 89.6189 50.891 89.5061 50.8628 89.3558C50.6083 87.9047 49.4489 87.7469 48.2117 87.6792C48.4955 87.7021 48.7706 87.794 49.0157 87.9478C49.2609 88.1016 49.4695 88.3133 49.6256 88.5663C49.6862 88.7211 49.7095 88.8894 49.6934 89.0561C49.6774 89.2229 49.6225 89.3827 49.5337 89.5212C49.3889 89.821 49.1779 90.079 48.9187 90.273C47.66 91.1799 46.311 91.9363 44.8962 92.5285C43.7268 93.0227 42.5239 93.4223 41.2979 93.7239C41.5515 93.9893 41.8181 94.2403 42.0968 94.4757C42.2732 94.6411 42.4925 94.7459 42.7259 94.7764C42.9383 94.7797 43.1462 94.7113 43.3198 94.5809C45.1719 93.5434 47.0312 92.4909 48.8833 91.4834C49.2856 91.2484 49.6585 90.9604 49.9932 90.6263Z"
    fill="url(#paint6_radial_3359_21597)" />
  <path
    d="M41.1093 87.5739C43.0586 87.3132 45.0294 87.288 46.984 87.4987C47.6909 87.5889 50.7448 88.025 50.9216 89.5436C50.9711 88.4911 50.4267 88.04 49.8188 87.2882C48.9987 86.2356 48.8149 84.9425 48.0726 83.7772C46.5457 81.3563 46.9274 79.0407 44.5874 76.6424C43.5412 75.5598 37.0162 77.8678 35.8285 78.552C32.433 80.3378 29.3546 82.7366 26.7303 85.6417C26.6258 85.7498 26.546 85.8818 26.497 86.0278C26.448 86.1738 26.4311 86.3297 26.4475 86.4837C26.4475 86.7845 26.5889 87.3784 26.8292 87.4385C31.7283 88.6715 36.1113 88.0776 41.1093 87.5739Z"
    fill="url(#paint7_linear_3359_21597)" />
  <path
    d="M28.5673 37.713C27.2382 38.1791 26.4465 38.4197 25.174 38.8031C25.2502 41.0188 25.0118 43.234 24.467 45.3741C24.2267 44.9831 22.2331 42.5247 22.1907 42.5472C18.2107 44.2764 15.8283 47.4115 13.043 50.6594C14.9446 53.4637 17.0301 56.1627 18.8893 58.9745C21.2788 62.5758 23.8803 66.0116 25.2093 70.2519C26.9272 75.7026 26.5596 81.1232 26.5101 86.792C26.8211 85.2883 28.0229 84.4463 29.1611 83.7847C30.6315 82.9652 31.8474 82.0555 33.2966 81.4089C39.7085 78.5468 46.293 76.1431 53.006 74.214C56.3993 73.2366 59.835 72.5975 63.2919 71.9585C65.0734 71.6277 66.8266 71.2969 68.6363 71.0338C69.4493 70.9135 70.2552 70.8759 71.0894 70.8383C71.9371 70.7894 72.7866 70.7894 73.6343 70.8383C73.4576 70.7556 73.2879 70.6954 73.1041 70.6052C72.515 70.2594 71.9524 69.8647 71.4216 69.4249C70.8431 68.9785 70.2279 68.5885 69.5836 68.2595C68.2192 67.5979 66.7559 67.2897 65.342 66.6957C61.0506 64.9414 57.1815 62.1905 54.0169 58.6437C52.999 57.4298 52.2715 55.9726 51.8961 54.3959C51.4286 52.8235 50.835 51.2967 50.1217 49.8324C48.5452 46.5018 47.0112 43.066 45.6256 39.6076C44.6374 37.0282 43.9421 34.3327 43.5543 31.5781C41.9849 33.8336 36.5627 34.7809 34.8731 35.3372C31.8757 36.3522 30.9072 36.8935 28.5673 37.713Z"
    fill="url(#paint8_linear_3359_21597)" />
  <path
    d="M22.6991 43.2089C20.9349 44.6726 19.2542 46.2467 17.6658 47.9228C16.4286 49.2911 15.2834 50.8023 14.1311 52.2758L13 50.6669C15.488 47.3258 18.528 44.4952 21.971 42.3142C22.242 42.585 22.486 42.8848 22.6991 43.2089ZM33.5859 36.9161C33.2779 36.674 32.9958 36.3967 32.7447 36.0891C31.3308 36.6304 29.9169 37.1868 28.5031 37.698C27.4003 38.0965 26.2904 38.4498 25.1734 38.7581C25.1734 39.6753 25.1381 40.5925 25.0886 41.5097C28.0629 39.7528 31.1964 38.3196 34.4413 37.2319C34.1358 37.2044 33.8417 37.0959 33.5859 36.9161ZM34.7312 37.1341C34.7312 37.1341 34.4484 37.2018 34.4625 37.2244C34.4767 37.2469 34.7382 37.1642 34.7312 37.1341Z"
    fill="url(#paint9_radial_3359_21597)" />
  <path
    d="M33.268 81.3413C35.7422 80.1685 38.2165 79.0858 40.7827 78.131C41.9421 77.695 43.0873 77.2664 44.2608 76.8755C49.1457 75.2666 54.0306 73.808 59.0428 72.7104C61.5524 72.1615 64.0479 71.7932 66.607 71.4323C68.9046 71.1015 71.3011 70.8834 73.6269 70.7782C68.9116 70.1091 64.1681 70.6278 59.5518 71.4473C55.3235 72.1151 51.1323 73.0261 46.9966 74.1764C43.773 75.1312 40.3656 76.5522 37.1703 77.8077C35.4316 78.4959 33.7443 79.3227 32.1227 80.2812C30.5823 81.0634 29.1208 82.0106 27.761 83.1081C26.7218 84.0554 26.644 85.3635 26.4531 86.7243C26.6229 86.1255 26.9096 85.5715 27.2946 85.0986C27.6795 84.6257 28.154 84.2446 28.687 83.9802C30.0231 83.1532 31.2532 82.4239 32.5964 81.7247C32.8226 81.5593 33.0276 81.4541 33.268 81.3413Z"
    fill="url(#paint10_radial_3359_21597)" />
  <path opacity="0.64"
    d="M31.2594 36.5854C32.1431 36.0891 33.0268 35.6381 33.8892 35.1794C35.7838 39.9385 37.4239 44.6449 38.8873 49.5919C39.7285 52.3661 40.2517 55.0275 41.4464 57.8619C43.1218 61.794 45.3769 66.132 49.2863 67.9063C53.1956 69.6806 57.0626 69.4099 61.0779 69.3197C63.1943 69.1326 65.3206 69.1075 67.4404 69.2445C68.4901 69.3632 69.5331 69.5414 70.565 69.7783C71.0227 69.9021 71.4716 70.0604 71.9082 70.252C72.2758 70.3798 72.4172 70.4399 72.7141 70.5226C73.011 70.6053 73.2796 70.6429 73.5412 70.7406C73.5907 70.7406 73.7109 70.8008 73.6472 70.8158C73.5836 70.8309 73.4281 70.8158 73.315 70.8158C72.7919 70.8158 72.2899 70.8158 71.7385 70.8985C71.1871 70.9812 70.459 71.0263 69.9146 71.0865C69.3703 71.1466 68.9461 71.2143 68.4301 71.2669C67.4757 71.3797 66.5496 71.4473 65.6023 71.5902C64.655 71.733 63.7219 71.8984 62.7746 72.1014C59.1904 72.8533 55.8184 73.6051 52.2271 74.5749C45.6009 76.3202 39.1386 78.7059 32.9207 81.7022C35.9464 76.6875 37.9753 71.7556 37.4522 65.741C36.9291 59.7264 34.8719 54.3735 32.8925 48.8701C31.4786 44.908 29.4143 41.6 27.1875 38.1491C28.6027 37.8172 29.9714 37.2915 31.2594 36.5854Z"
    fill="#6A1690" />
  <path
    d="M26.5141 83.0778C26.5141 83.8297 26.408 84.5815 26.3868 85.3333C26.2919 85.9589 26.3991 86.6002 26.6908 87.1527C27.0513 87.7016 27.5815 87.7166 28.1047 87.9045C27.532 87.7016 26.7898 87.4459 26.7332 86.7091C26.613 85.2055 27.9774 84.4537 29.0095 83.8597C30.5436 82.9801 31.8373 82.1155 33.2511 81.266C31.4273 82.0178 28.3592 84.0327 27.2351 81.3562C26.1111 78.6797 27.0655 75.71 27.0796 72.8982C27.2099 71.9104 27.2075 70.908 27.0725 69.921C26.678 68.624 26.038 67.4266 25.1921 66.4024C21.9685 62.117 18.6529 57.9294 15.3516 53.7117C16.4544 55.3958 17.6632 56.9746 18.7519 58.6812C20.795 61.8765 23.043 64.8161 24.4569 68.4549C26.2666 73.1388 26.4787 78.0482 26.5141 83.0778Z"
    fill="url(#paint11_radial_3359_21597)" />
  <path style="mix-blend-mode:screen"
    d="M28.9549 71.4247C29.4603 75.4466 29.4603 79.5222 28.9549 83.5441C34.2569 80.845 39.7073 78.5971 45.2144 76.4243C37.1836 76.0033 32.3411 66.6957 29.7678 60.2977C26.3887 51.8848 26.8906 46.81 27.6965 38.4949C26.986 38.469 26.2777 38.3962 25.5757 38.2769C25.4752 40.6383 25.1411 42.9818 24.5789 45.2688C23.9456 44.5794 23.2009 44.0166 22.3804 43.6073C21.0231 43.2915 20.7544 43.4043 19.7576 44.1336C17.3046 45.9304 15.6292 48.5843 13.6992 50.9751C17.8658 54.653 21.8222 58.592 25.5474 62.7712C26.5074 63.7895 27.3112 64.9615 27.9298 66.2446C28.3699 67.4051 28.6577 68.6245 28.7852 69.8684C28.8559 70.3947 28.8983 70.8834 28.9549 71.4247Z"
    fill="url(#paint12_radial_3359_21597)" />
  <path
    d="M30.6496 97.9715C30.381 99.0466 30.2467 100.227 29.9922 101.347C30.3133 100.722 30.7024 100.139 31.1516 99.6105C32.1938 98.4257 33.3368 97.346 34.5661 96.3852C34.0359 96.6333 33.3925 97.1971 32.8765 97.3776C32.3604 97.558 32.1695 98.1294 31.6606 97.5655C31.1516 97.0017 32.424 94.7462 32.728 94.3327C32.8856 94.149 33.0123 93.9379 33.1027 93.7087C33.1696 93.5093 33.1696 93.2915 33.1027 93.0922C32.9684 91.6637 32.8553 90.2729 32.7068 88.8669C32.937 90.6983 32.7128 92.5618 32.0564 94.2725C31.4884 95.4603 31.0178 96.6978 30.6496 97.9715Z"
    fill="url(#paint13_radial_3359_21597)" />
  <path
    d="M244.508 90.3558C246.459 91.5361 248.241 92.4308 250.164 93.536C250.338 93.6587 250.542 93.7241 250.751 93.7239C250.975 93.6978 251.186 93.595 251.351 93.4307C251.974 92.8889 252.534 92.2706 253.02 91.5888C253.102 92.3797 253.224 93.1653 253.387 93.942C253.939 93.5886 256.003 94.5058 256.215 94.596C258.19 95.1888 260.027 96.2131 261.609 97.6033C262.443 98.4044 263.088 99.4039 263.49 100.52C263.087 98.0412 262.391 95.6261 261.418 93.333C261.156 92.8136 260.938 92.2701 260.768 91.709C260.654 91.1406 260.597 90.561 260.598 89.9799C260.598 88.8672 260.598 87.7244 260.506 86.6418C259.631 86.548 258.748 86.5631 257.876 86.6869C256.992 86.6213 256.115 86.4754 255.254 86.2508C252.517 85.818 249.743 85.7046 246.983 85.9125C245.851 86.0027 244.155 86.2583 243.285 87.1079C241.914 88.4612 243.469 89.7318 244.508 90.3558Z"
    fill="url(#paint14_linear_3359_21597)" />
  <path
    d="M256.235 94.5959C255.995 94.5057 253.931 93.5884 253.408 93.9418C253.302 93.5981 253.235 93.2422 253.21 92.8817C256.617 93.6786 259.537 94.5282 262.237 97.0017C262.556 97.2568 262.813 97.5893 262.987 97.9715C263.212 98.7801 263.373 99.6076 263.467 100.445C263.072 99.3635 262.453 98.3899 261.658 97.5956C260.067 96.2044 258.22 95.1825 256.235 94.5959ZM244.571 90.4233C246.416 91.4532 248.289 92.4983 250.156 93.5283C250.328 93.6621 250.537 93.7309 250.75 93.7238C250.983 93.6919 251.201 93.5812 251.372 93.408C251.645 93.1721 251.907 92.9211 252.156 92.6562C250.932 92.3576 249.729 91.9657 248.558 91.4833C247.128 90.8914 245.771 90.119 244.514 89.1828C244.257 88.9849 244.044 88.7279 243.892 88.4309C243.803 88.2915 243.747 88.1312 243.728 87.9636C243.71 87.796 243.73 87.6262 243.786 87.4686C243.938 87.2103 244.146 86.9939 244.391 86.8371C244.637 86.6803 244.914 86.5875 245.2 86.5664C243.991 86.6416 242.804 86.8145 242.57 88.2655C242.57 88.4234 242.655 88.5362 242.74 88.6565C242.939 88.9877 243.176 89.2909 243.447 89.5587C243.786 89.8954 244.164 90.1858 244.571 90.4233Z"
    fill="url(#paint15_radial_3359_21597)" />
  <path
    d="M252.251 86.4613C250.303 86.2352 248.338 86.2352 246.39 86.4613C245.683 86.5515 242.636 86.9951 242.481 88.5213C242.424 87.4763 242.954 87.0177 243.562 86.2658C244.368 85.1982 244.545 83.9051 245.273 82.7172C246.793 80.2663 246.397 77.9131 248.737 75.4922C249.79 74.4021 256.315 76.7252 257.51 77.3943C260.92 79.1558 264.008 81.5488 266.63 84.4615C266.734 84.5695 266.814 84.7016 266.863 84.8476C266.912 84.9935 266.929 85.1495 266.912 85.3035C266.912 85.6117 266.764 86.2132 266.524 86.2734C261.632 87.4462 257.242 86.8598 252.251 86.4613Z"
    fill="url(#paint16_linear_3359_21597)" />
  <path
    d="M264.548 36.1944C265.892 36.6455 266.669 36.886 267.984 37.2544C267.966 39.4968 268.264 41.7295 268.868 43.878C269.101 43.4795 271.045 40.9759 271.088 40.991C275.11 42.6826 277.599 45.8177 280.412 49.0505C278.56 51.9225 276.545 54.6817 274.686 57.5311C272.318 61.1774 269.688 64.6734 268.324 68.8911C266.549 74.3644 266.839 79.8076 266.867 85.4913C266.57 83.9877 265.354 83.1306 264.216 82.4841C262.739 81.6646 261.523 80.7473 260.059 80.1083C253.632 77.2694 247.034 74.8908 240.308 72.9885C236.9 72.0337 233.429 71.4097 229.951 70.7707C228.332 70.4699 226.713 70.1767 225.073 69.9361C223.433 69.6956 221.744 69.6505 220.082 69.5527C219.868 69.5341 219.653 69.5675 219.453 69.6505C220.16 69.2595 220.711 68.9513 221.411 68.4926C222.114 67.9699 222.846 67.4929 223.603 67.0642C224.946 66.4026 226.431 66.0943 227.844 65.4929C232.127 63.7263 235.99 60.9741 239.155 57.4333C240.179 56.2152 240.907 54.7491 241.276 53.163C241.738 51.5845 242.324 50.0503 243.029 48.5769C244.585 45.2162 246.083 41.7428 247.434 38.2393C248.384 35.637 249.042 32.9241 249.392 30.1572C250.989 32.3525 256.461 33.2998 258.165 33.8562C261.205 34.8561 262.166 35.3974 264.548 36.1944Z"
    fill="url(#paint17_linear_3359_21597)" />
  <path
    d="M271.263 40.758C274.758 42.9168 277.855 45.7316 280.404 49.0657L279.308 50.6971C278.135 49.1935 276.968 47.6898 275.696 46.3591C274.071 44.6893 272.355 43.1228 270.557 41.6677C270.761 41.3387 270.998 41.0337 271.263 40.758ZM258.659 35.7659C261.929 36.8491 265.091 38.2746 268.096 40.0212C268.033 39.0965 267.99 38.1717 267.955 37.247C266.824 36.9312 265.7 36.5929 264.59 36.2095C263.176 35.7133 261.762 35.172 260.348 34.6382C260.097 34.9335 259.82 35.2029 259.521 35.4426C259.268 35.6281 258.973 35.7395 258.666 35.7659H258.659ZM258.623 35.7659C258.623 35.7659 258.355 35.6456 258.348 35.6832C258.341 35.7208 258.623 35.781 258.631 35.7509L258.623 35.7659Z"
    fill="url(#paint18_radial_3359_21597)" />
  <path
    d="M260.06 80.0933C257.586 78.943 255.111 77.9055 252.538 76.9356C251.386 76.492 250.24 76.056 249.067 75.665C244.187 74.0357 239.232 72.6706 234.221 71.5751C231.698 71.0338 229.174 70.6654 226.601 70.312C224.289 69.9963 221.878 69.7256 219.531 69.6053C224.275 68.9663 229.047 69.5076 233.67 70.312C237.921 70.9501 242.136 71.8361 246.296 72.966C249.541 73.9058 252.934 75.3643 256.143 76.5973C257.884 77.2726 259.573 78.0869 261.198 79.0332C262.751 79.8039 264.221 80.7518 265.581 81.86C266.62 82.8073 266.698 84.1155 266.875 85.4838C266.71 84.8805 266.424 84.3223 266.037 83.8474C265.65 83.3725 265.172 82.992 264.634 82.7322C263.298 81.8976 262.067 81.1684 260.717 80.4316C260.505 80.3113 260.286 80.1985 260.06 80.0933Z"
    fill="url(#paint19_radial_3359_21597)" />
  <path opacity="0.64"
    d="M261.828 35.0891C260.93 34.638 260.06 34.1493 259.17 33.6982C257.346 38.5099 255.833 43.2765 254.377 48.261C253.564 51.0578 253.062 53.7418 251.874 56.5837C250.206 60.5458 247.929 64.8538 243.999 66.6807C240.068 68.5076 236.223 68.2896 232.136 68.1843C230.02 67.9994 227.893 67.9818 225.774 68.1317C224.657 68.2746 223.611 68.47 222.522 68.673C221.469 68.9212 220.434 69.2504 219.426 69.6579C220.153 69.6528 220.88 69.693 221.603 69.7782C222.041 69.8383 222.515 69.8759 222.953 69.921C224.268 70.0413 225.725 70.1992 226.976 70.3646C228.227 70.53 229.316 70.7029 230.511 70.951C234.137 71.7029 237.53 72.3945 241.115 73.3719C247.748 75.1008 254.22 77.4688 260.449 80.4466C257.381 75.4695 255.43 70.5375 255.932 64.523C256.434 58.5084 258.512 53.0727 260.421 47.5092C261.849 43.6638 263.705 40.0141 265.949 36.6379C264.518 36.3152 263.132 35.7945 261.828 35.0891Z"
    fill="#6A1690" />
  <path
    d="M266.852 81.8225C266.852 82.5744 266.951 83.3262 266.965 84.078C267.062 84.7093 266.953 85.357 266.654 85.9124C266.286 86.4613 265.749 86.4838 265.24 86.7094C265.82 86.5139 266.569 86.2432 266.654 85.5065C266.788 83.9577 265.41 83.251 264.378 82.642C262.837 81.7549 261.55 80.8903 260.094 80.0482C261.939 80.8001 265.007 82.7999 266.159 80.1234C267.312 77.4469 266.385 74.4472 266.4 71.6278C266.282 70.6456 266.298 69.6503 266.449 68.6732C266.863 67.3684 267.514 66.1628 268.365 65.1246C271.617 60.7865 274.932 56.5312 278.198 52.2083C277.124 53.9299 275.943 55.5313 274.855 57.2605C272.819 60.5009 270.556 63.4931 269.114 67.1394C267.205 71.8308 266.93 76.7552 266.852 81.8225Z"
    fill="url(#paint20_radial_3359_21597)" />
  <path style="mix-blend-mode:screen"
    d="M264.499 70.1091C263.939 74.1338 263.892 78.2203 264.357 82.2585C259.055 79.5745 253.576 77.3566 248.098 75.1764C256.199 74.7328 261.112 65.4027 263.65 58.9069C267.036 50.3813 266.365 45.314 265.396 36.9161C266.107 36.8783 266.815 36.798 267.517 36.6755C267.671 39.0584 268.062 41.4173 268.684 43.7126C269.319 43.0363 270.067 42.4909 270.889 42.1037C272.247 41.7579 272.515 41.8781 273.533 42.6074C276.014 44.3892 277.775 47.0357 279.733 49.4189C275.617 53.2072 271.69 57.2225 267.97 61.4481C267 62.4816 266.187 63.6685 265.559 64.9666C265.126 66.1374 264.839 67.3631 264.704 68.613C264.612 69.1092 264.562 69.5903 264.499 70.1091Z"
    fill="url(#paint21_radial_3359_21597)" />
  <path
    d="M262.78 97.0393C263.063 98.1294 263.261 99.2421 263.53 100.34C263.207 99.7094 262.813 99.1236 262.356 98.5955C261.298 97.4071 260.144 96.3203 258.906 95.3477C259.436 95.6033 260.087 96.1672 260.596 96.3476C261.105 96.528 261.338 97.0994 261.819 96.528C262.3 95.9567 260.999 93.6786 260.659 93.2275C260.496 93.0445 260.366 92.8303 260.278 92.596C260.15 92.3254 260.228 92.19 260.242 91.972C260.355 90.4684 260.44 89.07 260.56 87.6265C260.334 89.4733 260.56 91.3511 261.218 93.0772C261.839 94.3504 262.362 95.6755 262.78 97.0393Z"
    fill="url(#paint22_radial_3359_21597)" />
  <path
    d="M241.802 62.102C241.993 62.1923 242.169 62.29 242.367 62.3952C244.12 63.3801 246.743 64.1996 245.838 66.8611C245.216 68.688 242.41 69.1992 240.847 69.2895C235.984 69.5827 231.367 68.906 226.617 68.7331C224.197 68.7033 221.784 69.0168 219.441 69.6654C221.979 65.9063 223.52 61.6133 225.175 57.3731C225.281 57.1024 225.288 57.0423 225.472 56.8919C225.56 56.8329 225.66 56.7955 225.764 56.7825C225.868 56.7695 225.973 56.7812 226.072 56.8167C231.497 57.8952 236.779 59.67 241.802 62.102Z"
    fill="url(#paint23_linear_3359_21597)" />
  <path
    d="M51.4522 63.305C51.2614 63.3952 51.0917 63.493 50.8938 63.5982C49.1971 64.5305 46.737 65.162 47.6065 67.7408C48.2003 69.5151 50.8655 70.3721 52.4207 70.4699C57.2703 70.7556 61.8371 70.0338 66.5594 69.8534C68.964 69.8181 71.3617 70.1343 73.6853 70.7932C71.1545 67.0341 69.571 62.7637 67.9097 58.5309C67.8036 58.2603 67.7966 58.2077 67.6128 58.0573C67.5244 58.0006 67.4255 57.9652 67.3229 57.9535C67.2203 57.9418 67.1166 57.9541 67.0189 57.9896C61.6445 59.075 56.4163 60.8602 51.4522 63.305Z"
    fill="url(#paint24_linear_3359_21597)" />
  <path
    d="M49.1961 69.5151C49.0595 69.0653 48.9671 68.6017 48.9204 68.1317C48.8538 67.6681 48.8901 67.1944 49.0264 66.7484C49.2926 66.1322 49.7195 65.6103 50.2565 65.2447C51.5077 64.4403 53.0842 63.9516 54.1093 63.0344C87.7735 52.99 120.109 49.7647 155.364 49.4414C182.983 49.1858 213.254 50.509 239.489 62.2224C242.126 63.3952 243.299 64.6583 244.246 67.3799C244.409 67.8535 243.766 68.4024 243.419 68.6354C244.515 68.0716 245.646 67.831 246.622 66.9513C247.588 66.0267 248.392 64.927 248.997 63.7035C249.482 62.7625 249.907 61.7879 250.269 60.7864C254.511 49.4264 259.156 38.3896 262.782 26.7138C263.189 25.4376 263.128 24.0452 262.612 22.8146C262.095 21.584 261.162 20.6058 259.997 20.0752C248.516 14.8125 236.534 10.8955 224.523 7.1514C222.989 9.48205 221.497 11.8127 219.999 14.1659C219.843 11.4042 219.699 8.64752 219.567 5.89585C173.765 -1.1788 132.537 -1.56223 86.6636 4.85082C86.6212 6.44468 86.5858 8.03855 86.5434 9.63241C85.7281 8.24906 84.9104 6.8657 84.0904 5.48235C77.9636 6.56999 71.8156 7.6902 65.6464 8.843C65.6464 11.4142 65.6464 13.993 65.6464 16.5717C64.275 14.414 63.0237 12.2112 61.4543 10.1812C51.8471 13.3013 41.3279 17.3837 33.1769 22.9622C28.8505 25.9169 30.4835 28.0145 31.7984 31.7059C35.9764 43.4644 41.1512 54.2606 45.8593 65.7259C46.6206 67.2929 47.7756 68.6046 49.1961 69.5151Z"
    fill="url(#paint25_radial_3359_21597)" />
  <path opacity="0.6"
    d="M256.052 18.3762C254.188 17.3168 252.275 16.3607 250.318 15.5117C252.474 20.1129 254.009 24.4358 253.895 29.6535C253.853 31.909 252.849 33.8261 252.079 35.856C251.045 38.5627 249.864 41.2035 248.544 43.7652C246.777 47.1935 245.165 50.6895 242.62 53.584C240.075 56.4785 236.788 57.7341 233.43 59.1475C235.822 59.695 238.134 60.5852 240.301 61.7939C242.337 62.9668 243.786 64.3952 245.957 65.0794C245.25 63.5757 245.518 59.3054 245.681 58.1852C246.265 54.6202 247.324 51.1621 248.827 47.9153C251.859 40.9308 255.012 34.8711 258.498 28.3679C259.516 26.4658 260.993 25.3155 262.478 23.8569C262.732 24.3607 262.951 24.8418 263.227 25.3606C262.407 23.9622 262.011 22.624 260.795 21.4586C259.904 20.6166 258.512 20.0227 257.444 19.3084C256.999 19.0077 256.518 18.6468 256.052 18.3762Z"
    fill="#6A1690" />
  <path opacity="0.6"
    d="M37.0702 20.9549C40.9654 18.3085 45.2494 16.6394 49.5193 14.8501C47.1016 16.1432 44.7899 17.3612 43.8638 20.2331C42.8964 23.0334 42.6978 26.0686 43.2912 28.9844C45.1832 37.9292 48.1484 46.5783 52.1137 54.7192C53.0762 56.6508 54.4971 58.2811 56.2352 59.4482C57.9672 60.6737 59.8688 60.4632 61.8906 60.2C56.4614 61.5157 52.241 63.5682 48.2892 67.7934C47.0662 56.1026 44.9737 45.1711 40.6755 34.2697C39.6817 31.9192 38.043 29.9432 35.9744 28.6009C33.9172 27.1725 31.7328 27.5935 29.4141 28.0822C31.8883 25.6463 34.1717 22.9247 37.0702 20.9549Z"
    fill="#6A1690" />
  <path
    d="M61.5735 10.0159C51.5915 13.3991 41.3834 17.6243 32.5043 23.075C29.7402 24.8117 31.0409 26.3154 29.3867 28.5257C30.942 27.1725 30.4895 25.8793 32.4548 24.7666C42.0129 19.2942 52.0463 14.8175 62.4147 11.3992C62.2062 10.8929 61.9221 10.4257 61.5735 10.0159Z"
    fill="url(#paint26_radial_3359_21597)" />
  <path
    d="M84.0689 5.35449C77.9422 6.44213 71.7942 7.56234 65.625 8.71514V10.4594C72.0675 9.25645 78.5101 8.0786 84.9526 6.9258C84.6345 6.40704 84.3588 5.88077 84.0689 5.35449Z"
    fill="url(#paint27_radial_3359_21597)" />
  <path
    d="M219.615 7.63259C219.615 6.99354 219.58 6.36201 219.558 5.73048C173.707 -1.5622 132.563 -1.893 86.6406 4.73056V6.4823C132.485 0.091811 173.813 0.445168 219.608 7.51982C219.608 7.57244 219.615 7.61003 219.615 7.63259Z"
    fill="url(#paint28_radial_3359_21597)" />
  <path
    d="M260.131 19.782C248.424 14.9328 236.575 10.715 224.487 7.04614C224.183 7.5649 223.879 8.07614 223.582 8.5949C235.918 12.2563 248 16.4965 259.954 21.3684C261.422 22.9237 262.534 24.8168 263.206 26.9018C262.962 24.2284 261.879 21.7201 260.131 19.782Z"
    fill="url(#paint29_radial_3359_21597)" />
  <path
    d="M241.375 62.8313C242.478 63.5005 243.666 64.2598 244.076 65.6131C244.486 66.9663 243.736 67.7934 243.079 68.8384C243.503 68.7181 243.977 68.5602 244.394 68.4324C244.579 68.3766 244.745 68.2643 244.87 68.1092C244.996 67.9542 245.076 67.7633 245.101 67.5603C245.963 61.9968 239.65 59.5985 236.37 58.6286C230.715 56.9596 225.943 55.1477 221.044 54.2981C207.697 51.975 194.689 49.6519 181.583 48.6896C165.988 47.5468 150.477 47.9001 135.109 48.2836C120.131 48.669 105.196 50.1485 90.4092 52.7118C78.264 54.7718 66.4087 58.3429 54.504 61.7337C51.8742 62.4855 50.0079 64.4778 48.2405 66.6205C48.0711 66.9156 47.9941 67.2603 48.0208 67.6048C48.0475 67.9494 48.1764 68.2761 48.389 68.5377C48.7283 69.0339 49.1666 69.2895 49.4635 69.7631C49.3045 69.4193 49.2217 69.0412 49.2217 68.658C49.2217 68.2747 49.3045 67.8966 49.4635 67.5528C50.7572 65.6657 52.4468 63.914 54.5534 63.3125C65.5463 60.2075 76.6805 56.8243 87.7794 54.8319C101.437 52.381 114.989 50.524 128.676 50.0804C143.465 49.5917 157.83 49.3737 172.583 49.8248C185.577 50.2157 198.471 52.0352 211.394 54.0951C220.69 55.5988 229.675 58.7113 238.738 61.5683C239.655 61.8923 240.539 62.3156 241.375 62.8313Z"
    fill="url(#paint30_radial_3359_21597)" />
  <path
    d="M48.9683 69.455C44.8257 65.32 41.7435 59.5385 39.7004 54.2682C36.2576 45.3892 33.536 37.3146 30.1992 28.6235C32.5533 34.3524 34.9357 40.0362 37.2686 45.7275C38.6824 49.1558 40.0327 52.5691 41.5102 55.9598C42.7614 58.8693 44.0976 61.7037 45.6104 64.4629C45.7689 64.8033 46.0138 65.0897 46.3173 65.2899C46.9793 65.711 47.7462 65.9077 48.5159 65.8538C49.3176 65.6842 50.1067 65.453 50.8771 65.1621C49.647 69.7407 54.9419 69.3046 57.2395 69.2445C62.0396 69.1167 65.4328 69.3347 69.8441 69.6354C70.3233 69.6918 70.7966 69.795 71.258 69.9437C72.2331 70.2116 73.1898 70.5508 74.1211 70.9586C72.8769 70.8384 70.5864 70.5301 69.5613 70.4474C67.5464 70.3079 65.525 70.3079 63.51 70.4474C59.6017 70.7336 55.6814 70.7838 51.7678 70.5978C50.7402 70.5634 49.7537 70.1607 48.9683 69.455Z"
    fill="url(#paint31_radial_3359_21597)" />
  <path
    d="M245.95 67.4626C249.656 63.0094 252.552 57.8622 254.489 52.2833C257.664 43.4419 260.145 35.247 263.107 26.5259C260.986 32.2999 258.781 38.0212 256.603 43.7426C255.295 47.1935 254.044 50.6293 252.659 54.0351C251.485 56.9437 250.174 59.7868 248.728 62.5532C248.568 62.8927 248.324 63.1788 248.021 63.3802C247.362 63.8127 246.596 64.0224 245.822 63.9817C245.013 63.8246 244.215 63.6085 243.433 63.3351C244.727 67.9062 239.375 67.5303 237.071 67.5002C232.242 67.4325 228.785 67.6731 224.346 68.019C223.866 68.0755 223.393 68.1812 222.932 68.3347C221.952 68.6041 220.99 68.9457 220.055 69.3572C221.377 69.2219 223.547 68.9136 224.706 68.8159C226.972 68.6428 229.248 68.6831 231.507 68.9362C235.163 69.3821 238.854 69.3997 242.514 68.9888C243.768 68.8219 244.956 68.2942 245.95 67.4626Z"
    fill="url(#paint32_radial_3359_21597)" />
  <path style="mix-blend-mode:screen" opacity="0.81"
    d="M55.0264 28.5033C54.1144 26.5936 52.6016 24.9471 51.2514 23.2856C49.9035 21.5691 48.368 20.0295 46.6775 18.6995C45.2636 17.6394 43.6801 17.3763 42.0117 17.1959C44.486 16.1207 46.9603 14.978 49.484 14.0081C51.5059 13.2563 53.5772 12.6022 55.6131 11.9331C57.6491 11.264 59.6144 10.5573 61.7069 10.0836C62.0462 10.6024 63.1208 12.2564 63.2763 12.5872C64.0061 13.9804 64.8135 15.326 65.694 16.6169C65.7755 15.2952 65.7755 13.9691 65.694 12.6473C65.6516 11.3617 65.7859 10.2039 65.7789 8.94084C71.4343 7.75296 77.0898 6.60268 82.7453 5.67793C83.5441 5.55012 84.35 5.61779 84.5621 6.61019C83.0634 5.94107 79.5217 8.798 78.9561 9.3769C76.6091 11.7902 75.068 13.7224 74.5024 16.5869C73.4813 21.7184 73.6048 27.0329 74.863 32.1045C75.9799 37.059 78.2633 41.1639 81.0769 45.2238C82.6154 47.3502 84.6403 49.0222 86.9586 50.0806C90.3731 51.7571 93.9219 51.7872 97.6121 51.9225C95.1449 52.4187 92.706 52.9074 90.2317 53.4938C86.2376 54.4411 82.3282 55.5087 78.3057 56.5011C75.7679 57.1251 73.2229 57.6965 70.6002 58.298C66.0148 59.2971 61.5204 60.721 57.1684 62.5533C60.1305 56.6365 62.1169 51.3361 61.106 44.5096C60.2365 38.6754 57.5148 33.7134 55.0264 28.5033Z"
    fill="url(#paint33_radial_3359_21597)" />
  <path style="mix-blend-mode:screen" opacity="0.81"
    d="M199.68 50.9375C203.695 51.7946 207.619 52.7344 211.655 53.6516C214.2 54.2305 216.745 54.7342 219.382 55.2605C223.998 56.136 228.531 57.4494 232.927 59.185C229.852 53.3208 227.632 48.1107 228.516 41.224C229.265 35.3823 231.676 30.4504 234.171 25.12C235.408 22.4886 237.381 20.4812 239.311 17.8874C240.406 16.4214 242.683 14.1283 244.839 14.0155C241.917 12.6338 238.922 11.4363 235.868 10.4294C232.1 9.18885 228.261 8.25659 224.451 7.18148L220.16 14.0306C219.75 11.3917 219.418 8.76783 219.156 6.09886C214.554 5.05382 209.895 4.18923 205.265 3.45996C209.372 6.03119 213.041 8.31673 214.412 13.4818C215.784 18.6468 215.487 23.7516 214.49 29.0069C213.557 33.9313 211.358 38.2317 208.665 42.3592C207.186 44.535 205.207 46.2717 202.918 47.404C199.531 49.1708 195.954 49.3286 192.25 49.5542C194.738 49.9902 197.199 50.4113 199.68 50.9375Z"
    fill="url(#paint34_radial_3359_21597)" />
  <defs>
    <radialGradient id="paint0_radial_3359_21597" cx="0" cy="0" r="1" gradientUnits="userSpaceOnUse"
      gradientTransform="translate(151.397 51.1707) scale(183.435 195.083)">
      <stop stop-color="#1CBECA" />
      <stop offset="1" />
    </radialGradient>
    <linearGradient id="paint1_linear_3359_21597" x1="147" y1="-224.598" x2="147" y2="882.656"
      gradientUnits="userSpaceOnUse">
      <stop stop-color="#12102C" />
      <stop offset="1" stop-color="#2E2958" />
    </linearGradient>
    <linearGradient id="paint2_linear_3359_21597" x1="147" y1="-862.782" x2="147" y2="967.71"
      gradientUnits="userSpaceOnUse">
      <stop offset="0.25" stop-color="#53549F" />
      <stop offset="0.81" stop-color="#787EF1" />
      <stop offset="0.91" stop-color="#7F86FF" />
    </linearGradient>
    <radialGradient id="paint3_radial_3359_21597" cx="0" cy="0" r="1" gradientUnits="userSpaceOnUse"
      gradientTransform="translate(141.042 354.388) scale(306.258 325.704)">
      <stop stop-color="#1CBECA" />
      <stop offset="1" />
    </radialGradient>
    <linearGradient id="paint4_linear_3359_21597" x1="147.002" y1="30.052" x2="147.002" y2="394.648"
      gradientUnits="userSpaceOnUse">
      <stop stop-color="#12102C" />
      <stop offset="1" stop-color="#2E2958" />
    </linearGradient>
    <linearGradient id="paint5_linear_3359_21597" x1="51.0912" y1="98.5132" x2="24.2518" y2="90.2973"
      gradientUnits="userSpaceOnUse">
      <stop stop-color="#13C3D0" />
      <stop offset="0.01" stop-color="#1FB5CE" />
      <stop offset="0.04" stop-color="#408FCA" />
      <stop offset="0.08" stop-color="#5B6FC6" />
      <stop offset="0.11" stop-color="#7057C4" />
      <stop offset="0.15" stop-color="#7E46C2" />
      <stop offset="0.18" stop-color="#873BC0" />
      <stop offset="0.23" stop-color="#8A38C0" />
      <stop offset="0.95" stop-color="#CE1EBE" />
    </linearGradient>
    <radialGradient id="paint6_radial_3359_21597" cx="0" cy="0" r="1" gradientUnits="userSpaceOnUse"
      gradientTransform="translate(30.3961 89.9733) rotate(-1.21849) scale(31.7061 34.7287)">
      <stop stop-color="#C86BDA" />
      <stop offset="0.28" stop-color="#9982D7" />
      <stop offset="0.91" stop-color="#23BBD1" />
      <stop offset="1" stop-color="#13C3D0" />
    </radialGradient>
    <linearGradient id="paint7_linear_3359_21597" x1="25.1667" y1="91.0719" x2="55.7734" y2="80.5642"
      gradientUnits="userSpaceOnUse">
      <stop offset="0.07" stop-color="#560087" />
      <stop offset="0.65" stop-color="#6A1690" />
      <stop offset="0.94" stop-color="#13C3D0" />
    </linearGradient>
    <linearGradient id="paint8_linear_3359_21597" x1="8.27088" y1="66.7726" x2="47.1597" y2="57.089"
      gradientUnits="userSpaceOnUse">
      <stop stop-color="#13C3D0" />
      <stop offset="0.01" stop-color="#1FB5CE" />
      <stop offset="0.04" stop-color="#408FCA" />
      <stop offset="0.08" stop-color="#5B6FC6" />
      <stop offset="0.11" stop-color="#7057C4" />
      <stop offset="0.15" stop-color="#7E46C2" />
      <stop offset="0.18" stop-color="#873BC0" />
      <stop offset="0.23" stop-color="#8A38C0" />
      <stop offset="0.43" stop-color="#9932C0" />
      <stop offset="0.82" stop-color="#C023BE" />
      <stop offset="0.95" stop-color="#CE1EBE" />
    </linearGradient>
    <radialGradient id="paint9_radial_3359_21597" cx="0" cy="0" r="1" gradientUnits="userSpaceOnUse"
      gradientTransform="translate(62.791 28.9911) rotate(-1.21849) scale(54.8988 60.1324)">
      <stop offset="0.05" stop-color="#F5C3FF" />
      <stop offset="0.2" stop-color="#F1BBFC" />
      <stop offset="0.43" stop-color="#E6A6F3" />
      <stop offset="0.71" stop-color="#D584E5" />
      <stop offset="0.89" stop-color="#C86BDA" />
      <stop offset="0.92" stop-color="#9982D7" />
      <stop offset="0.99" stop-color="#23BBD1" />
      <stop offset="1" stop-color="#13C3D0" />
    </radialGradient>
    <radialGradient id="paint10_radial_3359_21597" cx="0" cy="0" r="1" gradientUnits="userSpaceOnUse"
      gradientTransform="translate(40.1464 66.572) rotate(-1.21849) scale(27.5201 30.1436)">
      <stop offset="0.05" stop-color="#F5C3FF" />
      <stop offset="0.19" stop-color="#F1BBFC" />
      <stop offset="0.41" stop-color="#E6A6F3" />
      <stop offset="0.67" stop-color="#D584E5" />
      <stop offset="0.84" stop-color="#C86BDA" />
      <stop offset="0.88" stop-color="#9982D7" />
      <stop offset="0.99" stop-color="#23BBD1" />
      <stop offset="1" stop-color="#13C3D0" />
    </radialGradient>
    <radialGradient id="paint11_radial_3359_21597" cx="0" cy="0" r="1" gradientUnits="userSpaceOnUse"
      gradientTransform="translate(32.714 52.0188) rotate(-1.21849) scale(37.3912 40.9557)">
      <stop stop-color="#C86BDA" />
      <stop offset="0.16" stop-color="#9982D7" />
      <stop offset="0.51" stop-color="#23BBD1" />
      <stop offset="0.56" stop-color="#13C3D0" />
      <stop offset="0.99" stop-color="#6F97D6" />
    </radialGradient>
    <radialGradient id="paint12_radial_3359_21597" cx="0" cy="0" r="1" gradientUnits="userSpaceOnUse"
      gradientTransform="translate(13.902 38.7305) rotate(-1.21849) scale(50.5007 55.315)">
      <stop stop-color="#CE1EBE" />
      <stop offset="0.21" stop-color="#9A168D" />
      <stop offset="0.48" stop-color="#5D0D52" />
      <stop offset="0.72" stop-color="#300727" />
      <stop offset="0.9" stop-color="#14030D" />
      <stop offset="1" stop-color="#0A0103" />
    </radialGradient>
    <radialGradient id="paint13_radial_3359_21597" cx="0" cy="0" r="1" gradientUnits="userSpaceOnUse"
      gradientTransform="translate(34.1748 88.6455) rotate(-1.21849) scale(13.456 14.7388)">
      <stop stop-color="#C86BDA" />
      <stop offset="0.16" stop-color="#9982D7" />
      <stop offset="0.51" stop-color="#23BBD1" />
      <stop offset="0.56" stop-color="#13C3D0" />
      <stop offset="0.99" stop-color="#6F97D6" />
    </radialGradient>
    <linearGradient id="paint14_linear_3359_21597" x1="243.41" y1="94.8766" x2="270.194" y2="86.6116"
      gradientUnits="userSpaceOnUse">
      <stop stop-color="#13C3D0" />
      <stop offset="0.01" stop-color="#1FB5CE" />
      <stop offset="0.04" stop-color="#408FCA" />
      <stop offset="0.08" stop-color="#5B6FC6" />
      <stop offset="0.11" stop-color="#7057C4" />
      <stop offset="0.15" stop-color="#7E46C2" />
      <stop offset="0.18" stop-color="#873BC0" />
      <stop offset="0.23" stop-color="#8A38C0" />
      <stop offset="0.95" stop-color="#CE1EBE" />
    </linearGradient>
    <radialGradient id="paint15_radial_3359_21597" cx="0" cy="0" r="1" gradientUnits="userSpaceOnUse"
      gradientTransform="translate(263.366 86.0064) rotate(-178.782) scale(31.9112 34.9533)">
      <stop stop-color="#C86BDA" />
      <stop offset="0.28" stop-color="#9982D7" />
      <stop offset="0.91" stop-color="#23BBD1" />
      <stop offset="1" stop-color="#13C3D0" />
    </radialGradient>
    <linearGradient id="paint16_linear_3359_21597" x1="269.238" y1="87.2477" x2="238.704" y2="76.8469"
      gradientUnits="userSpaceOnUse">
      <stop offset="0.07" stop-color="#560087" />
      <stop offset="0.65" stop-color="#6A1690" />
      <stop offset="0.94" stop-color="#13C3D0" />
    </linearGradient>
    <linearGradient id="paint17_linear_3359_21597" x1="285.353" y1="62.6808" x2="246.294" y2="52.9537"
      gradientUnits="userSpaceOnUse">
      <stop stop-color="#13C3D0" />
      <stop offset="0.01" stop-color="#1FB5CE" />
      <stop offset="0.04" stop-color="#408FCA" />
      <stop offset="0.08" stop-color="#5B6FC6" />
      <stop offset="0.11" stop-color="#7057C4" />
      <stop offset="0.15" stop-color="#7E46C2" />
      <stop offset="0.18" stop-color="#873BC0" />
      <stop offset="0.23" stop-color="#8A38C0" />
      <stop offset="0.43" stop-color="#9932C0" />
      <stop offset="0.82" stop-color="#C023BE" />
      <stop offset="0.95" stop-color="#CE1EBE" />
    </linearGradient>
    <radialGradient id="paint18_radial_3359_21597" cx="0" cy="0" r="1" gradientUnits="userSpaceOnUse"
      gradientTransform="translate(230.107 24.6496) rotate(-178.782) scale(55.3301 60.6048)">
      <stop offset="0.05" stop-color="#F5C3FF" />
      <stop offset="0.2" stop-color="#F1BBFC" />
      <stop offset="0.43" stop-color="#E6A6F3" />
      <stop offset="0.71" stop-color="#D584E5" />
      <stop offset="0.89" stop-color="#C86BDA" />
      <stop offset="0.92" stop-color="#9982D7" />
      <stop offset="0.99" stop-color="#23BBD1" />
      <stop offset="1" stop-color="#13C3D0" />
    </radialGradient>
    <radialGradient id="paint19_radial_3359_21597" cx="0" cy="0" r="1" gradientUnits="userSpaceOnUse"
      gradientTransform="translate(253.384 62.577) rotate(-178.782) scale(27.5696 30.1979)">
      <stop offset="0.05" stop-color="#F5C3FF" />
      <stop offset="0.19" stop-color="#F1BBFC" />
      <stop offset="0.41" stop-color="#E6A6F3" />
      <stop offset="0.67" stop-color="#D584E5" />
      <stop offset="0.84" stop-color="#C86BDA" />
      <stop offset="0.88" stop-color="#9982D7" />
      <stop offset="0.99" stop-color="#23BBD1" />
      <stop offset="1" stop-color="#13C3D0" />
    </radialGradient>
    <radialGradient id="paint20_radial_3359_21597" cx="0" cy="0" r="1" gradientUnits="userSpaceOnUse"
      gradientTransform="translate(260.855 47.5756) rotate(-178.782) scale(37.7376 41.3352)">
      <stop stop-color="#C86BDA" />
      <stop offset="0.16" stop-color="#9982D7" />
      <stop offset="0.51" stop-color="#23BBD1" />
      <stop offset="0.56" stop-color="#13C3D0" />
      <stop offset="0.99" stop-color="#6F97D6" />
    </radialGradient>
    <radialGradient id="paint21_radial_3359_21597" cx="0" cy="0" r="1" gradientUnits="userSpaceOnUse"
      gradientTransform="translate(279.769 34.3047) rotate(-178.782) scale(50.7623 55.6015)">
      <stop stop-color="#CE1EBE" />
      <stop offset="0.21" stop-color="#9A168D" />
      <stop offset="0.48" stop-color="#5D0D52" />
      <stop offset="0.72" stop-color="#300727" />
      <stop offset="0.9" stop-color="#14030D" />
      <stop offset="1" stop-color="#0A0103" />
    </radialGradient>
    <radialGradient id="paint22_radial_3359_21597" cx="0" cy="0" r="1" gradientUnits="userSpaceOnUse"
      gradientTransform="translate(259.516 84.5301) rotate(-178.782) scale(13.6752 14.9789)">
      <stop stop-color="#C86BDA" />
      <stop offset="0.16" stop-color="#9982D7" />
      <stop offset="0.51" stop-color="#23BBD1" />
      <stop offset="0.56" stop-color="#13C3D0" />
      <stop offset="0.99" stop-color="#6F97D6" />
    </radialGradient>
    <linearGradient id="paint23_linear_3359_21597" x1="243.746" y1="70.8232" x2="217.519" y2="61.875"
      gradientUnits="userSpaceOnUse">
      <stop offset="0.07" stop-color="#560087" />
      <stop offset="0.67" stop-color="#6A1690" />
      <stop offset="0.94" stop-color="#13C3D0" />
    </linearGradient>
    <linearGradient id="paint24_linear_3359_21597" x1="49.7415" y1="71.8683" x2="75.5606" y2="63.0548"
      gradientUnits="userSpaceOnUse">
      <stop offset="0.07" stop-color="#560087" />
      <stop offset="0.67" stop-color="#6A1690" />
      <stop offset="0.94" stop-color="#13C3D0" />
    </linearGradient>
    <radialGradient id="paint25_radial_3359_21597" cx="0" cy="0" r="1" gradientUnits="userSpaceOnUse"
      gradientTransform="translate(146.697 2.79082) scale(131.002 139.32)">
      <stop offset="0.05" stop-color="#CE1EBE" />
      <stop offset="0.22" stop-color="#C920BE" />
      <stop offset="0.41" stop-color="#BB25BF" />
      <stop offset="0.63" stop-color="#A32EBF" />
      <stop offset="0.8" stop-color="#8A38C0" />
      <stop offset="0.84" stop-color="#873BC0" />
      <stop offset="0.88" stop-color="#7E46C2" />
      <stop offset="0.91" stop-color="#7057C4" />
      <stop offset="0.94" stop-color="#5B6FC6" />
      <stop offset="0.96" stop-color="#408FCA" />
      <stop offset="0.99" stop-color="#1FB5CE" />
      <stop offset="1" stop-color="#13C3D0" />
    </radialGradient>
    <radialGradient id="paint26_radial_3359_21597" cx="0" cy="0" r="1" gradientUnits="userSpaceOnUse"
      gradientTransform="translate(141.761 4.63283) scale(114.552 121.825)">
      <stop offset="0.05" stop-color="#F5C3FF" />
      <stop offset="0.22" stop-color="#F1BBFC" />
      <stop offset="0.48" stop-color="#E6A6F3" />
      <stop offset="0.8" stop-color="#D584E5" />
      <stop offset="1" stop-color="#C86BDA" />
    </radialGradient>
    <radialGradient id="paint27_radial_3359_21597" cx="0" cy="0" r="1" gradientUnits="userSpaceOnUse"
      gradientTransform="translate(144.024 3.33209) scale(116.178 123.554)">
      <stop offset="0.05" stop-color="#F5C3FF" />
      <stop offset="0.22" stop-color="#F1BBFC" />
      <stop offset="0.48" stop-color="#E6A6F3" />
      <stop offset="0.8" stop-color="#D584E5" />
      <stop offset="1" stop-color="#C86BDA" />
    </radialGradient>
    <radialGradient id="paint28_radial_3359_21597" cx="0" cy="0" r="1" gradientUnits="userSpaceOnUse"
      gradientTransform="translate(145.839 1.12932) scale(119.748 127.351)">
      <stop stop-color="white" />
      <stop offset="0.41" stop-color="#F5C3FF" />
      <stop offset="0.52" stop-color="#F1BBFC" />
      <stop offset="0.68" stop-color="#E6A6F3" />
      <stop offset="0.88" stop-color="#D584E5" />
      <stop offset="1" stop-color="#C86BDA" />
    </radialGradient>
    <radialGradient id="paint29_radial_3359_21597" cx="0" cy="0" r="1" gradientUnits="userSpaceOnUse"
      gradientTransform="translate(149.078 3.1517) scale(115.266 122.585)">
      <stop offset="0.05" stop-color="#F5C3FF" />
      <stop offset="0.22" stop-color="#F1BBFC" />
      <stop offset="0.48" stop-color="#E6A6F3" />
      <stop offset="0.8" stop-color="#D584E5" />
      <stop offset="1" stop-color="#C86BDA" />
    </radialGradient>
    <radialGradient id="paint30_radial_3359_21597" cx="0" cy="0" r="1" gradientUnits="userSpaceOnUse"
      gradientTransform="translate(146.568 48.7046) scale(104.386 111.014)">
      <stop offset="0.05" stop-color="#F5C3FF" />
      <stop offset="0.2" stop-color="#F1BBFC" />
      <stop offset="0.43" stop-color="#E6A6F3" />
      <stop offset="0.71" stop-color="#D584E5" />
      <stop offset="0.89" stop-color="#C86BDA" />
      <stop offset="0.92" stop-color="#9982D7" />
      <stop offset="0.99" stop-color="#23BBD1" />
      <stop offset="1" stop-color="#13C3D0" />
    </radialGradient>
    <radialGradient id="paint31_radial_3359_21597" cx="0" cy="0" r="1" gradientUnits="userSpaceOnUse"
      gradientTransform="translate(29.5913 26.7214) rotate(180) scale(47.1738 50.1691)">
      <stop stop-color="#C86BDA" />
      <stop offset="0.16" stop-color="#9982D7" />
      <stop offset="0.51" stop-color="#23BBD1" />
      <stop offset="0.56" stop-color="#13C3D0" />
      <stop offset="0.99" stop-color="#6F97D6" />
    </radialGradient>
    <radialGradient id="paint32_radial_3359_21597" cx="0" cy="0" r="1" gradientUnits="userSpaceOnUse"
      gradientTransform="translate(263.722 24.6012) scale(47.711 50.7405)">
      <stop stop-color="#C86BDA" />
      <stop offset="0.16" stop-color="#9982D7" />
      <stop offset="0.51" stop-color="#23BBD1" />
      <stop offset="0.56" stop-color="#13C3D0" />
      <stop offset="0.99" stop-color="#6F97D6" />
    </radialGradient>
    <radialGradient id="paint33_radial_3359_21597" cx="0" cy="0" r="1" gradientUnits="userSpaceOnUse"
      gradientTransform="translate(62.428 -4.77991) scale(78.2577 83.2267)">
      <stop stop-color="#CE1EBE" />
      <stop offset="0.21" stop-color="#9A168D" />
      <stop offset="0.48" stop-color="#5D0D52" />
      <stop offset="0.72" stop-color="#300727" />
      <stop offset="0.9" stop-color="#14030D" />
      <stop offset="1" stop-color="#0A0103" />
    </radialGradient>
    <radialGradient id="paint34_radial_3359_21597" cx="0" cy="0" r="1" gradientUnits="userSpaceOnUse"
      gradientTransform="translate(238.773 -8.31358) scale(72.4679 77.0693)">
      <stop stop-color="#CE1EBE" />
      <stop offset="0.21" stop-color="#9A168D" />
      <stop offset="0.48" stop-color="#5D0D52" />
      <stop offset="0.72" stop-color="#300727" />
      <stop offset="0.9" stop-color="#14030D" />
      <stop offset="1" stop-color="#0A0103" />
    </radialGradient>
  </defs>
</svg>