<svg width="149" height="137" viewBox="0 0 149 137" fill="none" xmlns="http://www.w3.org/2000/svg">
<path d="M0.0742188 78.8179L83.575 0.317871L148.575 0.317952L0.0754424 136.818L0.0742188 78.8179Z" fill="url(#paint0_linear_3684_1977)" fill-opacity="0.9"/>
<path d="M42.8761 55.879L45.1401 56.5688C43.5296 59.3206 40.8683 62.4189 37.1401 65.8459L35.0981 64.7239C38.4906 61.6054 41.0607 58.6562 42.8761 55.879ZM44.2164 59.1457L46.1095 58.1553C47.0406 59.8421 47.7033 61.4497 48.1315 62.9794L46.1954 63.7812C45.8102 62.4401 45.1623 60.8841 44.2164 59.1457ZM47.9142 50.7916L50.4002 51.0491C50.5544 53.8412 50.1824 56.6282 49.2839 59.41L46.9458 58.4623C47.8519 55.9016 48.1801 53.3506 47.9142 50.7916ZM53.0444 54.8123L55.5128 55.086C55.6733 58.1332 55.2559 61.19 54.262 64.2226L51.9239 63.2749C52.9608 60.431 53.3343 57.6101 53.0444 54.8123ZM57.9407 59.1459L60.4783 59.3886C60.8109 63.1904 60.4151 66.9445 59.3071 70.6687L56.8525 69.6651C58.0359 66.1649 58.3879 62.6467 57.9407 59.1459ZM41.9491 71.0421L45.6067 67.6801L44.2261 66.1782L46.0637 64.489L47.4443 65.9909L50.7307 62.9699L52.3549 64.7368L49.0685 67.7578L49.7344 68.4823C51.3305 68.0908 52.9916 67.7701 54.7516 67.5214L55.1666 70.1717C53.6392 70.1413 52.3477 70.1549 51.3261 70.2138L55.2404 74.4721L53.4028 76.1613L49.0337 71.4083C49.4143 73.6664 49.4585 75.8424 49.1503 77.9186L46.5768 77.3177C47.1792 74.7103 47.2671 72.2171 46.8068 69.8368L43.5733 72.809L41.9491 71.0421ZM41.7757 61.8456C43.0267 62.3909 44.1081 62.929 45.0362 63.4776L44.0349 65.4737C42.9416 64.8162 41.8114 64.2251 40.6269 63.7166L41.7757 61.8456ZM38.9024 65.1388C40.2092 65.5675 41.5916 66.2202 43.0346 67.0452L41.9091 68.7644C40.5975 68.0467 39.2639 67.4471 37.8921 66.9477L38.9024 65.1388Z" fill="white" fill-opacity="0.88"/>
<path d="M60.7242 43.189L54.2396 49.1498L52.6804 47.4535L67.2928 34.0215L68.3648 35.1877C68.6873 35.9996 68.9229 36.8588 69.0702 37.7992L67.1269 38.7705C67.0762 38.3607 66.9916 37.9495 66.8908 37.5206L62.5618 41.4999L63.5688 42.5953L68.1275 38.4049L69.5892 39.9952L65.0306 44.1856L65.8427 45.069C66.4611 44.5006 67.1841 43.8686 67.9792 43.1377C70.1702 41.1237 71.781 39.5779 72.7938 38.5164L74.1826 40.6301L69.995 44.4795C66.5848 47.6141 64.3183 49.4041 63.1941 49.8834C62.3822 50.2059 61.5111 50.3221 60.5615 50.2821C60.8379 51.7885 60.8796 53.2171 60.7222 54.5353L58.0686 54.6274C58.5162 52.0645 58.2001 49.4863 57.1527 46.9284L59.3453 46.0865C59.6043 46.7938 59.8485 47.4495 60.0587 48.1038C61.0598 48.129 61.9868 47.8962 62.8221 47.4218C63.1006 47.2637 63.4673 47.0243 63.9239 46.6698L60.7242 43.189ZM61.0881 54.7206L66.6009 49.6531L65.7076 48.6813L67.5452 46.9921L68.4385 47.9639L74.0043 42.8477L78.0648 47.265L77.4464 47.8335C78.8324 47.9938 80.2157 48.2218 81.5932 48.5856L81.169 50.9966C80.5156 50.7823 79.9109 50.621 79.374 50.4625C76.9954 53.3009 73.1207 57.3842 67.7498 62.7124L65.5955 61.4327C67.9661 59.1885 70.0553 57.1702 71.8795 55.3956L70.6614 54.0704L65.1486 59.1379L61.0881 54.7206ZM77.2901 49.9331L76.2622 49.737L76.4392 48.7593L72.499 52.3812L73.6522 53.6357C75.0714 52.2008 76.2949 50.9783 77.2901 49.9331ZM74.7344 47.2947L73.7111 46.1816L69.9653 49.6248L70.9885 50.738L74.7344 47.2947ZM69.1509 52.4272L68.1277 51.314L64.4348 54.7085L65.458 55.8217L69.1509 52.4272Z" fill="white" fill-opacity="0.88"/>
<defs>
<linearGradient id="paint0_linear_3684_1977" x1="116.287" y1="-59.5935" x2="70.0451" y2="248.277" gradientUnits="userSpaceOnUse">
<stop stop-color="#FFC9C9"/>
<stop offset="1" stop-color="#FF3F2F"/>
</linearGradient>
</defs>
</svg>
