<svg xmlns="http://www.w3.org/2000/svg" width="45" height="50" viewBox="0 0 45 50" fill="none">
  <path opacity="0.2" d="M44.6276 26.8754C44.6276 31.2744 43.3232 35.5745 40.8792 39.2321C38.4353 42.8897 34.9616 45.7405 30.8975 47.4239C26.8334 49.1073 22.3614 49.5478 18.0469 48.6896C13.7325 47.8314 9.76946 45.7131 6.65892 42.6025C3.54839 39.492 1.4301 35.5289 0.57191 31.2145C-0.286285 26.9001 0.154158 22.428 1.83757 18.3639C3.52098 14.2998 6.37172 10.8262 10.0293 8.38223C13.6869 5.9383 17.9871 4.63385 22.386 4.63385C28.2849 4.63385 33.9421 6.97715 38.1132 11.1482C42.2843 15.3193 44.6276 20.9766 44.6276 26.8754Z" fill="black"/>
  <path opacity="0.2" d="M44.6276 24.6508C44.6276 29.0498 43.3232 33.35 40.8792 37.0076C38.4353 40.6652 34.9616 43.5159 30.8975 45.1993C26.8334 46.8827 22.3614 47.3232 18.0469 46.465C13.7325 45.6068 9.76946 43.4885 6.65892 40.378C3.54839 37.2674 1.4301 33.3044 0.57191 28.9899C-0.286285 24.6755 0.154158 20.2035 1.83757 16.1394C3.52098 12.0753 6.37172 8.6016 10.0293 6.15767C13.6869 3.71374 17.9871 2.4093 22.386 2.4093C28.2849 2.4093 33.9421 4.7526 38.1132 8.92369C42.2843 13.0948 44.6276 18.752 44.6276 24.6508Z" fill="black"/>
  <path d="M44.6276 24.2055C44.6276 28.6044 43.3232 32.9046 40.8792 36.5622C38.4353 40.2198 34.9616 43.0705 30.8975 44.754C26.8334 46.4374 22.3614 46.8778 18.0469 46.0196C13.7325 45.1614 9.76946 43.0431 6.65892 39.9326C3.54839 36.8221 1.4301 32.859 0.57191 28.5446C-0.286285 24.2301 0.154158 19.7581 1.83757 15.694C3.52098 11.6299 6.37172 8.15623 10.0293 5.7123C13.6869 3.26837 17.9871 1.96393 22.386 1.96393C28.2849 1.96393 33.9421 4.30722 38.1132 8.47832C42.2843 12.6494 44.6276 18.3066 44.6276 24.2055Z" fill="#A80F00"/>
  <path d="M22.2415 44.7423C17.8426 44.7423 13.5424 43.4378 9.88479 40.9939C6.22719 38.55 3.37644 35.0763 1.69304 31.0122C0.00962645 26.9481 -0.430816 22.4761 0.427378 18.1616C1.28557 13.8472 3.40386 9.88415 6.51439 6.77362C9.62493 3.66309 13.588 1.54479 17.9024 0.686591C22.2169 -0.171603 26.6889 0.268853 30.753 1.95226C34.8171 3.63567 38.2908 6.48643 40.7347 10.144C43.1786 13.8016 44.4831 18.1018 44.4831 22.5008C44.4831 28.3996 42.1398 34.0568 37.9687 38.2279C33.7976 42.399 28.1404 44.7423 22.2415 44.7423Z" fill="url(#paint0_linear_3359_22689)"/>
  <path d="M22.2415 0.259216C26.6405 0.259216 30.9407 1.56365 34.5983 4.00759C38.2559 6.45152 41.1066 9.92517 42.79 13.9893C44.4734 18.0534 44.9139 22.5254 44.0557 26.8398C43.1975 31.1543 41.0792 35.1174 37.9687 38.2279C34.8581 41.3384 30.8951 43.4567 26.5806 44.3149C22.2662 45.1731 17.7942 44.7327 13.7301 43.0492C9.66596 41.3658 6.1923 38.5151 3.74837 34.8575C1.30444 31.1999 1.56541e-05 26.8997 1.56541e-05 22.5007C1.56541e-05 16.6019 2.3433 10.9447 6.51439 6.77361C10.6855 2.60251 16.3427 0.259216 22.2415 0.259216ZM22.2415 0.259216C17.8426 0.259216 13.5424 1.56365 9.88479 4.00759C6.22719 6.45152 3.37644 9.92517 1.69304 13.9893C0.00962645 18.0534 -0.430816 22.5254 0.427378 26.8398C1.28557 31.1543 3.40386 35.1174 6.51439 38.2279C9.62493 41.3384 13.588 43.4567 17.9024 44.3149C22.2169 45.1731 26.6889 44.7327 30.753 43.0492C34.8171 41.3658 38.2908 38.5151 40.7347 34.8575C43.1786 31.1999 44.4831 26.8997 44.4831 22.5007C44.4831 16.6019 42.1398 10.9447 37.9687 6.77361C33.7976 2.60251 28.1404 0.259216 22.2415 0.259216Z" fill="#FF5E4F"/>
  <g style="mix-blend-mode:overlay" opacity="0.28">
    <path d="M44.6276 22.4269C44.6276 22.4269 34.5448 9.08196 22.3861 9.08196C10.2274 9.08196 0.144531 22.4269 0.144531 22.4269C0.144531 16.4789 2.50738 10.7745 6.71324 6.56869C10.9191 2.36283 16.6234 0 22.5714 0C28.5194 0 34.2238 2.36283 38.4296 6.56869C42.6355 10.7745 44.9983 16.4789 44.9983 22.4269H44.6276Z" fill="white"/>
  </g>
  <path d="M40.6329 12.5659C41.745 13.9745 42.1157 15.4573 41.4485 15.9763C40.7812 16.4952 39.3726 15.9763 38.3346 14.4935C37.2967 13.0107 36.8519 11.6021 37.5191 11.0831C38.1864 10.5642 39.595 11.2314 40.6329 12.5659Z" fill="white"/>
  <path d="M35.0701 7.15474C35.1965 7.31253 35.2653 7.50864 35.2653 7.71078C35.2653 7.91291 35.1965 8.10903 35.0701 8.26682C34.9123 8.39316 34.7162 8.46198 34.5141 8.46198C34.3119 8.46198 34.1158 8.39316 33.958 8.26682C33.8791 8.19725 33.816 8.11168 33.7727 8.01581C33.7294 7.91995 33.707 7.81596 33.707 7.71078C33.707 7.60559 33.7294 7.50161 33.7727 7.40575C33.816 7.30988 33.8791 7.22431 33.958 7.15474C34.109 7.01403 34.3077 6.93579 34.5141 6.93579C34.7204 6.93579 34.9192 7.01403 35.0701 7.15474Z" fill="white"/>
  <g style="mix-blend-mode:overlay">
    <path d="M16.6808 23.5399L10.7497 17.3123C11.2588 17.8467 11.7296 18.4165 12.1583 19.0174L13.5669 20.4261C14.6049 21.464 15.717 22.4278 16.6808 23.5399L15.0497 25.0227C14.5666 25.4811 14.1204 25.9769 13.7152 26.5054C12.7514 27.6175 11.7876 28.7296 10.7497 29.7675C10.7497 29.3227 12.6773 27.6175 13.6411 26.5054L14.9755 25.0968L16.6066 23.614C15.6428 22.5761 14.5307 21.6123 13.4928 20.5744L11.8617 19.0916L10.4531 17.3123L16.3842 23.5399C16.3842 23.5399 16.829 23.7623 16.6808 23.5399Z" fill="white"/>
  </g>
  <g style="mix-blend-mode:overlay">
    <path d="M10.5268 30.2126L11.2682 30.954C11.0599 30.6709 10.8099 30.421 10.5268 30.2126Z" fill="white"/>
  </g>
  <g style="mix-blend-mode:overlay">
    <path d="M13.7153 33.4752C14.0425 33.8161 14.389 34.1379 14.7532 34.4389C15.198 34.8096 15.4946 35.1803 15.8653 35.551C16.236 35.9217 16.3101 35.551 15.8653 35.551L13.4929 33.1045V32.7338C13.6406 32.9976 13.8145 33.246 14.0118 33.4752L13.567 32.8079L15.9394 35.1803V35.551L14.8274 34.4389L13.9377 33.4752C13.9377 33.4752 13.567 33.4752 13.7153 33.4752Z" fill="white"/>
  </g>
  <g style="mix-blend-mode:overlay">
    <path d="M12.23 32.0656H12.6748L11.8593 30.8794C12.14 31.2834 12.4631 31.6562 12.8231 31.9915C12.4187 31.6512 12.0687 31.2512 11.7852 30.8052L12.9714 31.9915C12.9714 31.9915 11.8593 31.9915 12.23 32.0656Z" fill="white"/>
  </g>
  <g style="mix-blend-mode:overlay">
    <path d="M12.6016 32.3616L13.1948 32.9548C13.4034 33.088 13.5805 33.2651 13.7137 33.4737L13.1948 32.8806C13.1948 32.8806 12.4534 32.2134 12.6016 32.3616Z" fill="white"/>
  </g>
  <g style="mix-blend-mode:overlay">
    <path d="M22.3202 29.9888L22.7651 30.5819V30.0629L22.2461 29.5439L22.3202 29.9888Z" fill="white"/>
  </g>
  <g style="mix-blend-mode:overlay">
    <path d="M26.6935 34.586L23.2832 30.805L22.8383 30.286C23.2832 30.286 23.5056 31.324 23.9504 31.8429L24.5435 32.436C24.7961 32.5663 25.0223 32.7422 25.2108 32.955C25.8319 33.8722 26.5809 34.696 27.4349 35.4016L26.7677 34.6602L27.3608 35.4016C26.5717 34.7013 25.8742 33.9042 25.2849 33.0291L24.6918 32.5102C24.4392 32.3799 24.213 32.2039 24.0245 31.9912L22.9125 30.4343L26.3228 34.2154L26.8418 34.7343C26.8418 34.7343 27.0642 34.8085 26.6935 34.586Z" fill="white"/>
  </g>
  <path d="M27.6447 35.5504C27.6447 35.5504 24.3084 32.0658 22.3067 29.8417C20.389 31.8571 18.3593 33.763 16.2273 35.5504C14.2039 33.8233 12.3199 31.9393 10.5928 29.9158C10.5928 29.9158 14.1515 26.0606 16.4497 23.7623C14.1515 21.2416 10.7411 17.683 10.5928 17.3864C10.4446 17.0899 15.8567 12.0485 16.2273 11.826L22.2326 17.5347C23.899 15.5059 25.7076 13.5982 27.6447 11.826C29.906 13.9917 32.0586 16.2681 34.0947 18.6468L28.6084 23.6882C30.5898 25.2765 32.4258 27.0381 34.0947 28.952C32.1088 31.3061 29.953 33.5115 27.6447 35.5504Z" fill="#FFFEFE"/>
  <path d="M27.6455 11.9006C28.2386 12.2713 31.8714 16.0523 34.1697 18.4989L28.7576 23.5403C30.7035 25.0618 32.5371 26.7219 34.2438 28.5076C32.2337 30.8885 30.0264 33.0957 27.6455 35.1059C27.1266 34.6611 24.161 31.4731 22.3817 29.4714C20.5347 31.4819 18.5531 33.3644 16.4506 35.1059C14.4775 33.4543 12.6426 31.6443 10.9644 29.6938C11.4092 29.1007 14.6713 25.6162 16.7472 23.5403C14.5971 21.3162 11.4092 17.9799 10.9644 17.3868C10.5195 16.7937 15.7092 12.5678 16.4506 11.9747C17.192 11.3816 20.2317 15.5334 22.3817 17.6092C24.0274 15.6322 25.7849 13.751 27.6455 11.9747M27.6455 11.9747C25.707 13.7455 23.8983 15.6533 22.2334 17.6834C22.2334 17.6834 16.3765 11.9747 16.2282 11.9747C14.2164 13.7393 12.3102 15.6207 10.5195 17.6092C10.5195 17.6092 16.3765 23.911 16.3765 23.911C16.3765 23.911 10.5195 29.9162 10.5195 30.1386C12.2324 32.2224 14.1444 34.1344 16.2282 35.8473C18.3512 34.0761 20.3571 32.1693 22.2334 30.1386C22.2334 30.1386 27.349 35.8473 27.6455 35.8473C30.0937 33.807 32.3518 31.5489 34.3921 29.1007C32.7138 27.2184 30.8784 25.4823 28.9059 23.911L34.0956 18.6472C34.0956 18.6472 27.7938 11.9006 27.349 11.9006L27.6455 11.9747Z" fill="#29070B"/>
  <g style="mix-blend-mode:color-dodge" opacity="0.12">
    <path d="M28.9095 23.6882L34.0992 18.6468C34.0992 18.6468 27.7974 11.9002 27.3526 11.9002C25.4141 13.671 23.6054 15.5788 21.9405 17.6089C21.9405 17.6089 16.0835 11.9002 15.9352 11.9002C13.9235 13.6648 12.0173 15.5462 10.2266 17.5347C10.2266 17.5347 16.0835 23.8365 16.0835 23.8365C16.0835 23.8365 10.2266 29.8417 10.2266 30.0641C11.9395 32.1479 13.8514 34.0599 15.9352 35.7728C18.059 34.0026 20.0651 32.0956 21.9405 30.0641C21.9405 30.0641 27.056 35.7728 27.3526 35.7728C29.8007 33.7325 32.0589 31.4744 34.0992 29.0262C32.5215 27.105 30.7855 25.3194 28.9095 23.6882Z" fill="url(#paint1_radial_3359_22689)"/>
  </g>
  <defs>
    <linearGradient id="paint0_linear_3359_22689" x1="22.2415" y1="0.110949" x2="22.2415" y2="44.7423" gradientUnits="userSpaceOnUse">
      <stop stop-color="#F95654"/>
      <stop offset="1" stop-color="#F90B17"/>
    </linearGradient>
    <radialGradient id="paint1_radial_3359_22689" cx="0" cy="0" r="1" gradientUnits="userSpaceOnUse" gradientTransform="translate(22.4594 23.6882) scale(11.9363 11.9363)">
      <stop stop-color="#F95654"/>
      <stop offset="1" stop-color="#F90B17"/>
    </radialGradient>
  </defs>
</svg>