<svg width="37" height="35" viewBox="0 0 37 35" fill="none" xmlns="http://www.w3.org/2000/svg">
<g id="Group">
<g id="Group_2">
<g id="Group_3" style="mix-blend-mode:multiply" opacity="0.3">
<path id="Vector" d="M17.8409 33.8937C26.4623 33.8937 33.4514 26.8807 33.4514 18.2297C33.4514 9.57869 26.4623 2.56567 17.8409 2.56567C9.21953 2.56567 2.23047 9.57869 2.23047 18.2297C2.23047 26.8807 9.21953 33.8937 17.8409 33.8937Z" fill="#070302"/>
<path id="Vector_2" d="M17.841 33.11C26.031 33.11 32.6703 26.4479 32.6703 18.2298C32.6703 10.0117 26.031 3.34961 17.841 3.34961C9.65102 3.34961 3.01172 10.0117 3.01172 18.2298C3.01172 26.4479 9.65102 33.11 17.841 33.11Z" fill="#070302"/>
<g id="Vector_3" style="mix-blend-mode:overlay" opacity="0.5">
<path d="M17.841 33.11C26.031 33.11 32.6703 26.4479 32.6703 18.2298C32.6703 10.0117 26.031 3.34961 17.841 3.34961C9.65102 3.34961 3.01172 10.0117 3.01172 18.2298C3.01172 26.4479 9.65102 33.11 17.841 33.11Z" fill="#070302"/>
</g>
<path id="Vector_4" d="M31.9582 24.5673C34.17 18.8341 29.7883 11.788 22.1717 8.8295C14.555 5.87098 6.58746 8.12031 4.37575 13.8535C2.16403 19.5867 6.54564 26.6327 14.1623 29.5912C21.779 32.5498 29.7465 30.3005 31.9582 24.5673Z" fill="#070302"/>
<g id="Vector_5" style="mix-blend-mode:soft-light">
<path d="M31.9582 24.5673C34.17 18.8341 29.7883 11.788 22.1717 8.8295C14.555 5.87098 6.58746 8.12031 4.37575 13.8535C2.16403 19.5867 6.54564 26.6327 14.1623 29.5912C21.779 32.5498 29.7465 30.3005 31.9582 24.5673Z" fill="#070302"/>
</g>
</g>
<g id="Group_4">
<path id="Vector_6" d="M18.4659 31.3871C27.0873 31.3871 34.0764 24.3741 34.0764 15.7231C34.0764 7.0721 27.0873 0.059082 18.4659 0.059082C9.8445 0.059082 2.85547 7.0721 2.85547 15.7231C2.85547 24.3741 9.8445 31.3871 18.4659 31.3871Z" fill="#3B1307"/>
<path id="Vector_7" d="M18.466 30.6034C26.656 30.6034 33.2953 23.9413 33.2953 15.7232C33.2953 7.50511 26.656 0.843018 18.466 0.843018C10.276 0.843018 3.63672 7.50511 3.63672 15.7232C3.63672 23.9413 10.276 30.6034 18.466 30.6034Z" fill="#E25452"/>
<path id="Vector_8" style="mix-blend-mode:overlay" opacity="0.5" d="M18.466 30.6034C26.656 30.6034 33.2953 23.9413 33.2953 15.7232C33.2953 7.50511 26.656 0.843018 18.466 0.843018C10.276 0.843018 3.63672 7.50511 3.63672 15.7232C3.63672 23.9413 10.276 30.6034 18.466 30.6034Z" fill="url(#paint0_linear_3224_8553)"/>
<path id="Vector_9" d="M32.595 22.0572C34.8067 16.324 30.4251 9.27801 22.8084 6.31949C15.1917 3.36097 7.22418 5.6103 5.01247 11.3435C2.80075 17.0767 7.18236 24.1227 14.7991 27.0812C22.4158 30.0398 30.3832 27.7904 32.595 22.0572Z" fill="#E25452"/>
<path id="Vector_10" style="mix-blend-mode:soft-light" d="M32.595 22.0572C34.8067 16.324 30.4251 9.27801 22.8084 6.31949C15.1917 3.36097 7.22418 5.6103 5.01247 11.3435C2.80075 17.0767 7.18236 24.1227 14.7991 27.0812C22.4158 30.0398 30.3832 27.7904 32.595 22.0572Z" fill="url(#paint1_linear_3224_8553)"/>
</g>
</g>
<path id="Vector_11" d="M23.9807 5.56682C23.9181 5.30694 24.2272 5.08059 24.6616 5.14766C25.7822 5.35147 26.7896 5.9598 27.4938 6.85783C27.7653 7.20574 27.711 7.58298 27.452 7.65005C27.193 7.7255 24.0434 5.8267 23.9807 5.56682Z" fill="white"/>
<path id="Vector_12" d="M28.1109 8.50525C28.1429 8.38452 28.2032 8.27323 28.2868 8.18063C28.3703 8.08803 28.4747 8.01681 28.5913 7.97291C28.7045 7.9302 28.8258 7.91371 28.9462 7.92469C29.0667 7.93567 29.1831 7.97383 29.2867 8.03631C29.3904 8.0988 29.4786 8.18399 29.5448 8.28552C29.611 8.38705 29.6535 8.50229 29.669 8.62261C29.6859 8.74664 29.6732 8.87292 29.6318 8.99101C29.5904 9.10909 29.5215 9.21558 29.4309 9.30165C29.2596 9.4274 28.0608 8.70644 28.1109 8.50525Z" fill="white"/>
<g id="Group_5">
<path id="Vector_13" opacity="0.6" d="M14.4754 22.8195C13.9439 22.8222 13.4206 22.6874 12.956 22.4283C12.4914 22.1691 12.1012 21.7943 11.8229 21.3399C11.4826 20.7444 11.3455 20.0537 11.4322 19.3728C11.5189 18.6919 11.8247 18.058 12.3032 17.5674C12.863 16.9848 13.4394 16.4106 14.0034 15.8531L14.112 15.7441L12.8045 14.4363C12.1847 13.9192 11.7216 13.2382 11.4678 12.4704C11.3147 11.8264 11.3694 11.1502 11.6239 10.5392C11.8784 9.92833 12.3195 9.41425 12.8839 9.07106C13.3549 8.79387 13.8917 8.64908 14.4378 8.6519C14.5775 8.65125 14.717 8.65966 14.8556 8.67705C15.5452 8.77474 16.1837 9.09729 16.6727 9.59501C17.2324 10.1441 17.7838 10.7016 18.3436 11.2716L18.4731 11.4016L19.8098 10.0561C20.2459 9.5509 20.7823 9.1426 21.3846 8.85728C21.7295 8.72875 22.0945 8.66344 22.4623 8.66447C23.2706 8.65713 24.0503 8.9635 24.6387 9.51956C25.0147 9.89667 25.2864 10.3655 25.4271 10.88C25.5677 11.3945 25.5724 11.9368 25.4407 12.4537C25.1965 13.206 24.7463 13.8741 24.1416 14.3818L22.8049 15.7231L24.4758 17.3998C25.0958 17.9627 25.477 18.7428 25.541 19.5794C25.5582 19.9964 25.4912 20.4127 25.344 20.8031C25.1968 21.1935 24.9726 21.55 24.6846 21.8513C24.4023 22.1508 24.0624 22.3899 23.6855 22.5541C23.3086 22.7183 22.9025 22.8043 22.4916 22.8069H22.3245C21.4834 22.7404 20.6984 22.3571 20.1273 21.7339L18.4564 20.0572L17.1489 21.3734C16.6411 21.9839 15.9766 22.4434 15.2273 22.7021C14.9828 22.7736 14.73 22.813 14.4754 22.8195Z" fill="#040000"/>
<path id="Vector_14" d="M24.2572 17.6093L23.7225 17.0644L22.3649 15.7021L23.8645 14.1931C24.4117 13.644 24.9381 13.1326 25.1177 12.3572C25.2353 11.8929 25.2309 11.4059 25.105 10.9439C24.9791 10.4818 24.7359 10.0603 24.3992 9.72068C24.0192 9.35201 23.5435 9.09797 23.0264 8.98753C22.5094 8.8771 21.9719 8.91473 21.4751 9.09614C20.8664 9.40272 20.3262 9.83059 19.8878 10.3536L18.4466 11.8039C17.7782 11.1291 17.1141 10.4542 16.4373 9.79613C15.9972 9.34276 15.42 9.04804 14.7957 8.95781C14.3507 8.89643 13.8975 8.94574 13.476 9.10141C13.0544 9.25708 12.6775 9.51434 12.3784 9.85054C12.0792 10.1867 11.867 10.5916 11.7604 11.0294C11.6538 11.4673 11.6562 11.9247 11.7672 12.3614C11.9593 13.1285 12.4815 13.644 13.0203 14.1847C13.5592 14.7255 14.0396 15.2033 14.5492 15.7147C13.8683 16.3895 13.1874 17.0644 12.5232 17.756C12.078 18.181 11.7874 18.7433 11.6976 19.3533C11.6077 19.9633 11.7239 20.5859 12.0275 21.122C12.3311 21.6581 12.8048 22.0769 13.3731 22.3115C13.9413 22.5462 14.5715 22.5834 15.1633 22.417C15.8608 22.1685 16.4775 21.7337 16.947 21.1596L18.4758 19.6254L19.633 20.7823L20.3514 21.5033C20.8614 22.0824 21.5728 22.4438 22.3398 22.5135C22.7264 22.5298 23.1122 22.4649 23.4723 22.3227C23.8324 22.1805 24.1589 21.9643 24.4308 21.688C24.7026 21.4116 24.9138 21.0813 25.0509 20.7181C25.1879 20.3549 25.2476 19.967 25.2263 19.5793C25.1626 18.8235 24.8164 18.1197 24.2572 17.6093Z" fill="white"/>
</g>
</g>
<defs>
<linearGradient id="paint0_linear_3224_8553" x1="12.6721" y1="29.4256" x2="24.3315" y2="2.04959" gradientUnits="userSpaceOnUse">
<stop offset="0.4" stop-color="#1A1A1A"/>
<stop offset="0.58" stop-color="white"/>
</linearGradient>
<linearGradient id="paint1_linear_3224_8553" x1="17.8473" y1="5.11077" x2="15.4922" y2="27.8468" gradientUnits="userSpaceOnUse">
<stop stop-color="#040000"/>
<stop offset="1" stop-color="white"/>
</linearGradient>
</defs>
</svg>
