<svg xmlns="http://www.w3.org/2000/svg" width="45" height="45" viewBox="0 0 45 45" fill="none">
  <g style="mix-blend-mode:darken">
    <path d="M22.4993 44.9601C32.4185 44.9601 40.4596 36.9368 40.4596 27.0395C40.4596 17.1422 32.4185 9.1189 22.4993 9.1189C12.5801 9.1189 4.53906 17.1422 4.53906 27.0395C4.53906 36.9368 12.5801 44.9601 22.4993 44.9601Z" fill="white"/>
    <path d="M22.4993 44.8144C32.4185 44.8144 40.4596 36.7852 40.4596 26.8806C40.4596 16.976 32.4185 8.94678 22.4993 8.94678C12.5801 8.94678 4.53906 16.976 4.53906 26.8806C4.53906 36.7852 12.5801 44.8144 22.4993 44.8144Z" fill="#F5F5F5"/>
    <path d="M22.4993 44.6558C32.4185 44.6558 40.4596 36.6207 40.4596 26.7088C40.4596 16.7969 32.4185 8.76172 22.4993 8.76172C12.5801 8.76172 4.53906 16.7969 4.53906 26.7088C4.53906 36.6207 12.5801 44.6558 22.4993 44.6558Z" fill="#EBEBEB"/>
    <path d="M22.4993 44.5099C32.4185 44.5099 40.4596 36.4688 40.4596 26.5497C40.4596 16.6305 32.4185 8.58936 22.4993 8.58936C12.5801 8.58936 4.53906 16.6305 4.53906 26.5497C4.53906 36.4688 12.5801 44.5099 22.4993 44.5099Z" fill="#E2E2E2"/>
    <path d="M22.4993 44.3516C32.4185 44.3516 40.4596 36.3046 40.4596 26.3781C40.4596 16.4516 32.4185 8.40454 22.4993 8.40454C12.5801 8.40454 4.53906 16.4516 4.53906 26.3781C4.53906 36.3046 12.5801 44.3516 22.4993 44.3516Z" fill="#D8D8D8"/>
    <path d="M22.4993 44.206C32.4185 44.206 40.4596 36.153 40.4596 26.2192C40.4596 16.2854 32.4185 8.23242 22.4993 8.23242C12.5801 8.23242 4.53906 16.2854 4.53906 26.2192C4.53906 36.153 12.5801 44.206 22.4993 44.206Z" fill="#CECECE"/>
    <path d="M22.4993 44.0601C32.4185 44.0601 40.4596 36.0012 40.4596 26.0601C40.4596 16.1189 32.4185 8.06006 22.4993 8.06006C12.5801 8.06006 4.53906 16.1189 4.53906 26.0601C4.53906 36.0012 12.5801 44.0601 22.4993 44.0601Z" fill="#C4C4C4"/>
    <path d="M22.4993 43.9015C32.4185 43.9015 40.4596 35.8367 40.4596 25.8882C40.4596 15.9398 32.4185 7.875 22.4993 7.875C12.5801 7.875 4.53906 15.9398 4.53906 25.8882C4.53906 35.8367 12.5801 43.9015 22.4993 43.9015Z" fill="#BABABA"/>
    <path d="M22.4993 43.7556C32.4185 43.7556 40.4596 35.6849 40.4596 25.7291C40.4596 15.7734 32.4185 7.70264 22.4993 7.70264C12.5801 7.70264 4.53906 15.7734 4.53906 25.7291C4.53906 35.6849 12.5801 43.7556 22.4993 43.7556Z" fill="#B1B1B1"/>
    <path d="M22.4993 43.5837C32.4185 43.5837 40.4596 35.513 40.4596 25.5572C40.4596 15.6015 32.4185 7.53076 22.4993 7.53076C12.5801 7.53076 4.53906 15.6015 4.53906 25.5572C4.53906 35.513 12.5801 43.5837 22.4993 43.5837Z" fill="#A7A7A7"/>
    <path d="M22.4993 43.4383C32.4185 43.4383 40.4596 35.3616 40.4596 25.3986C40.4596 15.4355 32.4185 7.35889 22.4993 7.35889C12.5801 7.35889 4.53906 15.4355 4.53906 25.3986C4.53906 35.3616 12.5801 43.4383 22.4993 43.4383Z" fill="#9D9D9D"/>
    <path d="M22.4993 43.2792C32.4185 43.2792 40.4596 35.1966 40.4596 25.2263C40.4596 15.2559 32.4185 7.17334 22.4993 7.17334C12.5801 7.17334 4.53906 15.2559 4.53906 25.2263C4.53906 35.1966 12.5801 43.2792 22.4993 43.2792Z" fill="#939393"/>
    <path d="M22.4993 43.1338C32.4185 43.1338 40.4596 35.0453 40.4596 25.0676C40.4596 15.09 32.4185 7.00146 22.4993 7.00146C12.5801 7.00146 4.53906 15.09 4.53906 25.0676C4.53906 35.0453 12.5801 43.1338 22.4993 43.1338Z" fill="#898989"/>
    <path d="M22.4993 42.975C32.4185 42.975 40.4596 34.8806 40.4596 24.8956C40.4596 14.9106 32.4185 6.81616 22.4993 6.81616C12.5801 6.81616 4.53906 14.9106 4.53906 24.8956C4.53906 34.8806 12.5801 42.975 22.4993 42.975Z" fill="#808080"/>
    <path d="M22.4993 42.8293C32.4185 42.8293 40.4596 34.729 40.4596 24.7367C40.4596 14.7444 32.4185 6.64404 22.4993 6.64404C12.5801 6.64404 4.53906 14.7444 4.53906 24.7367C4.53906 34.729 12.5801 42.8293 22.4993 42.8293Z" fill="#767676"/>
    <path d="M22.4993 42.6705C32.4185 42.6705 40.4596 34.5642 40.4596 24.5646C40.4596 14.565 32.4185 6.45874 22.4993 6.45874C12.5801 6.45874 4.53906 14.565 4.53906 24.5646C4.53906 34.5642 12.5801 42.6705 22.4993 42.6705Z" fill="#6C6C6C"/>
    <path d="M22.4993 42.5251C32.4185 42.5251 40.4596 34.4129 40.4596 24.406C40.4596 14.3991 32.4185 6.28687 22.4993 6.28687C12.5801 6.28687 4.53906 14.3991 4.53906 24.406C4.53906 34.4129 12.5801 42.5251 22.4993 42.5251Z" fill="#626262"/>
    <path d="M22.4993 42.3792C32.4185 42.3792 40.4596 34.2611 40.4596 24.2469C40.4596 14.2326 32.4185 6.1145 22.4993 6.1145C12.5801 6.1145 4.53906 14.2326 4.53906 24.2469C4.53906 34.2611 12.5801 42.3792 22.4993 42.3792Z" fill="#585858"/>
    <path d="M22.4993 42.2206C32.4185 42.2206 40.4596 34.0966 40.4596 24.075C40.4596 14.0535 32.4185 5.92944 22.4993 5.92944C12.5801 5.92944 4.53906 14.0535 4.53906 24.075C4.53906 34.0966 12.5801 42.2206 22.4993 42.2206Z" fill="#4E4E4E"/>
    <path d="M22.4993 42.0617C32.4185 42.0617 40.4596 33.9376 40.4596 23.9161C40.4596 13.8946 32.4185 5.77051 22.4993 5.77051C12.5801 5.77051 4.53906 13.8946 4.53906 23.9161C4.53906 33.9376 12.5801 42.0617 22.4993 42.0617Z" fill="#454545"/>
    <path d="M22.4993 41.9029C32.4185 41.9029 40.4596 33.7729 40.4596 23.744C40.4596 13.7152 32.4185 5.58521 22.4993 5.58521C12.5801 5.58521 4.53906 13.7152 4.53906 23.744C4.53906 33.7729 12.5801 41.9029 22.4993 41.9029Z" fill="#3B3B3B"/>
    <path d="M22.4993 41.7572C32.4185 41.7572 40.4596 33.6213 40.4596 23.5851C40.4596 13.549 32.4185 5.41309 22.4993 5.41309C12.5801 5.41309 4.53906 13.549 4.53906 23.5851C4.53906 33.6213 12.5801 41.7572 22.4993 41.7572Z" fill="#313131"/>
    <path d="M22.4993 41.5984C32.4185 41.5984 40.4596 33.4565 40.4596 23.4131C40.4596 13.3696 32.4185 5.22778 22.4993 5.22778C12.5801 5.22778 4.53906 13.3696 4.53906 23.4131C4.53906 33.4565 12.5801 41.5984 22.4993 41.5984Z" fill="#272727"/>
    <path d="M22.4993 41.4527C32.4185 41.4527 40.4596 33.305 40.4596 23.2542C40.4596 13.2034 32.4185 5.05566 22.4993 5.05566C12.5801 5.05566 4.53906 13.2034 4.53906 23.2542C4.53906 33.305 12.5801 41.4527 22.4993 41.4527Z" fill="#1D1D1D"/>
    <path d="M22.4993 41.2941C32.4185 41.2941 40.4596 33.1404 40.4596 23.0824C40.4596 13.0243 32.4185 4.87061 22.4993 4.87061C12.5801 4.87061 4.53906 13.0243 4.53906 23.0824C4.53906 33.1404 12.5801 41.2941 22.4993 41.2941Z" fill="#141414"/>
    <path d="M22.4993 41.1482C32.4185 41.1482 40.4596 32.9886 40.4596 22.9232C40.4596 12.8579 32.4185 4.69824 22.4993 4.69824C12.5801 4.69824 4.53906 12.8579 4.53906 22.9232C4.53906 32.9886 12.5801 41.1482 22.4993 41.1482Z" fill="#0A0A0A"/>
    <path d="M22.4993 41.0028C32.4185 41.0028 40.4596 32.8373 40.4596 22.7646C40.4596 12.6919 32.4185 4.52637 22.4993 4.52637C12.5801 4.52637 4.53906 12.6919 4.53906 22.7646C4.53906 32.8373 12.5801 41.0028 22.4993 41.0028Z" fill="black"/>
  </g>
  <path d="M22.4993 40.447C32.4185 40.447 40.4596 32.4059 40.4596 22.4867C40.4596 12.5675 32.4185 4.52637 22.4993 4.52637C12.5801 4.52637 4.53906 12.5675 4.53906 22.4867C4.53906 32.4059 12.5801 40.447 22.4993 40.447Z" fill="#FFF105"/>
  <path style="mix-blend-mode:soft-light" d="M22.4993 40.447C32.4185 40.447 40.4596 32.4059 40.4596 22.4867C40.4596 12.5675 32.4185 4.52637 22.4993 4.52637C12.5801 4.52637 4.53906 12.5675 4.53906 22.4867C4.53906 32.4059 12.5801 40.447 22.4993 40.447Z" fill="url(#paint0_radial_3359_22471)"/>
  <path style="mix-blend-mode:multiply" opacity="0.58" d="M22.4993 40.447C32.4185 40.447 40.4596 32.4059 40.4596 22.4867C40.4596 12.5675 32.4185 4.52637 22.4993 4.52637C12.5801 4.52637 4.53906 12.5675 4.53906 22.4867C4.53906 32.4059 12.5801 40.447 22.4993 40.447Z" fill="url(#paint1_radial_3359_22471)"/>
  <path opacity="0.05" d="M22.4985 44.9735C34.9176 44.9735 44.9852 34.9059 44.9852 22.4868C44.9852 10.0677 34.9176 0 22.4985 0C10.0794 0 0.0117188 10.0677 0.0117188 22.4868C0.0117188 34.9059 10.0794 44.9735 22.4985 44.9735Z" fill="white"/>
  <g style="mix-blend-mode:screen">
    <path d="M22.4985 44.9735C34.9176 44.9735 44.9852 34.9059 44.9852 22.4868C44.9852 10.0677 34.9176 0 22.4985 0C10.0794 0 0.0117188 10.0677 0.0117188 22.4868C0.0117188 34.9059 10.0794 44.9735 22.4985 44.9735Z" fill="url(#paint2_linear_3359_22471)"/>
    <path d="M22.5 0.794118C26.7904 0.794118 30.9845 2.06637 34.5518 4.44999C38.1191 6.83361 40.8995 10.2215 42.5414 14.1853C44.1833 18.1492 44.6128 22.5108 43.7758 26.7188C42.9388 30.9268 40.8728 34.792 37.839 37.8258C34.8052 40.8596 30.94 42.9256 26.732 43.7626C22.5241 44.5996 18.1624 44.17 14.1986 42.5282C10.2348 40.8863 6.84685 38.1059 4.46323 34.5386C2.07962 30.9712 0.807353 26.7772 0.807353 22.4868C0.814358 16.7357 3.10208 11.2221 7.16872 7.15549C11.2354 3.08884 16.7489 0.801123 22.5 0.794118ZM22.5 0C18.0499 0 13.6998 1.3196 9.99968 3.79193C6.29957 6.26427 3.41569 9.77829 1.71271 13.8896C0.0097432 18.001 -0.435824 22.525 0.432343 26.8895C1.30051 31.2541 3.44342 35.2632 6.5901 38.4099C9.73678 41.5566 13.7459 43.6995 18.1105 44.5677C22.475 45.4358 26.9991 44.9903 31.1104 43.2873C35.2217 41.5843 38.7357 38.7004 41.2081 35.0003C43.6804 31.3002 45 26.9501 45 22.5C45 16.5326 42.6295 10.8097 38.4099 6.5901C34.1903 2.37053 28.4674 0 22.5 0Z" fill="url(#paint3_linear_3359_22471)"/>
  </g>
  <g opacity="0.2">
    <path d="M22.6699 4.84401C25.8861 11.4617 16.714 11.872 15.1126 13.6455C13.5111 15.419 11.9096 24.6837 5.13316 19.244C2.6714 16.2528 4.61699 10.6014 9.46111 6.63078C14.3052 2.66019 20.2214 1.85284 22.6699 4.84401Z" fill="white"/>
  </g>
  <path d="M26.7647 22.4868L29.9941 19.2574C30.1826 19.0715 30.3323 18.85 30.4344 18.6057C30.5366 18.3615 30.5891 18.0994 30.5891 17.8346C30.5891 17.5699 30.5366 17.3078 30.4344 17.0635C30.3323 16.8193 30.1826 16.5977 29.9941 16.4118L28.5647 14.9824C28.379 14.7959 28.1583 14.648 27.9153 14.547C27.6723 14.446 27.4117 14.394 27.1485 14.394C26.8854 14.394 26.6248 14.446 26.3817 14.547C26.1387 14.648 25.918 14.7959 25.7323 14.9824L22.5029 18.2118L19.2735 14.9824C19.0878 14.7959 18.8671 14.648 18.6241 14.547C18.3811 14.446 18.1205 14.394 17.8573 14.394C17.5942 14.394 17.3336 14.446 17.0906 14.547C16.8476 14.648 16.6268 14.7959 16.4412 14.9824L14.9985 16.4118C14.6243 16.7908 14.4144 17.302 14.4144 17.8346C14.4144 18.3672 14.6243 18.8784 14.9985 19.2574L18.2279 22.4868L14.9985 25.7162C14.812 25.9019 14.6641 26.1226 14.5631 26.3656C14.4621 26.6087 14.4102 26.8692 14.4102 27.1324C14.4102 27.3956 14.4621 27.6561 14.5631 27.8992C14.6641 28.1422 14.812 28.3629 14.9985 28.5486L16.4412 29.978C16.6268 30.1645 16.8476 30.3125 17.0906 30.4134C17.3336 30.5144 17.5942 30.5664 17.8573 30.5664C18.1205 30.5664 18.3811 30.5144 18.6241 30.4134C18.8671 30.3125 19.0878 30.1645 19.2735 29.978L22.5029 26.8148L25.7323 30.0442C25.918 30.2307 26.1387 30.3786 26.3817 30.4796C26.6248 30.5806 26.8854 30.6325 27.1485 30.6325C27.4117 30.6325 27.6723 30.5806 27.9153 30.4796C28.1583 30.3786 28.379 30.2307 28.5647 30.0442L29.9941 28.6148C30.1822 28.43 30.3316 28.2096 30.4336 27.9664C30.5355 27.7233 30.588 27.4623 30.588 27.1986C30.588 26.9349 30.5355 26.6739 30.4336 26.4307C30.3316 26.1876 30.1822 25.9672 29.9941 25.7824L26.7647 22.4868Z" fill="#FF8B00" stroke="#4C2B0D" stroke-width="0.21" stroke-miterlimit="10"/>
  <defs>
    <radialGradient id="paint0_radial_3359_22471" cx="0" cy="0" r="1" gradientUnits="userSpaceOnUse" gradientTransform="translate(22.4994 22.4867) scale(17.9603 17.9603)">
      <stop stop-color="white"/>
      <stop offset="1"/>
    </radialGradient>
    <radialGradient id="paint1_radial_3359_22471" cx="0" cy="0" r="1" gradientUnits="userSpaceOnUse" gradientTransform="translate(22.4994 22.4867) scale(17.9603 17.9603)">
      <stop offset="0.56" stop-color="white"/>
      <stop offset="0.63" stop-color="#FEFDFC"/>
      <stop offset="0.69" stop-color="#FBF5F2"/>
      <stop offset="0.74" stop-color="#F5E7E1"/>
      <stop offset="0.79" stop-color="#EDD5C9"/>
      <stop offset="0.84" stop-color="#E3BDAA"/>
      <stop offset="0.89" stop-color="#D69F84"/>
      <stop offset="0.93" stop-color="#C77C57"/>
      <stop offset="0.97" stop-color="#B65525"/>
      <stop offset="1" stop-color="#AA3800"/>
    </radialGradient>
    <linearGradient id="paint2_linear_3359_22471" x1="33.7485" y1="41.9559" x2="11.2485" y2="3.00442" gradientUnits="userSpaceOnUse">
      <stop stop-color="#FAFAFA"/>
      <stop offset="0.06" stop-color="#C0C0C0"/>
      <stop offset="0.13" stop-color="#8D8D8D"/>
      <stop offset="0.19" stop-color="#626262"/>
      <stop offset="0.25" stop-color="#3E3E3E"/>
      <stop offset="0.31" stop-color="#232323"/>
      <stop offset="0.38" stop-color="#0F0F0F"/>
      <stop offset="0.44" stop-color="#040404"/>
      <stop offset="0.51"/>
      <stop offset="0.58" stop-color="#030303"/>
      <stop offset="0.65" stop-color="#0E0E0E"/>
      <stop offset="0.71" stop-color="#1F1F1F"/>
      <stop offset="0.76" stop-color="#373737"/>
      <stop offset="0.82" stop-color="#575757"/>
      <stop offset="0.87" stop-color="#7E7E7E"/>
      <stop offset="0.92" stop-color="#ACACAC"/>
      <stop offset="0.97" stop-color="#E0E0E0"/>
      <stop offset="1" stop-color="white"/>
    </linearGradient>
    <linearGradient id="paint3_linear_3359_22471" x1="33.75" y1="41.9559" x2="11.25" y2="3.00441" gradientUnits="userSpaceOnUse">
      <stop stop-color="white"/>
      <stop offset="0.51"/>
      <stop offset="1" stop-color="white"/>
    </linearGradient>
  </defs>
</svg>