<svg xmlns="http://www.w3.org/2000/svg" width="45" height="45" viewBox="0 0 45 45" fill="none">
  <g clip-path="url(#clip0_3359_22803)">
    <path opacity="0.5" fill-rule="evenodd" clip-rule="evenodd" d="M41.652 34.6114C40.5486 42.7804 37.0836 44.8194 31.4441 44.8194C31.4441 44.8194 19.9457 43.7934 13.6932 44.8194C7.44067 45.8453 2.39479 42.348 1.02685 35.5922C-0.341089 28.8364 0.0525154 14.8409 0.0525154 14.8409C0.0525154 9.20135 6.50505 2.45844 11.0218 2.43909C11.0218 2.43909 22.5525 3.98124 29.1857 3.21984C35.8189 2.45844 42.0779 8.07215 42.8457 14.5118C42.8457 14.5118 42.5876 27.2104 41.652 34.6114Z" fill="#087FAF"/>
    <path fill-rule="evenodd" clip-rule="evenodd" d="M43.8151 32.1788C42.7053 40.3477 39.2402 42.3867 33.6072 42.3867C33.6072 42.3867 22.1023 41.3608 15.8498 42.3867C9.59728 43.4127 4.5514 39.9219 3.18991 33.1596C1.82843 26.3973 2.20913 12.4018 2.20913 12.4018C2.20913 6.76226 8.66167 0.0258102 13.1784 0C13.1784 0 24.7091 1.54861 31.3488 0.780757C37.9885 0.0129051 44.241 5.63952 45.0024 12.0792C45.0024 12.0792 44.7507 24.7777 43.8151 32.1788Z" fill="url(#paint0_linear_3359_22803)"/>
    <path fill-rule="evenodd" clip-rule="evenodd" d="M42.5859 30.9077C41.5599 38.4894 38.3659 40.38 33.1716 40.38C33.1716 40.38 22.5701 39.4315 16.808 40.38C11.0459 41.3285 6.40652 38.07 5.16118 31.8175C3.91584 25.565 4.25782 12.5631 4.25782 12.5631C4.25782 7.33011 10.1748 1.08405 14.3948 1.0647C14.3948 1.0647 25.0221 2.49716 31.1714 1.79383C37.3206 1.09051 42.986 6.29125 43.6957 12.2599C43.6957 12.2599 43.457 24.0486 42.5859 30.9077Z" fill="url(#paint1_linear_3359_22803)"/>
    <path fill-rule="evenodd" clip-rule="evenodd" d="M40.0796 28.7331C39.2214 35.1147 36.5307 36.702 32.1623 36.702C32.1623 36.702 23.2384 35.9019 18.3861 36.702C13.5338 37.5021 9.62357 34.7663 8.56536 29.501C7.50714 24.2357 7.80396 13.2922 7.80396 13.2922C7.80396 8.89158 12.7853 3.6134 16.3342 3.6134C16.3342 3.6134 25.2774 4.82003 30.4266 4.25866C35.5757 3.69729 40.4086 8.0463 41.0023 13.0793C41.0023 13.047 40.8022 22.9581 40.0796 28.7331Z" fill="url(#paint2_linear_3359_22803)"/>
    <path fill-rule="evenodd" clip-rule="evenodd" d="M8.71785 30.1849C8.71785 30.1849 10.8407 36.7794 17.4804 36.844C17.4804 36.844 25.6364 35.0373 33.6569 36.631C33.6569 36.631 37.4446 35.5341 38.1737 34.2759C38.1737 34.2759 40.1095 32.0368 39.7481 35.2889C39.7481 35.2889 38.7802 37.457 39.7933 37.6247C39.7933 37.6247 40.303 38.0441 39.0706 38.7926C39.0706 38.7926 37.8575 40.2832 33.1665 40.38C33.1665 40.38 21.7584 39.4766 17.0739 40.38C17.0739 40.38 11.002 41.8769 7.39508 36.9408C7.38217 36.9408 6.63368 24.9907 8.71785 30.1849Z" fill="url(#paint3_linear_3359_22803)"/>
    <path fill-rule="evenodd" clip-rule="evenodd" d="M36.2505 35.6567C36.2505 35.6567 39.3026 35.0502 40.1221 28.1072L40.9286 12.7567C40.4198 10.5389 39.2466 8.5292 37.5656 6.99578C35.8846 5.46236 33.7758 4.47822 31.5208 4.17478C31.5208 4.17478 25.7136 5.23945 16.5961 3.65212C16.5961 3.65212 12.1632 1.8067 15.2669 2.14868C15.2669 2.14868 27.3331 2.79394 30.8433 1.8196C33.448 1.42559 36.1033 2.06972 38.2379 3.61341C38.2379 3.61341 43.1935 6.39445 43.6968 12.2598C43.6968 12.2598 44.2388 35.4244 39.864 38.07C39.864 38.07 36.4506 38.683 38.367 36.8311C38.367 36.8311 38.8122 36.3471 35.1407 36.1084L36.2505 35.6567Z" fill="url(#paint4_linear_3359_22803)"/>
    <path fill-rule="evenodd" clip-rule="evenodd" d="M22.707 4.39418C25.6036 4.89485 28.5576 4.97093 31.476 4.62002C31.476 4.62002 35.012 4.92974 37.2833 7.16878C37.2833 7.16878 40.4257 10.1498 40.5612 13.8472L40.516 20.803L41.2968 12.7825C41.2211 11.3186 40.8891 9.87939 40.316 8.53026C40.316 8.53026 39.6708 6.52997 40.5741 7.03972C40.5741 7.03972 41.3807 7.16878 40.4838 6.10411C40.4838 6.10411 37.1672 2.49069 32.7407 2.10999C32.7407 2.10999 31.6373 2.19387 33.2118 2.70362C33.2118 2.70362 33.857 3.0456 31.5535 3.21337C28.5657 3.21818 25.5915 3.61518 22.707 4.39418Z" fill="#F5FBFE"/>
    <path fill-rule="evenodd" clip-rule="evenodd" d="M28.9414 36.0439C28.9414 36.0439 33.4582 36.4181 34.3228 36.0439C34.3228 36.0439 38.6783 35.7987 40.072 28.6945C40.072 28.6945 39.8527 33.8565 37.2587 35.5858C37.1547 35.6754 37.085 35.7984 37.0615 35.9337C37.0379 36.069 37.062 36.2083 37.1297 36.3278C37.1297 36.3278 35.4714 36.5278 33.9421 36.844C33.9421 36.844 33.2969 37.1666 31.7741 36.844L28.9414 36.0439Z" fill="#95D9F2"/>
    <path fill-rule="evenodd" clip-rule="evenodd" d="M16.1315 4.62001C14.1543 5.18331 12.4528 6.45311 11.3502 8.18826C9.68541 10.9951 10.8985 9.33681 12.8794 8.76254C14.8603 8.18826 19.1448 14.5053 22.6808 19.4867C23.9465 21.397 25.6452 22.9816 27.6387 24.1118C29.6322 25.242 31.8643 25.8857 34.1534 25.9908C37.8572 26.3134 36.8958 28.1008 36.4505 31.1528C36.4505 31.1528 37.1539 34.0887 39.1283 29.7526L39.5155 27.4555C39.5155 27.4555 39.1929 17.88 39.5155 14.9441C39.5155 14.9441 40.7221 11.4403 35.9085 7.54301C35.9085 7.54301 33.0049 5.504 30.9659 5.82018C26.6503 6.38633 22.2652 6.0858 18.0673 4.93618C17.4887 4.58017 16.7932 4.46656 16.1315 4.62001Z" fill="url(#paint5_linear_3359_22803)"/>
    <path d="M26.4556 7.23327C26.4556 7.23327 27.1589 7.6785 30.9723 7.23327C32.4044 7.16999 33.818 7.57549 34.9987 8.38828C36.9345 9.73041 35.7988 13.4922 34.9987 13.4922C34.1986 13.4922 32.0306 10.7499 32.0306 10.7499L27.5654 9.51102C27.5654 9.51102 21.1967 7.74302 26.4556 7.48492C26.4556 7.48492 24.565 7.0397 26.4556 7.23327Z" fill="#D0ECF4"/>
    <path d="M38.3022 16.041C38.3022 16.041 38.1732 19.4222 38.3022 21.7193C38.4313 24.0164 37.0117 22.1774 37.0117 19.9384C37.0117 17.6993 37.857 13.2923 38.3022 16.041Z" fill="#D0ECF4"/>
    <path d="M10.9041 6.62678C9.29046 8.43186 8.21717 10.6545 7.80687 13.0406L7.74234 17.1251C7.74234 17.1251 7.58748 12.9116 6.24535 12.6083C4.90323 12.305 4.14183 12.647 4.65158 10.0273C5.16133 7.40754 6.30988 7.14944 6.18728 8.73676C6.06468 10.3241 7.52296 10.1047 9.12319 7.67855C10.7234 5.25239 13.1625 4.89105 10.9041 6.62678Z" fill="url(#paint6_linear_3359_22803)"/>
    <path d="M8.00261 14.0988C8.00261 14.0988 6.95085 29.3978 10.5836 33.3274C9.02446 31.715 8.05581 29.6231 7.83485 27.391C7.83485 27.391 6.73146 14.3376 8.00261 14.0988Z" fill="#95D9F2"/>
    <path d="M31.5602 10.5951C28.0643 12.8765 24.82 15.5218 21.8813 18.4866C20.2738 16.6994 18.819 14.7806 17.5323 12.7503C17.5323 12.7503 16.8032 11.4146 15.7837 12.2986L14.4932 13.2858C14.4932 13.2858 12.7704 13.7504 14.0157 14.7893L15.5772 16.0798C15.5772 16.0798 16.9645 18.2994 19.1519 21.2418C16.2418 24.3003 14.3061 26.6813 14.3061 26.6813L12.48 27.8557C11.0282 28.7977 12.6284 29.6946 12.6284 29.6946L13.6995 31.1206C14.5061 32.3595 15.5127 30.9787 15.5127 30.9787C17.4106 28.6823 19.5071 26.5576 21.7781 24.6294C24.0542 27.5389 26.6253 30.2051 29.4502 32.5854C29.4502 32.5854 30.7794 33.7662 31.8183 33.1919C31.8183 33.1919 33.3927 31.553 34.1799 31.3336C34.1799 31.3336 35.5607 30.8432 34.7025 29.7204C31.321 27.3852 28.1318 24.783 25.1657 21.9387C28.6107 19.339 32.267 17.0317 36.0963 15.0409C36.2428 14.9153 36.3576 14.7568 36.4313 14.5784C36.5051 14.4 36.5356 14.2068 36.5205 14.0143C36.5054 13.8219 36.4451 13.6358 36.3445 13.471C36.2439 13.3063 36.1058 13.1677 35.9414 13.0664C35.2123 12.6406 34.0057 10.4015 34.0057 10.4015C33.1217 9.51109 31.5602 10.5951 31.5602 10.5951Z" fill="white"/>
    <path d="M33.1199 10.0531C33.2852 10.0473 33.45 10.0752 33.6042 10.1351C33.7584 10.195 33.8988 10.2857 34.0168 10.4015C34.0168 10.4015 35.2105 12.6406 35.9526 13.0664C36.1169 13.1677 36.255 13.3063 36.3556 13.471C36.4563 13.6357 36.5166 13.8219 36.5317 14.0143C36.5468 14.2067 36.5162 14.4 36.4425 14.5784C36.3688 14.7568 36.254 14.9153 36.1074 15.0409C32.2737 17.031 28.6131 19.3383 25.1639 21.9387C28.1301 24.783 31.3192 27.3852 34.7008 29.7204C35.559 30.8432 34.1781 31.3336 34.1781 31.3336C33.3909 31.5529 31.8165 33.1919 31.8165 33.1919C31.6203 33.3038 31.3971 33.3596 31.1712 33.3532C30.527 33.2835 29.9204 33.0152 29.4355 32.5853C26.6123 30.2152 24.0413 27.5599 21.7634 24.6616C19.488 26.5893 17.3871 28.714 15.4851 31.0109C15.4851 31.0109 15.0076 31.6562 14.4398 31.6562C14.2775 31.646 14.1209 31.5928 13.9859 31.5021C13.851 31.4114 13.7426 31.2864 13.672 31.14L12.6008 29.714C12.6008 29.714 11.0006 28.8171 12.4524 27.875L14.2785 26.7006C14.2785 26.7006 16.2143 24.3196 19.1244 21.2611C16.9369 18.2994 15.5497 16.0991 15.5497 16.0991L13.9881 14.8086C12.7428 13.7697 14.4656 13.3052 14.4656 13.3052L15.7561 12.3179C15.9459 12.1346 16.1959 12.0268 16.4595 12.0147C17.1047 12.0147 17.5048 12.7696 17.5048 12.7696C18.7915 14.8 20.2463 16.7188 21.8538 18.5059C24.7924 15.5411 28.0368 12.8958 31.5326 10.6145C31.9972 10.3013 32.5354 10.1145 33.0941 10.0724M33.0941 8.84646C32.2956 8.88233 31.5227 9.13922 30.8615 9.5885C27.6649 11.6545 24.6859 14.0391 21.9699 16.7057C20.7372 15.261 19.6095 13.73 18.5952 12.1243C18.3883 11.7386 18.0866 11.4119 17.7187 11.1749C17.3507 10.9378 16.9285 10.7983 16.4917 10.7693C15.9485 10.7792 15.4268 10.9828 15.0205 11.3436L13.9107 12.1824C13.5457 12.2884 13.213 12.4837 12.9426 12.7508C12.6721 13.0178 12.4726 13.3481 12.3621 13.7117C12.2929 14.0946 12.3366 14.4895 12.4879 14.8481C12.6391 15.2066 12.8913 15.5135 13.2138 15.7313L14.6334 16.9121C14.9625 17.4283 16.0078 19.0479 17.5435 21.1773C15.4012 23.4744 13.9043 25.2617 13.4655 25.7844L11.8007 26.8555C11.4478 27.0406 11.1523 27.319 10.9464 27.6602C10.7405 28.0015 10.632 28.3927 10.6328 28.7913C10.6664 29.1667 10.7857 29.5295 10.9814 29.8517C11.1772 30.1738 11.4442 30.4468 11.762 30.6496L12.6783 31.8691C12.8614 32.1788 13.1204 32.4367 13.4309 32.6185C13.7413 32.8003 14.093 32.8999 14.4527 32.908C14.8504 32.8783 15.2367 32.7618 15.5846 32.5667C15.9324 32.3716 16.2332 32.1026 16.4659 31.7788C18.0467 29.8658 19.7725 28.0775 21.6279 26.4296C23.7349 29.0275 26.0905 31.4133 28.6612 33.5532C29.3622 34.174 30.2498 34.544 31.1842 34.605C31.6128 34.6098 32.0352 34.5031 32.4101 34.2953L32.5779 34.2049L32.7069 34.0694C33.2386 33.4766 33.8511 32.9618 34.5266 32.5402H34.5653C34.9297 32.4172 35.2609 32.2118 35.5329 31.9398C35.8048 31.6678 36.0103 31.3367 36.1332 30.9722C36.2306 30.6276 36.2403 30.2641 36.1614 29.9147C36.0825 29.5654 35.9176 29.2413 35.6816 28.9719L35.559 28.8106L35.3848 28.7009C32.4704 26.6758 29.702 24.4485 27.0997 22.0354C30.1276 19.8333 33.3153 17.8598 36.6365 16.1314L36.8237 16.0346L36.9721 15.8862C37.2474 15.635 37.4615 15.3242 37.5979 14.9774C37.7344 14.6307 37.7896 14.2573 37.7593 13.8859C37.7106 13.5172 37.5856 13.1627 37.3923 12.8449C37.1989 12.5272 36.9416 12.2532 36.6365 12.0405H36.5978H36.5527C35.9802 11.3788 35.4925 10.6483 35.1008 9.86596L35.017 9.67884L34.8815 9.54979C34.6501 9.32026 34.3749 9.13968 34.0723 9.01884C33.7696 8.89801 33.4457 8.83938 33.1199 8.84646H33.0941Z" fill="url(#paint7_linear_3359_22803)"/>
  </g>
  <defs>
    <linearGradient id="paint0_linear_3359_22803" x1="6.11291" y1="39.3024" x2="41.0663" y2="4.34901" gradientUnits="userSpaceOnUse">
      <stop stop-color="#002651"/>
      <stop offset="0.14" stop-color="#003C6C"/>
      <stop offset="0.42" stop-color="#00679F"/>
      <stop offset="0.67" stop-color="#0085C4"/>
      <stop offset="0.87" stop-color="#0098DB"/>
      <stop offset="0.99" stop-color="#009FE3"/>
    </linearGradient>
    <linearGradient id="paint1_linear_3359_22803" x1="7.79382" y1="37.4699" x2="40.1146" y2="5.1427" gradientUnits="userSpaceOnUse">
      <stop stop-color="#006BB6"/>
      <stop offset="0.43" stop-color="#008FD5"/>
      <stop offset="0.78" stop-color="#00A6E8"/>
      <stop offset="1" stop-color="#00AEEF"/>
    </linearGradient>
    <linearGradient id="paint2_linear_3359_22803" x1="10.7915" y1="34.2565" x2="37.9889" y2="7.05261" gradientUnits="userSpaceOnUse">
      <stop stop-color="#00AEEF"/>
      <stop offset="0.15" stop-color="#1DB6F1"/>
      <stop offset="0.43" stop-color="#50C5F4"/>
      <stop offset="0.68" stop-color="#75D0F6"/>
      <stop offset="0.87" stop-color="#8CD7F7"/>
      <stop offset="1" stop-color="#94D9F8"/>
    </linearGradient>
    <linearGradient id="paint3_linear_3359_22803" x1="13.8154" y1="43.5223" x2="31.6437" y2="25.694" gradientUnits="userSpaceOnUse">
      <stop stop-color="#004376"/>
      <stop offset="0.14" stop-color="#004F85"/>
      <stop offset="0.51" stop-color="#006BAA"/>
      <stop offset="0.81" stop-color="#007CC1"/>
      <stop offset="1" stop-color="#0082C9"/>
    </linearGradient>
    <linearGradient id="paint4_linear_3359_22803" x1="23.1132" y1="24.0938" x2="41.1351" y2="6.07183" gradientUnits="userSpaceOnUse">
      <stop stop-color="#00AEEF"/>
      <stop offset="0.01" stop-color="#03AFEF"/>
      <stop offset="0.1" stop-color="#31BDF2"/>
      <stop offset="0.19" stop-color="#5AC9F5"/>
      <stop offset="0.29" stop-color="#7CD4F7"/>
      <stop offset="0.4" stop-color="#98DCF9"/>
      <stop offset="0.51" stop-color="#AEE3FA"/>
      <stop offset="0.64" stop-color="#BDE7FB"/>
      <stop offset="0.79" stop-color="#C6EAFC"/>
      <stop offset="1" stop-color="#C9EBFC"/>
    </linearGradient>
    <linearGradient id="paint5_linear_3359_22803" x1="22.6615" y1="21.8096" x2="36.4699" y2="7.99468" gradientUnits="userSpaceOnUse">
      <stop stop-color="#63CDF6"/>
      <stop offset="0.2" stop-color="#71D1F7"/>
      <stop offset="0.57" stop-color="#96DCF9"/>
      <stop offset="1" stop-color="#C9EBFC"/>
    </linearGradient>
    <linearGradient id="paint6_linear_3359_22803" x1="4.50962" y1="11.3371" x2="11.8203" y2="11.3371" gradientUnits="userSpaceOnUse">
      <stop stop-color="#004376"/>
      <stop offset="0.14" stop-color="#004F85"/>
      <stop offset="0.51" stop-color="#006BAA"/>
      <stop offset="0.81" stop-color="#007CC1"/>
      <stop offset="1" stop-color="#0082C9"/>
    </linearGradient>
    <linearGradient id="paint7_linear_3359_22803" x1="13.6526" y1="32.9144" x2="35.959" y2="10.608" gradientUnits="userSpaceOnUse">
      <stop offset="0.01" stop-color="#002D58"/>
      <stop offset="1" stop-color="#0097D0"/>
    </linearGradient>
    <clipPath id="clip0_3359_22803">
      <rect width="45" height="44.9936" fill="white"/>
    </clipPath>
  </defs>
</svg>