<svg xmlns="http://www.w3.org/2000/svg" width="45" height="50" viewBox="0 0 45 50" fill="none">
  <g style="mix-blend-mode:multiply" opacity="0.3">
    <path d="M22.5 49.6741C34.9264 49.6741 45 39.596 45 27.164C45 14.7321 34.9264 4.65395 22.5 4.65395C10.0736 4.65395 0 14.7321 0 27.164C0 39.596 10.0736 49.6741 22.5 49.6741Z" fill="black"/>
  </g>
  <path d="M22.5 48.1227C34.9264 48.1227 45 38.0446 45 25.6126C45 13.1807 34.9264 3.10254 22.5 3.10254C10.0736 3.10254 0 13.1807 0 25.6126C0 38.0446 10.0736 48.1227 22.5 48.1227Z" fill="#54B081"/>
  <path d="M22.5 45.0202C34.9264 45.0202 45 34.9421 45 22.5101C45 10.0781 34.9264 0 22.5 0C10.0736 0 0 10.0781 0 22.5101C0 34.9421 10.0736 45.0202 22.5 45.0202Z" fill="#AFDBAF"/>
  <path d="M22.5 46.5715C34.9264 46.5715 45 36.4934 45 24.0614C45 11.6294 34.9264 1.55127 22.5 1.55127C10.0736 1.55127 0 11.6294 0 24.0614C0 36.4934 10.0736 46.5715 22.5 46.5715Z" fill="#7BD194"/>
  <path d="M22.5007 43.477C18.6621 43.4786 14.9092 42.3413 11.7167 40.2088C8.52421 38.0764 6.03558 35.0447 4.5655 31.4971C3.09542 27.9495 2.70995 24.0455 3.45787 20.2787C4.20578 16.512 6.05345 13.0517 8.76721 10.3356C11.481 7.61951 14.9389 5.76957 18.7037 5.01977C22.4685 4.26998 26.3709 4.654 29.9175 6.12328C33.4641 7.59255 36.4955 10.0811 38.6283 13.2741C40.7611 16.4671 41.8995 20.2212 41.8995 24.0616C41.8952 29.2082 39.8503 34.1429 36.2135 37.7829C32.5767 41.4228 27.645 43.4707 22.5007 43.477Z" fill="#59B575"/>
  <g style="mix-blend-mode:multiply" opacity="0.3">
    <path d="M28.6933 25.613L31.8905 22.6143C32.2963 22.238 32.624 21.7853 32.8549 21.2821C33.0858 20.779 33.2154 20.2353 33.2362 19.682C33.257 19.1288 33.1686 18.5769 32.9761 18.0578C32.7836 17.5388 32.4907 17.0627 32.1143 16.657C31.7381 16.2509 31.2856 15.9231 30.7827 15.692C30.2798 15.461 29.7363 15.3314 29.1833 15.3106C28.6303 15.2899 28.0786 15.3783 27.5598 15.5709C27.041 15.7635 26.5652 16.0564 26.1596 16.4331L22.4668 19.8636L18.7741 16.4331C17.9536 15.6719 16.8646 15.268 15.7464 15.31C14.6283 15.3519 13.5726 15.8365 12.8114 16.657C12.0531 17.4775 11.6509 18.5652 11.6928 19.6819C11.7348 20.7986 12.2175 21.8531 13.0352 22.6143L16.2324 25.613L13.0352 28.6117C12.6015 28.9811 12.2471 29.4345 11.9932 29.9446C11.7393 30.4547 11.5913 31.0109 11.558 31.5797C11.5247 32.1486 11.6068 32.7183 11.7995 33.2545C11.9921 33.7908 12.2913 34.2825 12.6789 34.7C13.0665 35.1175 13.5346 35.4521 14.0549 35.6839C14.5753 35.9156 15.1372 36.0395 15.7067 36.0482C16.2762 36.0569 16.8415 35.9501 17.3687 35.7344C17.8959 35.5187 18.3739 35.1985 18.7741 34.793L22.4668 31.3625L26.1995 34.793C26.6052 35.1694 27.081 35.4623 27.5998 35.6548C28.1187 35.8473 28.6703 35.9356 29.2232 35.9148C29.7762 35.8941 30.3196 35.7645 30.8225 35.5336C31.3254 35.3027 31.778 34.975 32.1542 34.5691C32.5305 34.1632 32.8232 33.6872 33.0156 33.1681C33.208 32.6491 33.2964 32.0972 33.2756 31.544C33.2548 30.9908 33.1253 30.4471 32.8945 29.944C32.6637 29.4409 32.3361 28.9882 31.9304 28.6117L28.6933 25.613Z" fill="black"/>
  </g>
  <path d="M28.6926 24.0616L31.8897 21.0629C32.2956 20.6865 32.6233 20.2338 32.8542 19.7307C33.0851 19.2275 33.2147 18.6838 33.2355 18.1306C33.2563 17.5773 33.1678 17.0254 32.9753 16.5064C32.7828 15.9873 32.49 15.5113 32.1135 15.1055C31.3509 14.3027 30.3035 13.8319 29.1971 13.7945C28.0907 13.7571 27.0139 14.1561 26.1988 14.9056L22.5061 18.3361L18.8054 14.9056C17.9839 14.1465 16.8953 13.7438 15.7778 13.7858C14.6603 13.8277 13.6049 14.3109 12.8427 15.1295C12.0844 15.95 11.6821 17.0378 11.7241 18.1544C11.766 19.2711 12.2487 20.3256 13.0665 21.0869L16.2636 24.0855L13.0665 27.0842C12.6328 27.4536 12.2783 27.907 12.0245 28.4171C11.7706 28.9272 11.6225 29.4834 11.5892 30.0523C11.556 30.6211 11.6381 31.1908 11.8307 31.7271C12.0234 32.2633 12.3225 32.755 12.7101 33.1725C13.0978 33.59 13.5658 33.9247 14.0862 34.1564C14.6066 34.3881 15.1684 34.512 15.7379 34.5207C16.3074 34.5294 16.8728 34.4227 17.4 34.207C17.9271 33.9912 18.4052 33.671 18.8054 33.2655L22.4981 29.843L26.1988 33.2415C27.0181 34.0018 28.1058 34.4054 29.2225 34.3634C30.3392 34.3214 31.3936 33.8373 32.1535 33.0176C32.9135 32.1979 33.3168 31.1098 33.2749 29.9926C33.2329 28.8753 32.749 27.8205 31.9297 27.0602L28.6926 24.0616Z" fill="#CCEAA2"/>
</svg>