<svg xmlns="http://www.w3.org/2000/svg" width="45" height="46" viewBox="0 0 45 46" fill="none">
  <g style="mix-blend-mode:multiply" opacity="0.32">
    <path d="M21.7338 45.9918C17.2276 45.9727 12.7264 45.7066 8.25333 45.1948C6.53729 45.0372 4.92355 44.3572 3.65891 43.2587C2.39426 42.1601 1.54834 40.7036 1.25051 39.1118C0.426837 34.0183 0.00884527 28.8744 0 23.7227C0 19.9604 -2.59386e-05 15.9989 0.325106 12.2014C0.537693 9.22441 1.07541 6.61072 3.52641 4.70028C5.43623 3.41467 7.72774 2.72199 10.0791 2.71951C15.0811 2.34445 19.558 2.15692 23.8347 2.15692C28.393 2.14509 32.9483 2.37989 37.4778 2.86015C39.3422 3.05925 41.0729 3.86509 42.3685 5.13727C43.6642 6.40946 44.4426 8.06737 44.5681 9.82216C44.9308 14.7565 45.0683 19.5854 44.9683 24.2033C44.9683 26.5474 44.8182 28.9618 44.6432 31.2356V31.4466C44.5229 33.6035 44.2682 35.7521 43.8804 37.8811C43.055 41.913 40.3289 44.6087 36.5649 45.0541C31.6489 45.6753 26.6942 45.9886 21.7338 45.9918Z" fill="#12102C"/>
  </g>
  <path d="M21.7338 43.8353C17.2247 43.9141 12.7162 43.6475 8.25333 43.0383C6.54858 42.8516 4.95137 42.1616 3.69253 41.0682C2.43368 39.9747 1.57847 38.5343 1.25051 36.9553C0.426402 31.8579 0.00840973 26.7101 0 21.5545C0 17.8039 -2.59386e-05 13.8424 0.325106 10.0449C0.537693 7.05619 1.07541 4.45423 3.52641 2.54378C5.43274 1.25171 7.72654 0.558332 10.0791 0.563007C15.0811 0.18795 19.558 0.000425845 23.8347 0.000425845C28.393 -0.0114076 32.9483 0.223392 37.4778 0.703657C39.3422 0.902753 41.0729 1.70858 42.3685 2.98077C43.6642 4.25296 44.4426 5.91087 44.5681 7.66566C44.9308 12.5883 45.0683 17.4289 44.9683 22.0468C44.9683 24.4495 44.8182 26.7936 44.6432 29.0791V29.2783C44.5229 31.4353 44.2682 33.5838 43.8804 35.7129C43.055 39.7565 40.2414 42.6866 36.4898 43.132C31.5941 43.6824 26.6639 43.9173 21.7338 43.8353Z" fill="#12102C"/>
  <path d="M1.55472 7.87677C1.66834 7.29896 1.8443 6.73347 2.07991 6.18901C2.54789 5.09155 3.29486 4.11787 4.25582 3.35264C5.98989 2.20848 8.06263 1.60189 10.1832 1.61799C19.2322 0.828669 28.3418 0.871851 37.3818 1.74692C38.9843 1.91922 40.4716 2.61303 41.5844 3.70746C42.6973 4.80189 43.3652 6.22757 43.4718 7.73612C43.8219 12.4947 43.972 17.2649 43.8719 22.0235C43.8719 24.3676 43.7344 26.7117 43.5468 28.962C43.4307 31.1426 43.176 33.3148 42.784 35.4669C42.1462 38.6549 40.0329 41.3272 36.4439 41.8077C27.1405 43.0413 17.7027 43.1004 8.38248 41.9836C6.91416 41.8481 5.53289 41.2681 4.44762 40.3312C3.36236 39.3944 2.63216 38.1518 2.36754 36.7913C1.55097 31.7482 1.13299 26.6555 1.11703 21.5546C1.11703 18.8355 1.02949 16.2804 1.11703 13.5729C1.1112 11.6666 1.25751 9.76262 1.55472 7.87677Z" fill="url(#paint0_linear_3359_22553)"/>
  <path opacity="0.45" d="M40.0026 40.4128C39.6149 39.2408 38.8271 38.3617 38.4645 37.26L6.71405 37.6116C6.15436 38.657 5.53658 39.6742 4.86328 40.659C5.88635 41.3883 7.10021 41.8459 8.37721 41.9834C17.6974 43.1002 27.1352 43.0411 36.4386 41.8076C37.7361 41.6421 38.9648 41.1613 40.0026 40.4128Z" fill="#12102C"/>
  <path d="M5.17812 8.76742C5.20798 8.04149 5.51251 7.34921 6.03719 6.81449C6.56188 6.27978 7.27247 5.93753 8.04179 5.849C17.7027 4.55865 27.5074 4.52316 37.1786 5.74352C37.577 5.74347 37.9714 5.81774 38.3389 5.96203C38.7063 6.10632 39.0394 6.31772 39.3187 6.58391C39.5981 6.85011 39.8181 7.16576 39.9659 7.51247C40.1138 7.85918 40.1865 8.23 40.1798 8.60333C40.7551 16.4913 40.8301 27.3562 39.4671 35.3262C39.3519 35.9923 39.005 36.6042 38.4802 37.0663C37.9555 37.5284 37.2825 37.815 36.5659 37.8813C27.3071 38.8449 17.9678 38.9235 8.69204 38.1157C7.94514 38.0586 7.24219 37.7614 6.70214 37.2745C6.16209 36.7875 5.8181 36.1407 5.72834 35.4434C4.77796 28.54 4.81547 18.0149 5.17812 8.76742Z" fill="url(#paint1_linear_3359_22553)"/>
  <path style="mix-blend-mode:screen" d="M37.3742 1.74669C27.5513 0.715641 17.6329 0.774654 7.82472 1.9225C6.7866 2.04469 5.79041 2.38144 4.90807 2.90843C4.02573 3.43543 3.2793 4.13952 2.72266 4.96984C3.62725 5.96969 4.46263 7.02279 5.22367 8.12267C5.22367 8.12267 4.96105 13.9009 4.97356 15.9754C4.97356 19.7729 4.97356 23.5703 4.97356 27.3678C4.97356 30.462 4.97358 33.6383 6.28661 36.4864C6.43119 36.9228 6.7314 37.2993 7.13695 37.553C7.48268 37.6952 7.86164 37.7517 8.23741 37.717C17.166 37.5764 25.4194 33.0288 31.9971 27.3912C37.6994 22.5272 41.1008 16.8428 40.1879 9.52913C40.0887 8.91645 40.0468 8.2968 40.0628 7.67728C40.4477 6.35053 40.9411 5.05353 41.5385 3.79778C40.9757 2.74294 38.7873 2.01626 37.3742 1.74669Z" fill="url(#paint2_radial_3359_22553)"/>
  <path d="M37.1818 5.74352C27.5105 4.52316 17.7059 4.55865 8.04497 5.849C7.27565 5.93753 6.56506 6.27978 6.04037 6.81449C5.51569 7.34921 5.21116 8.04149 5.1813 8.76742C5.09376 10.924 5.03124 13.1509 4.99373 15.3778C4.99373 16.2803 4.99373 17.1828 4.99373 18.0735C4.99373 18.7416 4.99373 19.4097 4.99373 20.0777C4.82322 24.8899 5.01543 29.7073 5.56895 34.494C4.99605 26.6326 5.05459 18.742 5.74404 10.8888C5.76634 10.2386 5.90585 9.59667 6.15669 8.99011C6.52002 8.42023 7.0054 7.9271 7.58221 7.54181C8.15902 7.15651 8.81474 6.88741 9.50805 6.75148C12.1912 6.14095 14.9382 5.81077 17.6989 5.76696C21.7591 5.50205 25.8349 5.52555 29.8914 5.83728C32.8041 5.92808 35.692 6.37329 38.4824 7.16171C38.6814 7.22375 38.8706 7.31046 39.0451 7.41955C39.3063 7.63918 39.5174 7.90609 39.6657 8.2042C39.814 8.50231 39.8964 8.82546 39.9079 9.1542C39.9829 9.56441 40.058 9.98635 40.1205 10.3966L39.9705 8.21655C39.9329 6.68116 38.7324 5.96621 37.1818 5.74352Z" fill="url(#paint3_radial_3359_22553)"/>
  <path style="mix-blend-mode:screen" d="M8.6889 38.1157C17.9646 38.9236 27.304 38.845 36.5628 37.8813C37.2838 37.8199 37.9626 37.5356 38.4923 37.073C39.022 36.6105 39.3726 35.996 39.4889 35.3262C40.4208 28.9782 40.7764 22.5675 40.5519 16.1632C40.4768 15.7178 40.5519 14.5926 40.4643 14.1707C40.3268 20.1716 40.1392 24.7191 39.564 30.1223C39.4851 31.9989 38.8484 33.8175 37.7257 35.3731C37.1409 35.9688 36.4238 36.4369 35.6249 36.7444C33.674 37.463 31.5933 37.8212 29.4974 37.7993C27.334 37.8579 25.1831 38.0454 23.0072 38.0806C19.1432 38.1509 15.2791 38.0806 11.4275 37.8344C9.98943 37.7407 8.32625 37.9751 7.20079 37.0257C6.44051 36.3652 5.94596 35.4795 5.80023 34.5175C5.52926 33.1617 5.34552 31.7918 5.25 30.4153C5.28066 32.2124 5.49847 34.0025 5.90029 35.7599C6.05798 36.3701 6.40853 36.9214 6.9061 37.3418C7.40367 37.7621 8.02504 38.0319 8.6889 38.1157Z" fill="url(#paint4_radial_3359_22553)"/>
  <path opacity="0.58" d="M7.82695 10.0216C7.56763 10.3128 7.43781 10.6863 7.46433 11.0647C7.47759 11.286 7.5701 11.4966 7.72692 11.6625C7.85033 11.7504 7.99177 11.8135 8.1424 11.8478C8.29303 11.8821 8.44958 11.8868 8.60226 11.8617C9.67769 11.768 12.2788 10.4904 11.4284 9.11913C10.8032 8.11117 8.36467 9.40042 7.82695 10.0216Z" fill="#FDFEFF"/>
  <path opacity="0.58" d="M13.2298 8.19299C12.3669 8.05234 12.3294 9.59945 13.5549 9.283C13.7314 9.22797 13.8914 9.13447 14.0219 9.01018C14.1523 8.88589 14.2494 8.73436 14.3052 8.56805C14.3357 8.48447 14.3357 8.39377 14.3052 8.31019C14.2761 8.2471 14.2224 8.19679 14.1551 8.16955C13.9324 8.05319 13.6734 8.01294 13.4225 8.0557C13.1716 8.09846 12.9444 8.22155 12.7796 8.40396L13.2298 8.19299Z" fill="#FDFEFF"/>
  <path style="mix-blend-mode:screen" d="M40.5065 23.793C40.5065 21.0504 40.3815 18.8469 40.4315 18.2609C40.4815 17.6749 40.4315 17.2998 40.4315 16.8076C40.4315 16.3153 40.4315 15.9168 40.4315 15.4714C38.3432 34.4587 32.0406 39.2759 14.8086 38.4672L15.7214 38.5726C22.6161 38.8003 29.5193 38.5731 36.3799 37.8928C36.8591 37.8019 37.3281 37.6685 37.7804 37.4943C38.2239 37.2797 38.6089 36.9727 38.9058 36.5968C39.2028 36.2209 39.4039 35.7862 39.4936 35.326C40.0882 31.5053 40.4265 27.6534 40.5065 23.793Z" fill="url(#paint5_radial_3359_22553)"/>
  <g style="mix-blend-mode:screen" opacity="0.56">
    <path d="M36.2878 34.1891C35.425 33.4156 33.0991 34.9158 33.2491 35.8066C33.3992 36.6973 36.0377 35.5253 36.3128 34.9861C36.588 34.447 36.4629 34.3532 36.2878 34.1891Z" fill="#7B76A0"/>
  </g>
  <g style="mix-blend-mode:screen" opacity="0.56">
    <path d="M37.8825 31.9272C37.1322 31.5756 35.7316 32.7593 36.5569 33.2985C37.3823 33.8376 39.158 32.5249 37.8825 31.9272Z" fill="#7B76A0"/>
  </g>
  <path style="mix-blend-mode:screen" d="M8.0431 5.84916C7.29564 5.94039 6.60339 6.26686 6.0798 6.77508C5.70844 7.22933 5.42486 7.74105 5.24194 8.28703C5.24194 8.4394 5.24195 8.60348 5.17943 8.76757C4.97935 13.8426 4.87933 19.3161 5.00438 24.3676C5.13354 22.4243 5.48143 20.4993 6.04228 18.6246C6.34782 16.7949 6.92885 15.0152 7.76799 13.3386C8.86303 11.3609 10.5207 9.70578 12.5574 8.5566C14.8801 7.3682 17.4295 6.61951 20.0605 6.35314C22.2239 6.02496 24.3997 5.74367 26.5881 5.52098C27.376 5.43894 28.1763 5.35689 28.9641 5.29829C27.4974 5.08041 26.02 4.93176 24.5373 4.85291C19.0215 4.83278 13.5106 5.16564 8.0431 5.84916Z" fill="url(#paint6_radial_3359_22553)"/>
  <path d="M36.4663 16.3858C36.6288 15.8701 36.0912 14.9559 34.8531 13.6315C34.1075 12.6836 33.1238 11.9227 31.9895 11.4163C31.7139 11.3805 31.4334 11.4018 31.1676 11.4788C30.9018 11.5558 30.6573 11.6864 30.4513 11.8616C29.5795 12.4533 28.7445 13.0911 27.9503 13.7721C26.6998 14.827 25.4493 15.8466 24.1113 16.8312C23.0984 15.5536 22.1355 14.2761 21.2476 12.9868C20.6922 12.1441 20.0825 11.3339 19.4219 10.5607C19.2679 10.3434 19.0649 10.1604 18.8272 10.0247C18.5895 9.88903 18.3229 9.80392 18.0463 9.77539C16.817 10.0031 15.6662 10.5102 14.695 11.2522C13.1193 12.2484 12.344 13.0103 12.3565 13.5963C12.4762 14.2958 12.8108 14.9475 13.3194 15.4716C14.8825 17.382 16.5082 19.2573 18.1339 21.1326C16.033 22.586 13.9321 24.0159 11.8813 25.5044C11.2417 25.886 10.7369 26.4365 10.4307 27.0866C10.2556 27.6023 10.7934 28.5283 12.0314 29.841C12.7588 30.7911 13.731 31.5532 14.8575 32.0562C15.1321 32.0919 15.4116 32.0716 15.6771 31.9968C15.9426 31.922 16.1877 31.7943 16.3956 31.6225C17.2669 31.026 18.1019 30.3843 18.8966 29.7003C20.1472 28.6572 21.3976 27.6492 22.7482 26.6413C23.7361 27.9071 24.699 29.1846 25.5994 30.4973C26.1548 31.34 26.7645 32.1503 27.4251 32.9235C27.5816 33.1375 27.7855 33.3174 28.0229 33.4509C28.2602 33.5844 28.5256 33.6683 28.8007 33.697C30.0319 33.475 31.1841 32.9672 32.152 32.2202C33.7277 31.2357 34.503 30.4739 34.4905 29.9347C34.3708 29.2352 34.0362 28.5836 33.5276 28.0594C32.002 26.1842 30.3638 24.2972 28.7381 22.3867C30.8515 20.9216 32.9649 19.48 34.9907 18.0267C35.6456 17.6292 36.1593 17.058 36.4663 16.3858Z" fill="white"/>
  <path opacity="0.5" d="M36.4663 17.8628C36.6288 17.3471 36.0911 16.4329 34.8531 15.1085C34.118 14.1651 33.1477 13.4046 32.027 12.8933C31.7515 12.8607 31.4718 12.8836 31.2066 12.9604C30.9413 13.0372 30.6966 13.1662 30.4888 13.3387C29.617 13.9303 28.782 14.5682 27.9878 15.2491C26.7373 16.3157 25.4868 17.3237 24.1488 18.3082C23.1359 17.0307 22.173 15.7531 21.2851 14.4639C20.739 13.6098 20.1377 12.7878 19.4844 12.0026C19.3304 11.7853 19.1274 11.6023 18.8897 11.4666C18.652 11.3309 18.3854 11.2458 18.1088 11.2173C16.8795 11.445 15.7287 11.9521 14.7575 12.6941C13.1818 13.6903 12.4065 14.4521 12.419 15.0382C12.5387 15.7377 12.8733 16.3894 13.3819 16.9135C14.945 18.8239 16.5707 20.6992 18.1964 22.5862C16.0955 24.0278 13.9946 25.4577 11.9438 26.9463C11.3042 27.3279 10.7994 27.8784 10.4932 28.5285C10.3181 29.0442 10.8559 29.9702 12.0939 31.2829C12.8213 32.233 13.7936 32.9951 14.92 33.498C15.1947 33.537 15.4751 33.5183 15.7411 33.4433C16.0071 33.3683 16.252 33.2389 16.4581 33.0644C17.3294 32.4679 18.1644 31.8262 18.9591 31.1422C20.2097 30.1108 21.4602 29.0911 22.8107 28.0832C23.7986 29.349 24.7615 30.6265 25.6619 31.9392C26.2173 32.7819 26.827 33.5921 27.4876 34.3654C27.6416 34.5816 27.8449 34.7632 28.0827 34.8969C28.3206 35.0307 28.5871 35.1133 28.8632 35.1389C30.0944 34.9168 31.2466 34.4091 32.2145 33.6621C33.7902 32.6776 34.5655 31.9158 34.553 31.318C34.4333 30.6185 34.0987 29.9668 33.5901 29.4427C32.0645 27.5674 30.4263 25.6804 28.8007 23.77C30.914 22.3049 33.0274 20.8633 35.0532 19.4099C35.6701 19.0291 36.1599 18.4929 36.4663 17.8628Z" fill="#D6D1FA"/>
  <path d="M36.4663 17.136C36.6288 16.6203 36.0911 15.6944 34.8531 14.3817C34.1257 13.4315 33.1534 12.6695 32.027 12.1665C31.7523 12.1284 31.4721 12.1475 31.2063 12.2224C30.9404 12.2974 30.6954 12.4264 30.4888 12.6002C29.6175 13.1966 28.7825 13.8383 27.9878 14.5223C26.7373 15.5772 25.4868 16.5852 24.1488 17.5814C23.1359 16.3039 22.173 15.0146 21.2851 13.7253C20.7377 12.8833 20.1364 12.0731 19.4844 11.2992C19.3279 11.0852 19.124 10.9053 18.8866 10.7718C18.6493 10.6383 18.3839 10.5543 18.1088 10.5256C16.8776 10.7477 15.7254 11.2554 14.7575 12.0024C13.1818 12.987 12.4065 13.7488 12.419 14.3465C12.5396 15.0423 12.8743 15.69 13.3819 16.2101C14.945 18.1205 16.5707 19.9958 18.1964 21.8828C16.0955 23.3245 13.9946 24.7661 11.9438 26.2429C11.2987 26.6237 10.7927 27.1797 10.4932 27.8369C10.3181 28.3526 10.8559 29.2668 12.0939 30.5912C12.829 31.5346 13.7993 32.2951 14.92 32.8064C15.1955 32.8398 15.4754 32.8173 15.7407 32.7404C16.0061 32.6636 16.2508 32.5342 16.4581 32.361C17.3299 31.7694 18.165 31.1315 18.9591 30.4506C20.2097 29.4074 21.4602 28.3877 22.8107 27.3915C23.7986 28.6573 24.7615 29.9349 25.6619 31.2358C26.2173 32.0786 26.827 32.8888 27.4876 33.662C27.6416 33.8793 27.8446 34.0623 28.0823 34.1979C28.32 34.3336 28.5866 34.4187 28.8632 34.4473C30.0925 34.2196 31.2433 33.7125 32.2145 32.9705C33.7902 31.9742 34.5655 31.2124 34.553 30.6264C34.4333 29.9269 34.0987 29.2752 33.5901 28.7511C32.0645 26.8875 30.4263 24.9888 28.8007 23.0901C30.914 21.625 33.0274 20.1717 35.0532 18.7183C35.6737 18.326 36.1635 17.7776 36.4663 17.136Z" fill="#12102C"/>
  <defs>
    <linearGradient id="paint0_linear_3359_22553" x1="22.5007" y1="0.996806" x2="22.5007" y2="48.7346" gradientUnits="userSpaceOnUse">
      <stop stop-color="#A8A3D6"/>
      <stop offset="0.29" stop-color="#7C77B2"/>
      <stop offset="0.82" stop-color="#2A2A62"/>
      <stop offset="1" stop-color="#111031"/>
    </linearGradient>
    <linearGradient id="paint1_linear_3359_22553" x1="22.7603" y1="5.06373" x2="22.7603" y2="37.9985" gradientUnits="userSpaceOnUse">
      <stop offset="0.01" stop-color="#8C94D3"/>
      <stop offset="1" stop-color="#7C77B2"/>
    </linearGradient>
    <radialGradient id="paint2_radial_3359_22553" cx="0" cy="0" r="1" gradientUnits="userSpaceOnUse" gradientTransform="translate(23.0809 -2.19141) scale(62.5255 58.6027)">
      <stop stop-color="#8C94D3"/>
      <stop offset="0.63"/>
    </radialGradient>
    <radialGradient id="paint3_radial_3359_22553" cx="0" cy="0" r="1" gradientUnits="userSpaceOnUse" gradientTransform="translate(15.9607 4.34877) scale(41.9671 39.3342)">
      <stop stop-color="#FDFEFF"/>
      <stop offset="0.57" stop-color="#D6D1FA"/>
      <stop offset="1" stop-color="#7C77B2"/>
    </radialGradient>
    <radialGradient id="paint4_radial_3359_22553" cx="0" cy="0" r="1" gradientUnits="userSpaceOnUse" gradientTransform="translate(23.6075 36.5452) scale(26.3482 24.6952)">
      <stop stop-color="#7B76A0"/>
      <stop offset="0.12" stop-color="#716C93"/>
      <stop offset="0.35" stop-color="#575371"/>
      <stop offset="0.65" stop-color="#2D2B3A"/>
      <stop offset="0.94"/>
    </radialGradient>
    <radialGradient id="paint5_radial_3359_22553" cx="0" cy="0" r="1" gradientUnits="userSpaceOnUse" gradientTransform="translate(13.8457 5.33316) scale(38.7908 36.3571)">
      <stop stop-color="#7B76A0"/>
      <stop offset="0.15" stop-color="#757099"/>
      <stop offset="0.37" stop-color="#666186"/>
      <stop offset="0.63" stop-color="#4C4768"/>
      <stop offset="0.91" stop-color="#28233D"/>
      <stop offset="1" stop-color="#1C172E"/>
    </radialGradient>
    <radialGradient id="paint6_radial_3359_22553" cx="0" cy="0" r="1" gradientUnits="userSpaceOnUse" gradientTransform="translate(3.97896 -3.69137) scale(34.0513 31.915)">
      <stop stop-color="#7C77B2"/>
      <stop offset="0.14" stop-color="#7772AB"/>
      <stop offset="0.34" stop-color="#696498"/>
      <stop offset="0.57" stop-color="#534E7A"/>
      <stop offset="0.83" stop-color="#342F4F"/>
      <stop offset="1" stop-color="#1C172E"/>
    </radialGradient>
  </defs>
</svg>